<svg width="20" height="20" viewBox="0 0 20 20" fill="none" xmlns="http://www.w3.org/2000/svg">
<path d="M9.96092 7.89061C10.3924 7.89061 10.7422 8.24034 10.7422 8.67186C10.7422 9.10338 10.3924 9.45311 9.96092 9.45311C9.5294 9.45311 9.17967 9.10338 9.17967 8.67186C9.17967 8.24034 9.5294 7.89061 9.96092 7.89061ZM12.6953 8.67186C12.6953 9.10338 13.045 9.45311 13.4765 9.45311C13.9081 9.45311 14.2578 9.10338 14.2578 8.67186C14.2578 8.24034 13.9081 7.89061 13.4765 7.89061C13.045 7.89061 12.6953 8.24034 12.6953 8.67186ZM5.66405 8.67186C5.66405 9.10338 6.01378 9.45311 6.4453 9.45311C6.87682 9.45311 7.22655 9.10338 7.22655 8.67186C7.22655 8.24034 6.87682 7.89061 6.4453 7.89061C6.01378 7.89061 5.66405 8.24034 5.66405 8.67186ZM19.313 15.9985C20.2273 16.9128 20.2273 18.3996 19.3135 19.3135C18.8566 19.7703 18.2563 19.9989 17.6562 19.9989C17.0561 19.9989 16.4558 19.7703 15.999 19.3135L11.7103 15.0345C11.6192 14.9435 11.5521 14.8317 11.5147 14.7084L10.5806 11.6333C10.4977 11.3606 10.5699 11.0646 10.7689 10.8606C10.9678 10.6567 11.262 10.5774 11.5367 10.6534L14.6899 11.5268C14.8198 11.5628 14.938 11.6316 15.0334 11.7268L19.313 15.9985ZM12.9527 14.0667L15.8468 16.9545L16.9519 15.8494L14.0748 12.9779L12.4885 12.5384L12.9527 14.0667ZM18.2086 17.1038L18.0578 16.9532L16.9529 18.0581L17.1032 18.208C17.4084 18.5133 17.904 18.5133 18.2086 18.2086C18.5133 17.904 18.5133 17.4084 18.2086 17.1038V17.1038ZM10.4346 16.1895C10.2902 16.1958 10.144 16.199 9.99998 16.199C8.74373 16.199 7.53432 15.9651 6.40547 15.5038C6.21321 15.4254 5.99746 15.4266 5.80611 15.5073L2.24884 17.0089L3.44741 14.1697C3.5646 13.8922 3.51165 13.5718 3.31115 13.3465C2.1672 12.0614 1.5625 10.5238 1.5625 8.90028C1.5625 4.85427 5.34759 1.5625 9.99998 1.5625C14.6524 1.5625 18.4375 4.85427 18.4375 8.90028C18.4375 9.85975 18.2019 10.823 17.7371 11.7631C17.5459 12.1499 17.7044 12.6185 18.0912 12.8097C18.4781 13.0009 18.9466 12.8424 19.1378 12.4556C19.7099 11.2982 20 10.1021 20 8.90028C20 3.99261 15.514 0 9.99998 0C4.48608 0 0 3.99261 0 8.90028C0 10.7527 0.628051 12.507 1.82174 14.0031L0.0614928 18.1727C-0.0621032 18.4655 0.00411988 18.8041 0.228881 19.0289C0.378417 19.1784 0.578154 19.2578 0.781401 19.2578C0.883787 19.2578 0.987089 19.2376 1.08505 19.1963L6.12136 17.0703C7.34969 17.5291 8.65294 17.7615 9.99998 17.7615C10.1666 17.7615 10.3358 17.7577 10.5029 17.7505C10.934 17.7316 11.2681 17.3669 11.2492 16.9359C11.2304 16.5048 10.865 16.1696 10.4346 16.1895V16.1895Z" fill="#949DA6"/>
</svg>
