<svg width="18" height="18" viewBox="0 0 18 18" fill="none" xmlns="http://www.w3.org/2000/svg">
<g clip-path="url(#clip0_583_1337)">
<path d="M15.4752 6.36122L13.1684 7.19866C12.8228 6.58067 12.3408 6.04729 11.7489 5.63393C11.5672 5.5069 11.3779 5.39429 11.1827 5.29472C11.7528 4.7336 12.1068 3.95329 12.1068 3.09169C12.1068 1.38689 10.7212 0 9.01772 0C7.31443 0 5.92864 1.38689 5.92864 3.09169C5.92864 3.95329 6.28267 4.7336 6.85273 5.29472C6.65758 5.39429 6.46821 5.5069 6.28652 5.63393C5.69477 6.04729 5.2126 6.58067 4.86708 7.19866L2.56023 6.36122C2.10251 6.19505 1.61719 6.53439 1.61719 7.02219V14.866C1.61719 15.1618 1.80231 15.426 2.0804 15.527L8.77781 17.9583C8.93766 18.0162 9.11042 18.0115 9.25764 17.9583L15.955 15.527C16.2331 15.426 16.4183 15.1618 16.4183 14.866V7.02219C16.4183 6.53522 15.9336 6.19478 15.4752 6.36122ZM9.01772 1.40625C9.94566 1.40625 10.7006 2.16238 10.7006 3.09169C10.7006 4.021 9.94566 4.77713 9.01772 4.77713C8.08979 4.77713 7.33489 4.021 7.33489 3.09169C7.33489 2.16238 8.08979 1.40625 9.01772 1.40625ZM8.3146 16.294L3.02344 14.3733V8.02551L8.3146 9.9462V16.294ZM9.01772 8.70529L6.21579 7.68823C6.82348 6.76703 7.87665 6.18338 9.01772 6.18338C10.1588 6.18338 11.212 6.76703 11.8197 7.68823L9.01772 8.70529ZM15.012 14.3733L9.72085 16.294V9.9462L15.012 8.02551V14.3733Z" fill="#949DA6"/>
</g>
<defs>
<clipPath id="clip0_583_1337">
<rect width="18" height="18" fill="white"/>
</clipPath>
</defs>
</svg>
