<svg width="16" height="16" viewBox="0 0 16 16" fill="none" xmlns="http://www.w3.org/2000/svg">
<g clip-path="url(#clip0_259_219)">
<path d="M14.3164 4.20996C13.985 4.37028 13.8464 4.76904 14.0067 5.10026C14.4447 6.00505 14.6667 6.98031 14.6667 8C14.6667 11.6759 11.6759 14.6667 8 14.6667C4.32406 14.6667 1.33333 11.6759 1.33333 8C1.33333 4.32406 4.32406 1.33333 8 1.33333C9.52328 1.33333 10.9543 1.83073 12.1387 2.77165C12.4259 3.00098 12.846 2.95296 13.0754 2.66471C13.3047 2.37663 13.2567 1.95703 12.9683 1.72803C11.5661 0.613607 9.8016 0 8 0C3.58903 0 0 3.58903 0 8C0 12.411 3.58903 16 8 16C12.411 16 16 12.411 16 8C16 6.77767 15.7331 5.60628 15.2067 4.51969C15.0467 4.18766 14.6466 4.04932 14.3164 4.20996Z" fill="#949DA6"/>
<path d="M7.99967 2.66663C7.63167 2.66663 7.33301 2.96529 7.33301 3.33329V7.99996C7.33301 8.36796 7.63167 8.66663 7.99967 8.66663H11.333C11.701 8.66663 11.9997 8.36796 11.9997 7.99996C11.9997 7.63196 11.701 7.33329 11.333 7.33329H8.66634V3.33329C8.66634 2.96529 8.36768 2.66663 7.99967 2.66663Z" fill="#949DA6"/>
</g>
<defs>
<clipPath id="clip0_259_219">
<rect width="16" height="16" fill="white"/>
</clipPath>
</defs>
</svg>
