<svg width="70" height="70" viewBox="0 0 70 70" fill="none" xmlns="http://www.w3.org/2000/svg">
<path d="M16.6996 26.392C15.2484 23.8664 15.2195 21.0298 16.6186 18.6033L22.976 9.76974L21.6106 7.86743L13.8842 18.6033C12.4852 21.0298 12.514 23.8669 13.9653 26.392C14.7367 27.7408 15.8492 28.863 17.1913 29.646C18.5334 30.429 20.0578 30.8452 21.6115 30.853C22.0694 30.8528 22.5266 30.8162 22.9787 30.7436C21.6745 30.5306 20.4341 30.0295 19.3479 29.2767C18.2617 28.524 17.357 27.5385 16.6996 26.392Z" fill="#D4E1F4"/>
<path d="M64.9414 19.8242C64.9414 19.6067 64.855 19.398 64.7011 19.2442C64.5473 19.0903 64.3386 19.0039 64.1211 19.0039H55.918C55.7004 19.0039 55.4918 19.0903 55.3379 19.2442C55.1841 19.398 55.0977 19.6067 55.0977 19.8242V63.5742C55.0977 63.7918 55.1841 64.0004 55.3379 64.1543C55.4918 64.3081 55.7004 64.3945 55.918 64.3945H64.1211C64.3386 64.3945 64.5473 64.3081 64.7011 64.1543C64.855 64.0004 64.9414 63.7918 64.9414 63.5742V19.8242ZM63.3008 62.7539H56.7383V20.6445H63.3008V62.7539Z" fill="#0635C9"/>
<path d="M14.9023 54.0039C14.9023 53.7863 14.8159 53.5777 14.6621 53.4239C14.5082 53.27 14.2996 53.1836 14.082 53.1836H5.87891C5.66135 53.1836 5.4527 53.27 5.29886 53.4239C5.14502 53.5777 5.05859 53.7863 5.05859 54.0039V63.5742C5.05859 63.7918 5.14502 64.0004 5.29886 64.1543C5.4527 64.3081 5.66135 64.3945 5.87891 64.3945H14.082C14.2996 64.3945 14.5082 64.3081 14.6621 64.1543C14.8159 64.0004 14.9023 63.7918 14.9023 63.5742V54.0039ZM13.2617 62.7539H6.69922V54.8242H13.2617V62.7539Z" fill="#0635C9"/>
<path d="M52.3633 33.7695C52.3633 33.552 52.2769 33.3433 52.123 33.1895C51.9692 33.0356 51.7605 32.9492 51.543 32.9492H43.3398C43.1223 32.9492 42.9136 33.0356 42.7598 33.1895C42.606 33.3433 42.5195 33.552 42.5195 33.7695V63.5742C42.5195 63.7918 42.606 64.0004 42.7598 64.1543C42.9136 64.3081 43.1223 64.3945 43.3398 64.3945H51.543C51.7605 64.3945 51.9692 64.3081 52.123 64.1543C52.2769 64.0004 52.3633 63.7918 52.3633 63.5742V33.7695ZM50.7227 62.7539H44.1602V34.5898H50.7227V62.7539Z" fill="#0635C9"/>
<path d="M39.9219 41.8359C39.9219 41.6184 39.8355 41.4097 39.6816 41.2559C39.5278 41.102 39.3191 41.0156 39.1016 41.0156H30.8984C30.6809 41.0156 30.4722 41.102 30.3184 41.2559C30.1645 41.4097 30.0781 41.6184 30.0781 41.8359V63.5742C30.0781 63.7918 30.1645 64.0004 30.3184 64.1543C30.4722 64.3081 30.6809 64.3945 30.8984 64.3945H39.1016C39.3191 64.3945 39.5278 64.3081 39.6816 64.1543C39.8355 64.0004 39.9219 63.7918 39.9219 63.5742V41.8359ZM38.2812 62.7539H31.7188V42.6563H38.2812V62.7539Z" fill="#0635C9"/>
<path d="M27.3438 47.168C27.3438 46.9504 27.2573 46.7418 27.1035 46.5879C26.9496 46.4341 26.741 46.3477 26.5234 46.3477H18.3203C18.1028 46.3477 17.8941 46.4341 17.7403 46.5879C17.5864 46.7418 17.5 46.9504 17.5 47.168V63.5742C17.5 63.7918 17.5864 64.0004 17.7403 64.1543C17.8941 64.3081 18.1028 64.3945 18.3203 64.3945H26.5234C26.741 64.3945 26.9496 64.3081 27.1035 64.1543C27.2573 64.0004 27.3438 63.7918 27.3438 63.5742V47.168ZM25.7031 62.7539H19.1406V47.9883H25.7031V62.7539Z" fill="#0635C9"/>
<path d="M45.531 26.3694C52.149 19.5732 56.0382 13.2178 57.4893 10.6285L58.2919 13.6019C58.3486 13.8119 58.4864 13.9909 58.675 14.0993C58.8636 14.2077 59.0876 14.2368 59.2977 14.1801C59.5077 14.1234 59.6866 13.9856 59.7951 13.797C59.9035 13.6084 59.9326 13.3844 59.8759 13.1744L58.5224 8.15856C58.4943 8.05454 58.446 7.95708 58.3803 7.87173C58.3145 7.78638 58.2326 7.71482 58.1392 7.66113C58.0458 7.60744 57.9428 7.57267 57.8359 7.55881C57.7291 7.54496 57.6206 7.55228 57.5165 7.58037L52.2367 9.00539C52.132 9.03275 52.0336 9.08059 51.9475 9.14614C51.8613 9.2117 51.7889 9.29367 51.7345 9.38733C51.6802 9.48099 51.6449 9.58448 51.6308 9.69184C51.6166 9.7992 51.6238 9.9083 51.6521 10.0129C51.6803 10.1174 51.7289 10.2153 51.7952 10.301C51.8614 10.3866 51.944 10.4583 52.0381 10.5119C52.1322 10.5655 52.236 10.5999 52.3434 10.6132C52.4509 10.6265 52.56 10.6184 52.6643 10.5893L56.1532 9.6477C54.8214 12.0304 50.9169 18.4968 44.3164 25.2649C39.4667 30.2381 34.1308 34.3999 28.457 37.6348C21.4603 41.6432 13.7564 44.2648 5.76715 45.3562C5.56102 45.384 5.37317 45.4891 5.2416 45.6502C5.11003 45.8113 5.04458 46.0164 5.05848 46.2239C5.07237 46.4315 5.16459 46.626 5.31646 46.7681C5.46834 46.9102 5.66852 46.9893 5.87652 46.9894C5.91397 46.9894 5.95138 46.9869 5.98849 46.9819C14.1973 45.8604 22.1123 43.1646 29.299 39.0425C35.1114 35.7253 40.5724 31.4614 45.531 26.3694Z" fill="#0635C9"/>
<path d="M30.6951 17.7105L22.2784 5.96545C22.2035 5.85738 22.1041 5.76847 21.9885 5.70593C21.8728 5.64338 21.744 5.60897 21.6126 5.60547C21.4812 5.60895 21.3525 5.64327 21.2368 5.70566C21.1212 5.76805 21.0218 5.85676 20.9467 5.96463L12.5295 17.6687C12.5141 17.69 12.4998 17.7166 12.4866 17.7393C10.7894 20.6514 10.8105 24.1917 12.5432 27.207C13.453 28.8124 14.7726 30.1476 16.3672 31.0762C17.9618 32.0048 19.7743 32.4935 21.6196 32.4925C23.4648 32.4915 25.2768 32.0007 26.8704 31.0704C28.464 30.1401 29.7821 28.8034 30.6901 27.1971C32.414 24.1892 32.4314 20.6663 30.7365 17.7737C30.7236 17.752 30.7098 17.7311 30.6951 17.7105ZM29.2668 26.3819C28.5023 27.7378 27.3914 28.8662 26.0477 29.6518C24.704 30.4373 23.1757 30.8518 21.6192 30.8528C20.0627 30.8539 18.5338 30.4414 17.1891 29.6576C15.8443 28.8737 14.732 27.7468 13.9657 26.3919C12.5145 23.8663 12.4856 21.0297 13.8847 18.6032L21.6111 7.86734L29.3396 18.6356C30.7357 21.0429 30.7096 23.8641 29.2668 26.3819Z" fill="#1AE5BE"/>
<path d="M26.6547 21.3945C26.4371 21.3945 26.2285 21.481 26.0746 21.6348C25.9208 21.7886 25.8344 21.9973 25.8344 22.2148C25.8293 23.3479 25.3751 24.4327 24.5714 25.2314C23.7676 26.03 22.6799 26.4773 21.5469 26.4751C21.3293 26.4751 21.1207 26.5616 20.9668 26.7154C20.813 26.8692 20.7266 27.0779 20.7266 27.2955C20.7266 27.513 20.813 27.7217 20.9668 27.8755C21.1207 28.0293 21.3293 28.1158 21.5469 28.1158C23.115 28.1176 24.6197 27.4973 25.7311 26.3911C26.8424 25.2848 27.4696 23.7829 27.475 22.2148C27.475 21.9973 27.3886 21.7886 27.2347 21.6348C27.0809 21.481 26.8722 21.3945 26.6547 21.3945Z" fill="#1AE5BE"/>
</svg>
