<svg width="918" height="741" viewBox="0 0 918 741" fill="none" xmlns="http://www.w3.org/2000/svg">
<g opacity="0.1">
<path fill-rule="evenodd" clip-rule="evenodd" d="M509.468 331.915C543.697 411.993 445.97 442.239 406.533 464.552C370.319 484.881 334.354 557.274 303.597 553.555C224.969 543.886 300.869 445.958 246.052 387.945C157.007 293.24 258.454 212.914 323.192 212.914C388.178 213.162 469.782 238.946 509.468 331.915Z" stroke="white" stroke-width="2" stroke-miterlimit="10"/>
<path fill-rule="evenodd" clip-rule="evenodd" d="M468.791 336.13C482.433 366.129 473.256 388.193 454.901 404.804C436.05 421.91 407.774 432.571 391.651 441C363.871 455.875 336.339 510.913 313.023 507.194C254.486 497.526 310.295 425.133 269.121 381.004C202.399 309.107 278.546 248.367 327.658 247.871C376.521 247.375 437.538 266.713 468.791 336.13Z" stroke="white" stroke-width="0.8125" stroke-miterlimit="10"/>
<path fill-rule="evenodd" clip-rule="evenodd" d="M428.111 340.345C438.28 360.674 435.8 377.037 423.398 390.176C410.748 403.564 388.921 411.745 376.519 417.695C356.924 427.364 338.569 460.585 321.951 460.833C284.001 461.329 319.222 404.308 291.69 373.814C247.539 324.726 298.387 283.571 331.624 282.58C364.861 281.588 405.043 294.728 428.111 340.345Z" stroke="white" stroke-width="0.625" stroke-miterlimit="10"/>
<path fill-rule="evenodd" clip-rule="evenodd" d="M387.186 344.312C394.131 354.972 398.099 365.633 391.898 375.301C385.697 384.97 370.071 390.672 361.39 394.143C350.228 398.606 340.554 413.233 331.129 414.225C309.302 416.952 328.401 383.235 314.51 366.624C292.683 340.345 318.231 318.776 335.594 317.04C353.204 315.801 373.047 322.495 387.186 344.312Z" stroke="white" stroke-width="0.4375" stroke-miterlimit="10"/>
<path fill-rule="evenodd" clip-rule="evenodd" d="M360.396 360.922C360.396 367.12 351.466 370.839 346.506 370.839C341.545 370.839 337.328 365.88 337.328 359.682C337.328 353.485 341.297 348.526 346.506 348.526C351.466 348.526 360.396 354.724 360.396 360.922Z" stroke="white" stroke-width="0.5" stroke-miterlimit="10"/>
<path fill-rule="evenodd" clip-rule="evenodd" d="M516.412 653.219C497.809 686.936 467.052 711.976 430.343 723.38C375.278 740.486 295.162 753.13 226.456 715.694C108.39 650.987 151.549 610.081 75.6491 528.515C-0.250355 446.95 -18.109 405.3 21.329 293.488C60.767 181.677 49.3572 243.409 105.662 119.945C161.966 -3.76648 220.999 -11.204 283.257 11.6045C357.668 38.8756 541.216 285.555 699.712 97.1366C779.58 2.18362 954.446 174.983 909.551 293.488C864.657 411.994 930.139 560.249 828.939 542.399C727.74 524.549 694.503 540.663 616.123 560.249C569.492 571.901 536.007 617.766 516.412 653.219Z" stroke="white" stroke-miterlimit="10"/>
<path fill-rule="evenodd" clip-rule="evenodd" d="M155.517 134.324C210.581 45.3213 254.732 37.8837 307.316 57.2214C332.616 66.3944 365.357 101.599 405.291 132.589C471.021 183.66 578.421 215.89 661.762 155.149C765.937 79.0383 853.991 219.113 820.754 318.776C806.368 362.162 821.498 379.02 817.529 417.944C812.569 469.263 793.966 513.144 745.102 518.847C661.762 528.763 633.237 533.97 578.421 551.076C573.956 552.564 569.244 554.051 564.531 555.291C526.333 566.943 498.057 604.379 480.198 633.633C463.58 661.152 437.536 681.729 406.779 691.646C361.388 706.025 296.898 715.446 241.338 685.696C148.324 635.616 176.352 601.652 116.327 536.945C85.5704 503.971 66.7194 473.973 55.8058 443.727C41.9157 404.556 41.9157 362.41 59.0303 304.149C77.6331 240.929 83.5861 228.533 100.701 203.246C112.606 186.387 133.442 169.777 155.517 134.324Z" stroke="white" stroke-width="0.8594" stroke-miterlimit="10"/>
<path fill-rule="evenodd" clip-rule="evenodd" d="M205.373 148.703C255.477 94.4092 288.466 86.9716 331.376 102.591C353.452 110.524 379.992 136.308 411.74 158.868C466.557 197.791 549.897 235.227 626.541 196.056C684.83 166.306 837.621 124.16 731.709 344.064C718.315 372.078 718.315 404.06 714.346 434.306C710.13 467.031 702.441 488.104 671.188 502.732C631.502 521.326 587.103 524.053 545.929 538.184C505.003 552.068 468.789 579.339 443.985 614.543C429.103 635.616 408.02 652.227 383.216 660.408C347.251 672.308 298.635 678.258 256.469 656.441C233.402 644.541 213.062 629.666 198.924 607.849C165.687 556.778 121.785 511.161 102.19 452.404C88.7956 412.241 85.075 368.855 96.7328 315.553C109.135 259.771 116.328 235.971 136.419 208.204C152.045 187.131 181.314 174.983 205.373 148.703Z" stroke="white" stroke-width="0.7188" stroke-miterlimit="10"/>
<path fill-rule="evenodd" clip-rule="evenodd" d="M235.137 164.571C269.614 147.464 309.3 141.018 347.498 150.687C400.578 164.075 442.496 205.229 494.584 221.344C530.798 232.748 572.22 232.252 602.233 255.557C626.54 274.399 638.198 305.389 642.167 335.635C646.632 369.6 642.415 404.556 630.261 436.538C619.843 463.809 602.481 490.088 576.189 503.228C553.617 514.632 526.829 514.88 503.018 523.805C453.41 542.399 424.142 594.462 377.759 620.494C244.066 695.613 146.835 495.79 135.922 393.152C129.225 330.676 136.418 250.846 181.809 203.742C197.187 187.875 215.294 174.487 235.137 164.571Z" stroke="white" stroke-width="0.5781" stroke-miterlimit="10"/>
<path fill-rule="evenodd" clip-rule="evenodd" d="M416.701 538.184C400.827 551.076 386.441 565.951 370.07 578.347C353.452 590.991 334.105 600.908 313.27 601.652C292.931 602.395 273.088 593.966 256.965 581.57C219.512 552.068 203.389 503.476 191.98 457.115C183.05 421.662 175.609 385.714 174.121 349.022C171.641 287.042 188.259 210.188 252.997 185.396C325.92 157.629 413.973 200.023 475.486 237.706C502.522 254.317 528.814 273.407 547.913 298.942C567.012 324.23 578.422 356.708 573.461 388.193C567.508 424.885 540.224 454.636 510.212 476.452C480.199 498.269 446.218 514.632 417.446 537.936C417.197 537.688 416.949 537.936 416.701 538.184Z" stroke="white" stroke-width="0.4375" stroke-miterlimit="10"/>
</g>
</svg>
