<svg width="70" height="70" viewBox="0 0 70 70" fill="none" xmlns="http://www.w3.org/2000/svg">
<path d="M8.75 42.9297H6.01563C5.50585 42.9353 5.0189 43.1419 4.66052 43.5045C4.30214 43.867 4.10128 44.3564 4.10156 44.8662V56.3281H6.83594V44.8662C6.83566 44.3564 7.03652 43.867 7.3949 43.5045C7.75327 43.1419 8.24023 42.9353 8.75 42.9297V42.9297Z" fill="#D4E1F4"/>
<path d="M6.83594 59.9052V57.9688H4.10156V59.9052C4.10229 60.1553 4.15246 60.4028 4.24919 60.6335C4.34591 60.8641 4.48729 61.0733 4.66517 61.2491C4.84306 61.4249 5.05395 61.5638 5.28571 61.6578C5.51747 61.7518 5.76553 61.7991 6.01562 61.7969H8.75C8.49991 61.7991 8.25185 61.7518 8.02009 61.6578C7.78832 61.5638 7.57743 61.4249 7.39955 61.2491C7.22166 61.0733 7.08029 60.8641 6.98356 60.6335C6.88684 60.4028 6.83667 60.1553 6.83594 59.9052V59.9052Z" fill="#D4E1F4"/>
<path d="M44.8438 42.9297H42.1094C41.5996 42.9353 41.1127 43.1419 40.7543 43.5045C40.3959 43.867 40.195 44.3564 40.1953 44.8662V56.3281H42.9297V44.8662C42.9294 44.3564 43.1303 43.867 43.4886 43.5045C43.847 43.1419 44.334 42.9353 44.8438 42.9297Z" fill="#D4E1F4"/>
<path d="M42.9297 59.9052V57.9688H40.1953V59.9052C40.196 60.1553 40.2462 60.4028 40.3429 60.6335C40.4397 60.8641 40.581 61.0733 40.7589 61.2491C40.9368 61.4249 41.1477 61.5638 41.3795 61.6578C41.6112 61.7518 41.8593 61.7991 42.1094 61.7969H44.8438C44.5937 61.7991 44.3456 61.7518 44.1138 61.6578C43.8821 61.5638 43.6712 61.4249 43.4933 61.2491C43.3154 61.0733 43.174 60.8641 43.0773 60.6335C42.9806 60.4028 42.9304 60.1553 42.9297 59.9052V59.9052Z" fill="#D4E1F4"/>
<path d="M26.25 15.3592C26.2468 14.1736 26.7146 13.0353 27.5506 12.1946C27.9893 11.7539 28.5164 11.4112 29.0972 11.189C29.258 11.1273 29.3954 11.0166 29.4898 10.8725C29.5842 10.7283 29.6308 10.5582 29.623 10.3861C29.6184 10.2827 29.6153 10.1782 29.6153 10.0739C29.6172 8.698 30.0522 7.35756 30.8586 6.24271C31.665 5.12787 32.802 4.2952 34.1082 3.8628C33.1254 3.53796 32.0795 3.451 31.0565 3.60906C30.0335 3.76712 29.0626 4.16568 28.2237 4.772C27.3847 5.37831 26.7016 6.17506 26.2305 7.09677C25.7594 8.01847 25.5138 9.03881 25.5138 10.0739C25.5138 10.1782 25.5168 10.2827 25.5214 10.3861C25.5292 10.5582 25.4826 10.7283 25.3882 10.8725C25.2938 11.0166 25.1565 11.1273 24.9956 11.189C24.4149 11.4112 23.8878 11.7539 23.4491 12.1946C22.8283 12.8194 22.4057 13.6135 22.2341 14.4774C22.0626 15.3412 22.1498 16.2365 22.4848 17.0511C22.8197 17.8657 23.3876 18.5633 24.1173 19.0566C24.8469 19.5499 25.7059 19.817 26.5866 19.8243H30.6882C29.5087 19.8169 28.3801 19.3432 27.5486 18.5067C26.7171 17.6702 26.2503 16.5387 26.25 15.3592V15.3592Z" fill="#D4E1F4"/>
<path d="M16.1328 63.4375V66.4453H12.5781C12.3606 66.4453 12.1519 66.5317 11.9981 66.6856C11.8442 66.8394 11.7578 67.0481 11.7578 67.2656C11.7578 67.4832 11.8442 67.6918 11.9981 67.8457C12.1519 67.9995 12.3606 68.0859 12.5781 68.0859H21.3281C21.5457 68.0859 21.7543 67.9995 21.9082 67.8457C22.062 67.6918 22.1484 67.4832 22.1484 67.2656C22.1484 67.0481 22.062 66.8394 21.9082 66.6856C21.7543 66.5317 21.5457 66.4453 21.3281 66.4453H17.7734V63.4375H27.8906C28.3561 63.4395 28.8174 63.3496 29.2481 63.1731C29.6788 62.9966 30.0705 62.7368 30.4006 62.4087C30.7308 62.0806 30.9931 61.6906 31.1723 61.261C31.3516 60.8314 31.4443 60.3707 31.4453 59.9052V44.8662C31.4452 43.9214 31.0713 43.015 30.4053 42.3449C29.7394 41.6747 28.8354 41.2952 27.8906 41.2891H6.01562C5.07086 41.2952 4.16687 41.6747 3.50091 42.3449C2.83495 43.015 2.4611 43.9214 2.46094 44.8662V59.9052C2.4619 60.3707 2.55467 60.8314 2.73393 61.261C2.91319 61.6906 3.17542 62.0806 3.5056 62.4087C3.83578 62.7368 4.22744 62.9966 4.65815 63.1731C5.08885 63.3496 5.55015 63.4395 6.01562 63.4375H16.1328ZM6.01562 42.9297H27.8906C28.4004 42.9353 28.8874 43.1419 29.2457 43.5045C29.6041 43.867 29.805 44.3564 29.8047 44.8662V56.3281H4.10156V44.8662C4.10128 44.3564 4.30214 43.867 4.66052 43.5045C5.0189 43.1419 5.50585 42.9353 6.01562 42.9297V42.9297ZM4.10156 59.9052V57.9688H29.8047V59.9052C29.804 60.1553 29.7538 60.4028 29.6571 60.6335C29.5603 60.8641 29.419 61.0733 29.2411 61.2491C29.0632 61.4249 28.8523 61.5638 28.6205 61.6578C28.3888 61.7518 28.1407 61.7991 27.8906 61.7969H6.01562C5.76553 61.7991 5.51747 61.7518 5.28571 61.6578C5.05395 61.5638 4.84306 61.4249 4.66517 61.2491C4.48729 61.0733 4.34591 60.8641 4.24919 60.6335C4.15246 60.4028 4.10229 60.1553 4.10156 59.9052V59.9052Z" fill="#0635C9"/>
<path d="M63.9844 41.2891H42.1094C41.1646 41.2952 40.2606 41.6747 39.5947 42.3449C38.9287 43.015 38.5548 43.9214 38.5547 44.8662V59.9052C38.5557 60.3707 38.6484 60.8314 38.8277 61.261C39.0069 61.6906 39.2692 62.0806 39.5994 62.4087C39.9295 62.7368 40.3212 62.9966 40.7519 63.1731C41.1826 63.3496 41.6439 63.4395 42.1094 63.4375H52.2266V66.4453H48.6719C48.4543 66.4453 48.2457 66.5317 48.0918 66.6856C47.938 66.8394 47.8516 67.0481 47.8516 67.2656C47.8516 67.4832 47.938 67.6918 48.0918 67.8457C48.2457 67.9995 48.4543 68.0859 48.6719 68.0859H57.4219C57.6394 68.0859 57.8481 67.9995 58.0019 67.8457C58.1558 67.6918 58.2422 67.4832 58.2422 67.2656C58.2422 67.0481 58.1558 66.8394 58.0019 66.6856C57.8481 66.5317 57.6394 66.4453 57.4219 66.4453H53.8672V63.4375H63.9844C64.4499 63.4395 64.9111 63.3496 65.3419 63.1731C65.7726 62.9966 66.1642 62.7368 66.4944 62.4087C66.8246 62.0806 67.0868 61.6906 67.2661 61.261C67.4453 60.8314 67.5381 60.3707 67.5391 59.9052V44.8662C67.5389 43.9214 67.1651 43.015 66.4991 42.3449C65.8331 41.6747 64.9291 41.2952 63.9844 41.2891ZM42.1094 42.9297H63.9844C64.4941 42.9353 64.9811 43.1419 65.3395 43.5045C65.6979 43.867 65.8987 44.3564 65.8984 44.8662V56.3281H40.1953V44.8662C40.195 44.3564 40.3959 43.867 40.7543 43.5045C41.1126 43.1419 41.5996 42.9353 42.1094 42.9297V42.9297ZM63.9844 61.7969H42.1094C41.8593 61.7991 41.6112 61.7518 41.3795 61.6578C41.1477 61.5638 40.9368 61.4249 40.7589 61.2491C40.581 61.0733 40.4397 60.8641 40.3429 60.6335C40.2462 60.4028 40.196 60.1553 40.1953 59.9052V57.9688H65.8984V59.9052C65.8977 60.1553 65.8475 60.4028 65.7508 60.6335C65.6541 60.8641 65.5127 61.0733 65.3348 61.2491C65.1569 61.4249 64.9461 61.5638 64.7143 61.6578C64.4825 61.7518 64.2345 61.7991 63.9844 61.7969V61.7969Z" fill="#0635C9"/>
<path d="M26.9336 25.4168C27.1512 25.4168 27.3598 25.3304 27.5136 25.1766C27.6675 25.0227 27.7539 24.8141 27.7539 24.5965V23.748C27.7539 23.5305 27.6675 23.3218 27.5136 23.168C27.3598 23.0142 27.1512 22.9277 26.9336 22.9277C26.716 22.9277 26.5074 23.0142 26.3535 23.168C26.1997 23.3218 26.1133 23.5305 26.1133 23.748V24.5965C26.1133 24.7042 26.1345 24.8109 26.1757 24.9104C26.2169 25.01 26.2774 25.1004 26.3535 25.1766C26.4297 25.2527 26.5201 25.3132 26.6197 25.3544C26.7192 25.3956 26.8259 25.4168 26.9336 25.4168V25.4168Z" fill="#0635C9"/>
<path d="M26.9336 28.8404C27.1512 28.8404 27.3598 28.754 27.5136 28.6002C27.6675 28.4463 27.7539 28.2377 27.7539 28.0201V27.2421C27.7539 27.1343 27.7327 27.0277 27.6915 26.9281C27.6502 26.8286 27.5898 26.7382 27.5136 26.662C27.4375 26.5858 27.347 26.5254 27.2475 26.4842C27.148 26.443 27.0413 26.4218 26.9336 26.4218C26.8259 26.4218 26.7192 26.443 26.6197 26.4842C26.5201 26.5254 26.4297 26.5858 26.3535 26.662C26.2774 26.7382 26.2169 26.8286 26.1757 26.9281C26.1345 27.0277 26.1133 27.1343 26.1133 27.2421V28.0201C26.1133 28.2377 26.1997 28.4463 26.3535 28.6002C26.5074 28.754 26.716 28.8404 26.9336 28.8404V28.8404Z" fill="#0635C9"/>
<path d="M26.443 39.4023C26.5948 39.5436 26.7945 39.6222 27.0019 39.6222C27.2093 39.6222 27.409 39.5436 27.5608 39.4023L31.8639 35.3974C31.9427 35.324 32.0063 35.2358 32.051 35.1378C32.0957 35.0398 32.1207 34.9339 32.1245 34.8262C32.1283 34.7186 32.1109 34.6112 32.0732 34.5103C32.0355 34.4094 31.9784 34.3169 31.9049 34.2381C31.7498 34.0785 31.5389 33.9851 31.3164 33.9774C31.0939 33.9698 30.8771 34.0485 30.7114 34.197L27.7539 36.918V30.7856C27.7539 30.5681 27.6674 30.3594 27.5136 30.2056C27.3598 30.0518 27.1511 29.9653 26.9336 29.9653C26.716 29.9653 26.5073 30.0518 26.3535 30.2056C26.1997 30.3594 26.1132 30.5681 26.1132 30.7856V36.918L23.2234 34.1973C23.1463 34.124 23.0552 34.0668 22.9557 34.0291C22.8561 33.9914 22.75 33.9739 22.6437 33.9778C22.5373 33.9816 22.4327 34.0066 22.3361 34.0513C22.2395 34.0961 22.1528 34.1597 22.0811 34.2383C22.0083 34.3177 21.9518 34.4107 21.9149 34.512C21.8779 34.6132 21.8613 34.7208 21.866 34.8284C21.8707 34.9361 21.8965 35.0418 21.942 35.1395C21.9875 35.2371 22.0519 35.3249 22.1313 35.3977L26.443 39.4023Z" fill="#0635C9"/>
<path d="M42.9297 37.1328C42.7121 37.1328 42.5035 37.2192 42.3496 37.3731C42.1958 37.5269 42.1094 37.7356 42.1094 37.9531V38.8015C42.1094 39.019 42.1958 39.2277 42.3496 39.3815C42.5035 39.5354 42.7121 39.6218 42.9297 39.6218C43.1472 39.6218 43.3559 39.5354 43.5097 39.3815C43.6636 39.2277 43.75 39.019 43.75 38.8015V37.9531C43.75 37.7356 43.6636 37.5269 43.5097 37.3731C43.3559 37.2192 43.1472 37.1328 42.9297 37.1328Z" fill="#0635C9"/>
<path d="M43.75 34.53C43.75 34.3125 43.6636 34.1038 43.5097 33.95C43.3559 33.7961 43.1472 33.7097 42.9297 33.7097C42.7121 33.7097 42.5035 33.7961 42.3496 33.95C42.1958 34.1038 42.1094 34.3125 42.1094 34.53V35.3081C42.1094 35.5257 42.1958 35.7343 42.3496 35.8881C42.5035 36.042 42.7121 36.1284 42.9297 36.1284C43.1472 36.1284 43.3559 36.042 43.5097 35.8881C43.6636 35.7343 43.75 35.5257 43.75 35.3081V34.53Z" fill="#0635C9"/>
<path d="M39.2195 28.3536L42.1093 25.6322V31.7644C42.1093 31.982 42.1958 32.1907 42.3496 32.3445C42.5034 32.4983 42.7121 32.5848 42.9297 32.5848C43.1472 32.5848 43.3559 32.4983 43.5097 32.3445C43.6635 32.1907 43.75 31.982 43.75 31.7644V25.6322L46.7082 28.3536C46.8663 28.4955 47.0715 28.5738 47.284 28.5734C47.398 28.5736 47.5108 28.5505 47.6156 28.5056C47.7203 28.4606 47.8148 28.3948 47.8932 28.312C48.042 28.1533 48.1216 27.942 48.1146 27.7246C48.1076 27.5072 48.0145 27.3014 47.8558 27.1527L43.5547 23.1476C43.4031 23.0064 43.2036 22.9279 42.9964 22.9279C42.7892 22.9279 42.5896 23.0064 42.438 23.1476L38.1355 27.1524C37.9741 27.2984 37.8773 27.5026 37.8663 27.72C37.8553 27.9373 37.9311 28.1502 38.077 28.3118C38.1486 28.3905 38.2353 28.4541 38.3319 28.499C38.4285 28.5438 38.533 28.5689 38.6394 28.5728C38.7459 28.5767 38.852 28.5593 38.9516 28.5217C39.0512 28.484 39.1423 28.4269 39.2195 28.3536V28.3536Z" fill="#0635C9"/>
<path d="M26.5866 21.4648H43.4134C44.8694 21.4583 46.275 20.9317 47.377 19.9802C48.4789 19.0286 49.2046 17.7146 49.4231 16.2752C49.6416 14.8357 49.3387 13.3656 48.5688 12.1298C47.799 10.8941 46.6129 9.97406 45.2246 9.53569C45.1064 8.71488 44.8219 7.92685 44.3884 7.21992C43.9549 6.51299 43.3815 5.90205 42.7035 5.42456C42.0255 4.94708 41.2571 4.61311 40.4455 4.44313C39.6338 4.27316 38.796 4.27075 37.9834 4.43608C36.867 3.26204 35.4271 2.4459 33.8464 2.09108C32.2656 1.73626 30.6151 1.85876 29.104 2.44303C27.593 3.0273 26.2894 4.04705 25.3585 5.37301C24.4277 6.69898 23.9114 8.27147 23.8752 9.89116C22.86 10.3981 22.0068 11.1788 21.4118 12.145C20.8167 13.1112 20.5036 14.2245 20.5079 15.3592C20.5086 16.9737 21.1485 18.5221 22.2875 19.6662C23.4266 20.8103 24.9722 21.4569 26.5866 21.4648V21.4648ZM23.4491 12.1945C23.8878 11.7538 24.4149 11.4111 24.9956 11.1889C25.1565 11.1272 25.2939 11.0165 25.3882 10.8723C25.4826 10.7282 25.5292 10.558 25.5215 10.3859C25.5168 10.2826 25.5138 10.1781 25.5138 10.0738C25.5137 8.73048 25.9271 7.41967 26.698 6.31951C27.4688 5.21936 28.5597 4.38322 29.8224 3.92471C31.085 3.46621 32.4582 3.40757 33.7554 3.75678C35.0526 4.10599 36.2107 4.8461 37.0726 5.87655C37.1755 5.99974 37.3123 6.09002 37.4661 6.1362C37.6199 6.18237 37.7838 6.18241 37.9376 6.13631C38.5855 5.94306 39.2691 5.90043 39.936 6.01165C40.6029 6.12288 41.2356 6.38503 41.7858 6.77809C42.336 7.17115 42.789 7.68472 43.1104 8.2796C43.4318 8.87448 43.6131 9.53493 43.6403 10.2105C43.6474 10.3943 43.7162 10.5703 43.8354 10.7103C43.9546 10.8503 44.1175 10.9462 44.2977 10.9826C45.3756 11.2101 46.3314 11.8277 46.9818 12.7168C47.6322 13.6059 47.9312 14.7039 47.8216 15.8C47.712 16.8962 47.2014 17.9132 46.3878 18.6559C45.5742 19.3986 44.515 19.8146 43.4134 19.8242H26.5866C25.7059 19.8168 24.8469 19.5498 24.1173 19.0565C23.3876 18.5632 22.8198 17.8656 22.4848 17.051C22.1498 16.2364 22.0626 15.3411 22.2342 14.4772C22.4057 13.6133 22.8283 12.8193 23.4491 12.1945Z" fill="#1AE5BE"/>
</svg>
