<svg width="450" height="308" viewBox="0 0 450 308" fill="none" xmlns="http://www.w3.org/2000/svg">
<g clip-path="url(#clip0_249_4075)">
<path d="M353.825 48.7176C353.825 48.7176 328.946 29.5118 286.55 36.4652C244.154 43.4186 167.427 11.9284 167.427 11.9284C167.427 11.9284 126.658 -9.80303 85.7938 9.58662C44.9294 28.9763 51.3905 69.1942 51.3905 69.1942C51.7654 75.0767 52.1642 103.873 104.675 176.685C123.627 202.972 143.656 220.555 167.554 229.994C217.369 249.663 278.574 242.239 321.871 212.267C343.232 197.481 366.245 176.501 379.654 148.967C409.67 87.3291 353.825 48.7176 353.825 48.7176Z" fill="#F7F9FB"/>
</g>
<g clip-path="url(#clip1_249_4075)">
<path d="M367.844 25.2297C367.844 25.2297 390.736 27.947 410.157 41.2864C427.477 53.1867 435.013 64.7003 437.318 68.4057C438.145 69.7482 439.273 70.9081 440.654 71.6922C442.968 73.0025 445.205 71.7781 444.699 64.7325C444.524 62.3481 440.985 47.7843 424.861 32.2753C409.884 17.8726 387.76 10.9344 381.818 10.5048C380.574 10.4189 372.764 8.93671 364.79 15.1338C360.842 18.1948 362.651 24.4672 367.639 25.219C367.708 25.219 367.776 25.2297 367.844 25.2297Z" fill="#F7F9FB"/>
<path d="M23.5729 12.1694C23.5729 12.1694 33.1228 13.8449 30.4387 26.8514C27.7546 39.8686 24.1272 46.9787 23.0381 50.6196C21.9489 54.2606 17.2323 77.5992 17.7574 98.4354C18.2826 119.272 13.0409 111.71 13.0409 111.71C13.0409 111.71 1.51687 86.5136 0.194282 65.3231C-1.1283 44.1325 4.89141 30.5245 4.89141 30.5245C4.89141 30.5245 13.3326 11.7935 23.5729 12.1694Z" fill="#F7F9FB"/>
<path d="M34.4944 149.548C34.4944 149.548 28.1538 152.04 36.9062 167.324C45.6586 182.596 51.0851 185.668 51.0851 185.668C51.0851 185.668 59.5458 192.434 54.518 179.449C49.4805 166.443 38.9095 152.062 34.4944 149.548Z" fill="#F7F9FB"/>
<path d="M22.5659 211.19L314.488 211.19V200.74L22.5659 200.74V211.19Z" fill="#FFCB5D"/>
<path d="M68.9111 200.737H93.7972L98.5526 180.932H73.6763L68.9111 200.737Z" fill="#94B8EA"/>
<path d="M34.9319 180.933H147.498L141.517 105.117H28.9414L34.9319 180.933Z" fill="#C6DAF3"/>
<path d="M36.4204 168.301H143.55L138.58 108.51H32.2095L36.4204 168.301Z" fill="white"/>
<path d="M55.5878 160.568H109.833L108.073 121.807H53.8276L55.5878 160.568Z" fill="#4F91DB"/>
<path d="M56.4047 127.692H105.214C105.486 127.692 105.71 127.467 105.71 127.177C105.71 126.897 105.486 126.661 105.214 126.661H56.4047C56.1324 126.661 55.9087 126.887 55.9087 127.177C55.9184 127.467 56.1324 127.692 56.4047 127.692Z" fill="#C0D5F4"/>
<path d="M56.4047 134.341H97.7354C98.0077 134.341 98.2314 134.115 98.2314 133.825C98.2314 133.546 98.0077 133.31 97.7354 133.31H56.4047C56.1324 133.31 55.9087 133.535 55.9087 133.825C55.9184 134.115 56.1324 134.341 56.4047 134.341Z" fill="#C0D5F4"/>
<path d="M56.4047 141.697H102.899C103.172 141.697 103.395 141.472 103.395 141.182C103.395 140.903 103.172 140.666 102.899 140.666H56.4047C56.1324 140.666 55.9087 140.892 55.9087 141.182C55.9184 141.472 56.1324 141.697 56.4047 141.697Z" fill="#C0D5F4"/>
<path d="M88.2118 118.273H117.435V116.576H88.2118V118.273Z" fill="#80AEE9"/>
<path d="M93.6512 113.742H122.875V112.045H93.6512V113.742Z" fill="#A9C6EE"/>
<path d="M127.085 122.054C126.443 121.903 125.782 121.807 125.091 121.807C124.089 121.807 123.136 121.989 122.251 122.344L125.091 130.399L133.017 127.993C132.21 125.072 129.944 122.795 127.085 122.054Z" fill="#BBD9EF"/>
<path d="M125.305 130.624L122.368 122.301L122.135 122.386L124.877 130.173L117.486 127.058L117.389 127.306L125.305 130.624Z" fill="#090761"/>
<path d="M125.091 130.399L124.099 138.927C124.43 138.97 124.751 138.991 125.091 138.991C125.441 138.991 125.772 138.97 126.112 138.927L125.091 130.399Z" fill="#1B297A"/>
<path d="M125.091 130.399L126.112 138.927C130.187 138.4 133.357 134.781 133.357 130.399C133.357 129.572 133.241 128.755 133.017 127.993L125.091 130.399Z" fill="#4862D3"/>
<path d="M124.089 139.056C119.888 138.529 116.708 134.802 116.708 130.399C116.708 129.282 116.912 128.186 117.321 127.134C118.06 125.222 119.441 123.643 121.211 122.666C121.59 122.473 121.901 122.333 122.203 122.215C123.117 121.86 124.089 121.678 125.091 121.678C125.752 121.678 126.413 121.764 127.114 121.925C130.002 122.677 132.316 124.986 133.143 127.95C133.367 128.745 133.483 129.561 133.483 130.388C133.483 134.781 130.323 138.508 126.122 139.045C125.781 139.088 125.441 139.109 125.091 139.109C124.751 139.12 124.42 139.098 124.089 139.056ZM122.29 122.462C121.998 122.569 121.697 122.709 121.327 122.891C119.606 123.826 118.274 125.372 117.554 127.22C117.155 128.24 116.961 129.303 116.961 130.388C116.961 134.663 120.044 138.271 124.118 138.787C124.77 138.873 125.441 138.862 126.093 138.787C130.167 138.261 133.231 134.652 133.231 130.388C133.231 129.583 133.124 128.788 132.9 128.014C132.103 125.136 129.856 122.891 127.055 122.161C126.375 122 125.733 121.914 125.091 121.914C124.118 121.936 123.175 122.107 122.29 122.462Z" fill="#090761"/>
<path d="M124.225 138.937L125.207 130.495L133.396 128.014L133.328 127.767L124.984 130.302L123.982 138.916L124.225 138.937Z" fill="#090761"/>
<path d="M125.986 138.948L126.229 138.916L125.217 130.377L124.974 130.409L125.986 138.948Z" fill="#090761"/>
<path d="M121.182 122.87L121.366 122.698L117.535 118.187L117.35 118.359L121.182 122.87Z" fill="black"/>
<path d="M126.978 122.118L127.095 122.075L127.202 122.01L122.991 113.676L122.767 113.805L126.978 122.118Z" fill="black"/>
<path d="M160.918 200.737H228.545C228.856 200.737 229.099 200.457 229.099 200.125V189.921C229.099 189.578 228.846 189.309 228.545 189.309H160.918C160.606 189.309 160.363 189.588 160.363 189.921V200.125C160.363 200.457 160.616 200.737 160.918 200.737Z" fill="#79AAE3"/>
<path d="M155.651 189.303H224.396V182.118H155.651V189.303Z" fill="#D0DCFE"/>
<path d="M165.946 182.124H214.113C214.424 182.124 214.668 181.845 214.668 181.512V171.308C214.668 170.965 214.415 170.696 214.113 170.696H165.946C165.635 170.696 165.391 170.976 165.391 171.308V181.512C165.382 181.845 165.635 182.124 165.946 182.124Z" fill="#AAC5ED"/>
<path d="M63.756 210.092H35.5441L11.9126 285.961H20.2955L63.756 210.092Z" fill="#FFCB5D"/>
<path d="M267.21 210.092H295.422L319.064 285.961H310.671L267.21 210.092Z" fill="#FFCB5D"/>
<path d="M128.728 181.447H147.488C147.624 181.447 147.76 181.383 147.847 181.286C147.945 181.179 147.984 181.039 147.974 180.9L146.369 160.525C146.35 160.246 146.107 160.042 145.834 160.053C145.562 160.074 145.358 160.321 145.387 160.611L146.953 180.427H128.728C128.456 180.427 128.232 180.653 128.232 180.943C128.242 181.222 128.456 181.447 128.728 181.447Z" fill="#090761"/>
<path d="M34.9318 181.447H105.214C105.486 181.447 105.71 181.222 105.71 180.932C105.71 180.653 105.486 180.416 105.214 180.416H35.3792L29.4762 105.621H102.821C103.094 105.621 103.317 105.395 103.317 105.105C103.317 104.826 103.094 104.59 102.821 104.59H28.9413C28.8052 104.59 28.669 104.654 28.5815 104.751C28.4842 104.858 28.4453 104.998 28.4551 105.138L34.4359 180.964C34.4553 181.243 34.6693 181.447 34.9318 181.447Z" fill="#090761"/>
<path d="M105.213 105.621H108.267C108.539 105.621 108.763 105.395 108.763 105.105C108.763 104.826 108.539 104.59 108.267 104.59H105.213C104.941 104.59 104.717 104.815 104.717 105.105C104.717 105.395 104.941 105.621 105.213 105.621Z" fill="#090761"/>
<path d="M112.585 105.621H121.259C121.532 105.621 121.755 105.395 121.755 105.105C121.755 104.826 121.532 104.59 121.259 104.59H112.585C112.313 104.59 112.089 104.815 112.089 105.105C112.099 105.395 112.313 105.621 112.585 105.621Z" fill="#090761"/>
<path d="M88.6421 174.047C88.6421 172.468 89.8772 171.179 91.404 171.179C92.9211 171.179 94.1561 172.468 94.1561 174.047C94.1561 175.626 92.9211 176.915 91.404 176.915C89.8772 176.915 88.6421 175.626 88.6421 174.047ZM89.6243 174.047C89.6243 175.067 90.4217 175.884 91.3942 175.884C92.3667 175.884 93.1642 175.057 93.1642 174.047C93.1642 173.038 92.3667 172.211 91.3942 172.211C90.4217 172.211 89.6243 173.038 89.6243 174.047Z" fill="#090761"/>
<path d="M33.3369 125.082C33.3466 125.082 33.3661 125.082 33.3758 125.082C33.6481 125.061 33.8523 124.814 33.8329 124.535L33.0743 113.708C33.0549 113.429 32.7923 113.204 32.5492 113.236C32.2769 113.257 32.0727 113.504 32.0921 113.783L32.8506 124.61C32.8701 124.878 33.084 125.082 33.3369 125.082Z" fill="#090761"/>
<path d="M33.7645 131.161C33.7743 131.161 33.7937 131.161 33.8034 131.161C34.0757 131.14 34.2799 130.893 34.2605 130.614L34.066 127.853C34.0465 127.574 33.8034 127.349 33.5409 127.381C33.2686 127.402 33.0644 127.649 33.0838 127.929L33.2783 130.689C33.2977 130.957 33.5117 131.161 33.7645 131.161Z" fill="#090761"/>
<path d="M36.4196 168.806H143.549C143.821 168.806 144.045 168.58 144.045 168.29C144.045 168.011 143.821 167.775 143.549 167.775H36.8767L34.4552 133.363C34.4357 133.073 34.1732 132.858 33.93 132.89C33.6577 132.912 33.4535 133.159 33.473 133.438L35.9334 168.323C35.9528 168.602 36.1668 168.806 36.4196 168.806Z" fill="#090761"/>
<path d="M249.375 212.218H314.493C315.037 212.218 315.485 211.756 315.485 211.187V200.737C315.485 200.168 315.047 199.706 314.493 199.706H306.003C305.458 199.706 305.011 200.168 305.011 200.737C305.011 201.306 305.449 201.768 306.003 201.768H313.511V210.167H249.385C248.84 210.167 248.393 210.629 248.393 211.198C248.383 211.756 248.83 212.218 249.375 212.218Z" fill="#FDAB11"/>
<path d="M229.109 212.218H236.208C236.752 212.218 237.2 211.756 237.2 211.187C237.2 210.618 236.762 210.156 236.208 210.156H229.109C228.564 210.156 228.117 210.618 228.117 211.187C228.117 211.756 228.564 212.218 229.109 212.218Z" fill="#FDAB11"/>
<path d="M133.357 212.218H224.392C224.937 212.218 225.384 211.756 225.384 211.187C225.384 210.618 224.946 210.156 224.392 210.156H133.357C132.813 210.156 132.365 210.618 132.365 211.187C132.375 211.756 132.813 212.218 133.357 212.218Z" fill="#FDAB11"/>
<path d="M22.5618 211.628H127.629C128.174 211.628 128.621 211.166 128.621 210.597C128.621 210.027 128.184 209.565 127.629 209.565H22.5618C22.0172 209.565 21.5698 210.027 21.5698 210.597C21.5698 211.166 22.0172 211.628 22.5618 211.628Z" fill="#FDAB11"/>
<path d="M37.8293 255.867C38.2572 255.867 38.6462 255.727 38.7726 255.501L64.6992 210.242C64.8548 209.963 64.563 209.683 64.0379 209.597C63.5127 209.512 62.9681 209.673 62.8028 209.941L36.8763 255.201C36.7207 255.48 37.0124 255.759 37.5376 255.845C37.6445 255.856 37.7418 255.867 37.8293 255.867Z" fill="#FDAB11"/>
<path d="M11.9128 286.477H20.2957C20.8403 286.477 21.2876 286.24 21.2876 285.961C21.2876 285.671 20.85 285.446 20.2957 285.446H11.9128C11.3682 285.446 10.9209 285.682 10.9209 285.961C10.9209 286.24 11.3585 286.477 11.9128 286.477Z" fill="#FDAB11"/>
<path d="M301.793 270.968C301.89 270.968 301.987 270.957 302.075 270.946C302.6 270.86 302.891 270.57 302.736 270.302L271.227 215.301C271.072 215.022 270.517 214.871 269.992 214.957C269.467 215.043 269.175 215.333 269.331 215.602L300.84 270.603C300.976 270.817 301.365 270.968 301.793 270.968Z" fill="#FDAB11"/>
<path d="M310.672 286.477H319.064C319.609 286.477 320.056 286.24 320.056 285.961C320.056 285.671 319.618 285.446 319.064 285.446H311.411L305.547 275.21C305.391 274.931 304.837 274.78 304.311 274.866C303.786 274.952 303.495 275.242 303.65 275.511L309.718 286.111C309.855 286.326 310.234 286.477 310.672 286.477Z" fill="#FDAB11"/>
<path d="M427.584 193.09C427.584 193.101 427.584 193.101 427.584 193.09C427.584 193.101 427.584 193.101 427.584 193.09ZM425.62 193.616C425.552 194.164 425.649 194.669 425.902 195.066C426.3 195.7 427.001 195.775 427.467 195.216C427.73 194.916 427.866 194.475 427.856 194.046C428.284 193.004 430.599 189.492 434.324 186.527C434.372 186.484 434.421 186.442 434.469 186.377C434.644 186.184 438.748 181.415 434.722 171.684C431.941 164.929 433.944 160.708 435.568 157.325C435.85 156.734 436.113 156.197 436.327 155.681C436.716 154.779 437.251 154.178 437.737 153.888C438.068 153.694 438.379 153.63 438.622 153.727C439.264 153.984 439.604 155.37 439.565 157.454C439.556 158.173 439.556 158.871 439.585 159.537C439.896 166.346 442.405 170.89 443.397 172.694C443.776 173.392 444.35 174.037 444.953 174.713C447.044 177.065 449.212 179.493 446.635 185.088C446.032 186.388 445.459 187.591 444.914 188.718C441.889 195.034 439.701 199.588 441.17 206.569C441.676 208.996 442.094 211.617 442.405 214.184C442.483 214.817 442.551 215.451 442.609 216.063C443.056 220.628 443.115 224.795 442.706 227.061H429.539C428.916 227.061 428.43 227.738 428.43 228.565C428.43 229.392 428.916 230.069 429.539 230.069H443.504C443.932 230.069 444.34 229.725 444.515 229.166C445.39 226.514 445.322 221.294 444.826 216.053C444.768 215.419 444.7 214.785 444.642 214.173C444.301 211.101 443.825 208.126 443.319 205.753C442.133 200.082 443.883 196.419 446.791 190.362C447.335 189.213 447.919 187.999 448.532 186.689C452.12 178.87 448.386 174.659 446.382 172.404C445.886 171.845 445.41 171.308 445.186 170.9C443.533 167.915 441.656 163.694 441.792 157.561C441.851 154.94 441.394 153.329 440.82 152.341C440.421 151.632 439.964 151.256 439.604 151.031C439.468 150.945 439.351 150.891 439.254 150.848C437.562 150.204 435.529 151.6 434.431 154.199C434.226 154.672 433.983 155.177 433.73 155.703C431.999 159.333 429.374 164.832 432.826 173.188C435.704 180.18 433.507 183.542 433.137 184.025C429.082 187.204 425.853 191.694 425.62 193.616Z" fill="#146ECF"/>
<path d="M397.165 230.036H389.239L388.908 229.435C382.227 217.406 384.454 211.219 389.317 200.425C393.207 191.801 388.85 186.85 384.639 182.06L383.735 181.018C381.099 177.957 379.183 171.953 378.853 165.702C378.532 159.612 379.777 154.06 382.373 150.064C384.017 147.53 385.563 146.584 386.963 147.283C390.075 148.829 390.396 158.313 390.435 160.203V160.289L390.425 160.375C390.416 160.515 389.609 174.026 394.461 178.172C400.131 183.015 403.846 191.876 404.001 192.252L402.066 193.734C402.027 193.648 398.458 185.153 393.275 180.728C387.45 175.744 388.121 161.589 388.198 160.203C388.111 155.757 387.284 150.666 386.185 150.129C385.855 149.968 385.106 150.386 384.017 152.073C381.829 155.456 380.769 160.225 381.051 165.498C381.333 170.9 382.986 176.217 385.164 178.741L386.059 179.761C390.289 184.573 396.085 191.167 391.203 202.015C386.594 212.251 384.892 216.933 390.348 227.04H397.165V230.036Z" fill="#146ECF"/>
<path d="M429.51 228.533H397.174C388.694 211.885 395.609 201.209 401.881 194.389C408.164 187.559 405.645 180.728 403.136 178.172C400.627 175.615 394.84 171.416 394.656 160.676C394.5 151.289 402.611 145.736 402.611 145.736C402.611 145.736 408.786 140.613 405.655 135.919C402.513 131.226 401.259 126.951 401.259 126.951C400.082 123.847 399.606 121.076 399.577 118.67C399.528 113.741 401.765 110.186 404.546 108.714C405.334 108.306 406.18 108.048 407.016 107.995C409.651 107.769 412.355 109.38 413.872 113.257C414.601 115.115 415.136 117.51 415.379 120.55C416.634 136.768 418.521 139.335 424.803 146.584C431.085 153.834 427.633 167.496 425.746 172.2C423.86 176.893 418.521 184.583 429.51 197.815C440.499 211.026 429.51 228.533 429.51 228.533Z" fill="#146ECF"/>
<path d="M413.279 228.533C413.221 228.769 413.143 229.016 413.065 229.231C412.861 229.864 412.404 230.24 411.917 230.24C411.742 230.24 411.577 230.187 411.402 230.09C410.935 229.821 410.663 229.198 410.663 228.533C410.663 228.307 410.702 228.049 410.78 227.834C424.54 185.829 404.76 109.562 404.565 108.811C404.556 108.778 404.556 108.746 404.536 108.703C405.324 108.295 406.17 108.037 407.006 107.984C408.66 114.342 426.709 186.227 413.279 228.533Z" fill="white"/>
<path d="M389.346 228.533H442.901C445.225 228.533 446.82 231.701 445.984 234.644L444.768 238.897C444.272 240.626 443.057 241.765 441.685 241.765H441.403C439.867 241.765 438.525 243.215 438.184 245.255L429.782 295.466C429.442 297.507 428.1 298.957 426.563 298.957H405.664C404.128 298.957 402.795 297.518 402.445 295.488L393.819 245.234C393.469 243.204 392.137 241.765 390.6 241.765C389.258 241.765 388.043 240.648 387.537 238.951L386.273 234.698C385.407 231.744 387.002 228.533 389.346 228.533Z" fill="#AAC5ED"/>
<path d="M418.22 242.893H387.82L383.22 227.405H447.725V229.66H385.69L388.938 240.637H418.22V242.893Z" fill="#146ECF"/>
<path d="M424.637 240.637H419.775V242.903H424.637V240.637Z" fill="#146ECF"/>
<path d="M402.231 299.214L392.419 242.022L394.033 241.507L403.855 298.699L402.231 299.214Z" fill="#146ECF"/>
<path d="M261.434 307.989H183.217C182.449 307.989 181.826 307.302 181.826 306.453C181.826 305.605 182.449 304.917 183.217 304.917H261.434C262.202 304.917 262.825 305.605 262.825 306.453C262.815 307.302 262.193 307.989 261.434 307.989Z" fill="#FEA711"/>
<path d="M176.614 307.989H170.166C169.398 307.989 168.775 307.302 168.775 306.453C168.775 305.605 169.398 304.917 170.166 304.917H176.614C177.382 304.917 178.004 305.605 178.004 306.453C178.004 307.302 177.382 307.989 176.614 307.989Z" fill="#FEA711"/>
<path d="M162.542 41.5011L176.614 24.4777L175.875 21.116L169.456 17.1206L157.708 36.4639L162.542 41.5011Z" fill="#2F55B8"/>
<path d="M151.65 42.7791L155.443 22.0826L169.913 7.37915L169.106 24.5851L151.65 42.7791Z" fill="#89A8E8"/>
<path d="M160.675 23.7261C160.568 23.7261 160.47 23.6617 160.422 23.5435C160.344 23.3609 158.613 18.9359 162.454 12.9751C163.417 11.4714 163.777 9.92483 163.514 8.36749C163.047 5.62871 160.791 3.5988 160.091 3.02956C159.206 4.15729 158.049 3.77064 157.533 3.38399C157.407 3.28733 157.378 3.09401 157.465 2.95438C157.553 2.81476 157.728 2.78254 157.854 2.86846C157.971 2.95438 159.021 3.67398 159.819 2.42811C159.906 2.28848 160.072 2.25626 160.198 2.35293C160.334 2.44959 163.475 4.75875 164.069 8.24934C164.36 9.97853 163.971 11.6862 162.921 13.3295C159.264 19.0004 160.927 23.2428 160.947 23.2857C161.005 23.4361 160.947 23.6187 160.811 23.6939C160.752 23.7154 160.713 23.7261 160.675 23.7261Z" fill="#3E4287"/>
<path d="M157.874 3.01873C157.728 3.01873 157.602 2.88985 157.602 2.72874C157.592 2.5569 157.718 2.41727 157.864 2.40653L159.644 2.32061C159.206 1.23584 158.224 1.38621 158.098 1.41843C157.942 1.45065 157.806 1.33251 157.777 1.1714C157.747 1.0103 157.845 0.849192 158 0.816971C158.632 0.688088 159.916 0.892153 160.295 2.53542C160.315 2.62134 160.295 2.718 160.247 2.79318C160.198 2.86837 160.12 2.91133 160.033 2.91133L157.884 3.01873C157.884 3.01873 157.884 3.01873 157.874 3.01873Z" fill="#3E4287"/>
<path d="M160.033 2.92198C159.974 2.92198 159.916 2.9005 159.868 2.85753C159.391 2.46014 158.282 2.3957 157.903 2.40644C157.738 2.40644 157.621 2.27756 157.621 2.10572C157.621 1.93387 157.738 1.79425 157.893 1.79425C157.952 1.79425 159.469 1.76203 160.198 2.36348C160.325 2.47088 160.344 2.65347 160.257 2.79309C160.198 2.87902 160.111 2.92198 160.033 2.92198Z" fill="#3E4287"/>
<path d="M163.349 44.7182C163.742 42.0365 162.866 39.6488 161.392 39.3851C159.919 39.1215 158.405 41.0816 158.012 43.7633C157.618 46.445 158.494 48.8326 159.968 49.0963C161.442 49.36 162.956 47.3998 163.349 44.7182Z" fill="#F7F9FB"/>
<path d="M194.206 159.472L174.474 207.782C172.597 214.001 169.806 219.07 170.215 225.611C170.341 227.684 171.751 233.698 172.442 235.997C175.495 246.114 195.246 290.665 195.246 290.665C195.246 290.665 193.622 296.486 191.891 302.748C191.891 302.748 192.3 304.981 197.59 299.74C199.477 297.871 200.751 294.703 201.305 292.684C202.083 289.838 201.752 287.776 200.945 284.94L185.21 229.714C184.851 227.426 185.444 226.363 186.163 224.881L220.142 166.722L203.338 158.323L194.206 159.472Z" fill="#0953BB"/>
<path d="M197.688 157.894L195.461 208.824C194.615 213.861 196.112 218.179 199.195 220.8C202.385 223.517 206.703 223.946 210.291 221.906L252.021 198.148C252.021 198.148 255.075 201.403 261.075 202.165C261.367 202.197 261.542 201.811 261.328 201.585L252.206 191.618L216.807 200.704L220.629 181.039C222.798 168.634 220.133 162.05 214.901 157.142C204.388 147.239 197.688 157.894 197.688 157.894Z" fill="#196ECD"/>
<path d="M217.779 107.468C216.729 105.728 215.474 103.601 214.123 101.239C212.586 98.5535 209.756 97.0713 207.023 96.2443C203.61 95.2132 200.002 95.1918 196.54 95.9973C192.028 97.0606 189.013 97.7909 188.945 97.8124C186.037 98.575 183.304 99.0153 181 97.662C176.565 95.0521 169.981 88.9624 165.09 74.796C161.229 63.6368 161.822 48.3104 161.822 48.3104L158.399 47.6768C158.399 47.6768 156.59 55.0231 156.162 60.4147C155.676 66.6871 155.491 73.9904 157.601 85.8048C160.704 103.14 176.672 117.005 176.672 117.005C176.857 117.188 177.061 117.36 177.275 117.542C180.251 120.013 182.458 123.439 183.713 127.316C187.457 138.819 194.216 159.472 194.216 159.472C208.677 162.308 213.772 156.121 213.772 156.121L220.648 112.129C220.638 112.14 219.5 110.336 217.779 107.468Z" fill="#232374"/>
<path d="M199.117 99.9713C195.684 99.8102 196.423 96.5666 196.423 96.5666L196.404 94.7837L194.731 90.3265L200.391 85.2141C200.391 85.2141 200.43 85.7511 200.498 86.5889C200.498 86.5996 200.498 86.5996 200.498 86.5996C200.508 86.6533 200.508 86.6963 200.508 86.75C200.702 89.4136 202.793 94.8482 203.192 95.7289C203.746 96.9103 202.666 100.132 199.117 99.9713Z" fill="#F7F9FB"/>
<path d="M200.508 86.5889C199.536 90.7776 196.015 93.7419 196.015 93.7419L194.741 90.3265L200.401 85.2141C200.401 85.2141 200.44 85.7511 200.508 86.5889Z" fill="#A0BFEF"/>
<path d="M187.934 70.0703C187.934 70.0703 185.24 87.8563 190.939 91.0891C190.939 91.0891 195.548 93.3875 198.874 87.7704C202.638 81.4121 203.805 79.7688 203.805 79.7688C203.805 79.7688 199.954 70.0703 194.867 70.0703C189.781 70.0703 187.934 70.0703 187.934 70.0703Z" fill="#F7F9FB"/>
<path d="M208.677 75.4619C208.618 77.1159 207.792 79.1243 206.751 80.8213C205.254 83.2701 202.735 88.5436 200.955 87.781C199.185 87.0077 198.796 83.6997 200.517 82.6794C201.509 82.0887 201.753 80.5958 201.782 79.4358C201.791 78.7699 201.587 78.1362 201.208 77.6529C201.198 77.6422 201.189 77.6314 201.189 77.6314C200.916 77.2985 200.566 77.0515 200.158 76.9333C198.679 76.5037 198.563 78.5014 198.563 78.5014C198.563 78.5014 198.641 80.9717 197.328 80.8213C196.015 80.6709 193.554 77.7388 191.24 75.1075C188.925 72.4654 187.69 72.0143 187.69 72.0143C187.292 75.4726 187.292 79.6184 187.292 79.6184C187.292 79.6184 181.379 74.4416 185.502 68.8781C186.611 67.3745 188.449 65.8493 191.318 64.3887C196.365 61.8217 199.905 63.5617 201.889 65.3231C202.929 66.236 203.698 67.4604 204.223 68.8137C204.738 70.1562 205.788 71.982 207.14 72.605C208.297 73.1205 208.716 74.1838 208.677 75.4619Z" fill="#FED46B"/>
<path d="M208.676 75.4619C208.618 77.1159 207.792 79.1244 206.751 80.8213C205.253 83.2701 202.735 88.5436 200.955 87.781C199.185 87.0077 198.796 83.6997 200.517 82.6794C201.509 82.0887 201.752 80.5958 201.782 79.4358C201.791 78.7699 201.587 78.1362 201.208 77.6529C201.558 77.9429 206.352 82.0135 208.676 75.4619Z" fill="#FEC03E"/>
<path d="M187.7 72.0036C187.301 75.462 187.301 79.6077 187.301 79.6077C187.301 79.6077 181.389 74.4309 185.512 68.8674C184.647 71.4129 187.7 72.0036 187.7 72.0036Z" fill="#FEC03E"/>
<path d="M246.477 17.3354C246.477 17.3354 249.842 21.696 250.377 25.7558C250.377 25.7558 233.426 32.8659 225.637 38.2575C217.847 43.6599 214.288 46.1409 214.288 46.1409C214.288 46.1409 209.834 40.8567 210.495 37.6453C210.495 37.6453 232.833 27.8502 246.477 17.3354Z" fill="#6889D6"/>
<path d="M231.394 27.0984C231.394 27.0984 233.99 32.5115 234.593 33.0915L230.781 35.1214L228.068 28.9457L231.394 27.0984Z" fill="#F2F5FC"/>
<path d="M234.08 34.9887C234.746 33.7288 234.362 32.1107 233.221 31.3746C232.08 30.6384 230.615 31.063 229.949 32.3228C229.282 33.5827 229.666 35.2008 230.807 35.9369C231.948 36.6731 233.413 36.2486 234.08 34.9887Z" fill="#FEC03E"/>
<path d="M226.789 45.5695C228.221 45.102 228.816 42.611 228.119 40.0056C227.422 37.4003 225.696 35.6672 224.264 36.1347C222.832 36.6022 222.236 39.0932 222.934 41.6986C223.631 44.3039 225.357 46.037 226.789 45.5695Z" fill="#F7F9FB"/>
<path d="M208.006 96.5666C202.57 96.2229 198.981 113.837 218.003 115.265C218.003 115.265 232.25 99.2839 233.349 81.6484C234.098 69.63 233.077 62.4125 231.871 56.2583C230.83 50.9634 228.195 43.9285 228.195 43.9285L224.869 45.0347C224.869 45.0347 226.133 59.9422 224.655 71.7673C223.177 83.6031 214.813 97.007 208.006 96.5666Z" fill="#232374"/>
<path d="M205.039 223.549C202.803 223.549 200.887 222.894 199.331 221.573C194.614 217.599 194.896 209.157 194.906 208.803L196.365 175.325C196.384 174.992 196.647 174.713 196.948 174.745C197.25 174.767 197.493 175.046 197.473 175.39L196.015 208.867C196.015 208.942 195.752 217.03 200.002 220.617C202.385 222.625 205.769 222.872 210.077 221.358L251.767 197.622C252.04 197.461 252.37 197.579 252.516 197.891C252.652 198.191 252.545 198.556 252.273 198.718L210.544 222.464C210.514 222.475 210.485 222.497 210.456 222.507C208.482 223.205 206.673 223.549 205.039 223.549Z" fill="#090761"/>
<path d="M200.945 285.563C200.712 285.563 200.488 285.391 200.42 285.134L184.851 230.487L181.379 231.679C181.087 231.776 180.776 231.604 180.688 231.282C180.601 230.96 180.756 230.616 181.048 230.519L185.045 229.145C185.337 229.048 185.648 229.22 185.736 229.542L201.47 284.768C201.558 285.091 201.402 285.434 201.111 285.531C201.062 285.552 201.004 285.563 200.945 285.563Z" fill="#090761"/>
<path d="M185.211 230.326C185.123 230.326 185.036 230.305 184.958 230.262L180.961 227.974C180.689 227.824 180.582 227.448 180.728 227.147C180.864 226.846 181.204 226.728 181.476 226.889L185.473 229.177C185.746 229.327 185.853 229.703 185.707 230.004C185.609 230.208 185.415 230.326 185.211 230.326Z" fill="#090761"/>
<path d="M201.937 160.976C197.814 160.976 194.371 160.149 194.089 160.074C193.905 160.031 193.749 159.88 193.691 159.687C193.691 159.687 185.055 133.255 183.188 127.531C181.398 122.042 176.371 117.542 176.322 117.489C167.628 110.282 161.705 98.8541 161.647 98.736C161.453 98.4245 156.279 89.9612 155.472 73.3996C154.674 56.8811 157.747 47.8378 157.874 47.4618C157.981 47.1504 158.302 46.9893 158.593 47.1074C158.875 47.2256 159.021 47.58 158.914 47.9022C158.885 47.9881 155.793 57.1066 156.58 73.3352C157.368 89.5208 162.532 98.0056 162.581 98.0915C162.668 98.2527 168.484 109.455 177.003 116.522C177.236 116.726 182.332 121.291 184.228 127.112C185.969 132.46 193.642 155.917 194.624 158.946C196.637 159.386 208.385 161.62 213.364 155.713C213.578 155.466 213.928 155.455 214.152 155.681C214.376 155.907 214.385 156.304 214.181 156.551C211.195 160.084 206.197 160.976 201.937 160.976Z" fill="#0953BB"/>
<path d="M196.433 100.927C196.433 100.927 197.678 102.098 197.415 103.752C196.297 110.593 194.333 129.775 203.581 146.294C203.581 146.294 204.806 148.474 205.594 147.164C205.915 146.627 205.934 145.94 205.711 145.349C204.233 141.396 197.094 121.173 198.932 103.795C199.039 102.753 200.936 101.217 200.936 101.217L198.252 99.9604L196.433 100.927Z" fill="white"/>
<path d="M198.261 99.9824L196.433 100.938C196.433 100.938 197.678 102.109 197.415 103.763C196.297 110.605 194.333 129.787 203.581 146.305C203.581 146.305 204.31 147.594 205.001 147.594C205.205 147.594 205.419 147.476 205.594 147.175C205.915 146.638 205.934 145.951 205.711 145.36C204.233 141.408 197.094 121.184 198.932 103.806C199.039 102.764 200.936 101.228 200.936 101.228L198.261 99.9824Z" fill="#79AAE3"/>
<path d="M203.445 94.7299L205.448 95.5784C206.207 95.9006 206.459 96.9424 205.963 97.6405L201.723 103.623C201.169 104.407 200.06 104.267 199.681 103.365L198.378 100.82C198.174 100.336 198.252 99.7564 198.582 99.359L202.122 95.0736C202.453 94.6655 202.988 94.5258 203.445 94.7299Z" fill="white"/>
<path d="M195.373 94.9232L193.574 95.8683C192.844 96.1261 192.533 97.1357 192.961 97.866L194.945 103.387C195.412 104.203 196.462 104.149 196.87 103.279L198.115 100.68C198.339 100.218 198.3 99.6382 198.018 99.23L196.588 95.3743C196.306 94.9339 195.82 94.7621 195.373 94.9232Z" fill="white"/>
<path d="M335.626 161.76L316.827 173.918L310.467 225.128C310.467 225.128 311.323 233.323 316.429 238.435C320.912 242.935 346.945 269.829 353.237 276.327C354.113 277.229 354.667 278.389 354.823 279.646C355.075 281.59 356.135 283.652 356.952 288.023C357.04 288.474 357.74 288.399 357.876 287.959C358.557 285.746 359.539 281.965 360.414 278.776C360.813 277.326 360.57 275.768 359.753 274.522L329.703 228.468C328.692 226.922 328.517 224.967 329.236 223.259C332.728 215.086 339.71 192.746 340.828 187.075C342.161 180.223 341.888 169.321 335.626 161.76Z" fill="#090761"/>
<path d="M260.403 112.011L268.008 85.8159L304.408 96.8569L296.813 123.042L260.403 112.011Z" fill="white"/>
<path d="M269.691 88.995L301.306 98.5753L295.131 119.873L263.516 110.293L269.691 88.995ZM266.326 82.6475L257.311 113.719L298.496 126.199L307.511 95.1277L266.326 82.6475Z" fill="#79AAE3"/>
<path d="M291.309 115.835L268.417 108.897L273.192 92.4426L296.084 99.3808L291.309 115.835Z" fill="#DBE7F7"/>
<path d="M289.423 116.007C290.932 116.007 292.155 114.757 292.155 113.214C292.155 111.672 290.932 110.422 289.423 110.422C287.913 110.422 286.69 111.672 286.69 113.214C286.69 114.757 287.913 116.007 289.423 116.007Z" fill="#FED46B"/>
<path d="M338.971 110.132L335.664 162.555C326.902 170.03 313.005 165.358 313.005 165.358C313.005 165.358 312.402 164.284 311.43 162.233C309.923 159.054 307.54 153.544 305.157 146.101C303.786 141.805 302.843 136.65 302.211 131.784C301.034 122.773 300.898 114.718 300.898 114.718C300.898 114.718 303.631 100.584 320.241 99.6814C336.851 98.7792 338.971 110.132 338.971 110.132Z" fill="#FDC95F"/>
<path d="M312.053 101.153C312.199 99.7567 311.965 97.4798 311.741 95.8473C311.596 94.7088 311.45 93.8818 311.45 93.8818C311.45 93.8818 315.398 90.4342 316.614 93.6992C316.652 93.8066 316.691 93.9248 316.721 94.0429C317.781 97.8772 319.249 99.456 319.249 99.456C319.502 101.679 311.868 102.882 312.053 101.153Z" fill="#F7F9FB"/>
<path d="M317.479 92.1202C316.312 93.3446 313.2 96.7063 311.868 96.846C311.722 95.7075 311.45 93.8924 311.45 93.8924C311.45 93.8924 316.263 88.8552 317.479 92.1202Z" fill="#A0BFEF"/>
<path d="M310.944 71.1445C307.627 71.7675 305.216 74.7103 305.021 78.1472C304.671 84.2799 305.692 94.451 311.527 94.451C313.725 94.451 314.892 92.5607 315.544 92.4533C323.635 91.0892 323.528 82.6474 323.528 82.6474C323.528 82.6474 325.239 70.8116 316.837 70.9834C316.516 70.9942 316.195 70.9942 315.864 70.9512C315.067 70.8545 313.161 70.7256 310.944 71.1445Z" fill="#F7F9FB"/>
<path d="M325.687 80.7892C325.492 82.1103 325.064 83.571 324.354 85.0317C322.118 89.6822 322.118 89.6822 322.118 89.6822C322.118 89.6822 320.98 91.9377 320.095 93.0009C318.373 95.0738 315.602 96.019 314.629 94.859C314.163 94.2898 312.723 89.9185 308.97 85.1713C307.511 83.3347 305.712 81.4337 303.475 79.683C302.045 78.566 300.528 75.5372 300.412 74.1947C300.023 69.5979 304.02 65.7206 306.918 66.2576C309.825 66.8054 314.522 69.5871 318.86 69.222C323.187 68.8568 322.409 73.1636 322.409 73.1636C322.409 73.1636 322.205 74.7102 324.131 75.2902C325.453 75.6983 326.115 77.9323 325.687 80.7892Z" fill="#196ECD"/>
<path d="M353.364 52.2015C354.834 51.9488 355.742 49.7293 355.392 47.2442C355.042 44.7591 353.566 42.9494 352.096 43.2021C350.626 43.4548 349.718 45.6742 350.068 48.1594C350.419 50.6445 351.894 52.4542 353.364 52.2015Z" fill="#F7F9FB"/>
<path d="M274.331 121.952C275.761 121.62 276.561 119.468 276.119 117.147C275.677 114.825 274.16 113.212 272.73 113.544C271.301 113.876 270.5 116.027 270.942 118.349C271.384 120.671 272.902 122.284 274.331 121.952Z" fill="#F7F9FB"/>
<path d="M328.361 100.122C322.915 99.9286 319.803 115.019 338.387 119.39C338.387 119.39 351.049 102.206 354.638 86.2669C357.088 75.4085 357.108 68.6421 356.797 62.8316C356.524 57.8267 354.929 50.9744 354.929 50.9744L351.487 51.4469C351.487 51.4469 350.612 65.2697 347.461 75.8381C344.32 86.4173 336.404 100.401 328.361 100.122Z" fill="#FDC95F"/>
<path d="M314.328 123.267C314.328 123.267 312.344 135.855 311.449 161.76C311.439 161.921 311.439 162.072 311.43 162.222C309.922 159.043 307.54 153.533 305.157 146.09C303.786 141.794 302.843 136.639 302.21 131.773L314.328 123.267Z" fill="#FEC03E"/>
<path d="M301.812 111.678C301.812 111.678 303.893 105.449 311.654 108.564C319.414 111.678 313.18 124.996 313.18 124.996C313.18 124.996 289.753 164.005 278.112 147.153C276.586 144.941 272.987 135.328 271.733 120.893C271.733 120.893 274.504 120.464 276.031 119.755C276.031 119.755 284.074 154.21 297.241 123.16L301.812 111.678Z" fill="#FDC95F"/>
<path d="M313.006 165.347C313.006 165.347 328.507 169.031 335.626 161.76C335.626 161.76 337.25 176.109 327.282 196.279C320.766 209.458 317.207 216.869 315.524 220.424C314.698 222.164 314.348 224.097 314.513 226.03L320.027 292.351C320.28 295.412 318.899 298.387 316.4 300.084C314.902 301.105 312.908 302.222 310.302 303.274C309.933 303.424 309.573 303.027 309.758 302.673C310.623 300.965 312.033 298.14 313.122 295.767C313.745 294.403 313.861 292.867 313.443 291.428L295.54 229.864C294.606 226.664 294.548 223.27 295.355 220.037L313.006 165.347Z" fill="#232374"/>
<path d="M349.328 8.33521L339 26.8729L340.391 29.7406L347.451 31.8994L355.056 11.7936L349.328 8.33521Z" fill="#2F55B8"/>
<path d="M359.705 4.72656L360.123 24.2739L348.949 40.7924L346.304 25.0794L359.705 4.72656Z" fill="#89A8E8"/>
<path d="M325.686 80.7893C325.492 82.1104 325.064 83.571 324.354 85.0317C322.117 89.6823 322.117 89.6823 322.117 89.6823C322.117 89.6823 320.979 91.9377 320.094 93.001C318.373 95.0739 315.602 96.019 314.629 94.8591C314.162 94.2898 311.439 88.7156 304.962 80.7893C304.962 80.7893 311.643 87.3087 317.469 88.0712C321.261 88.5653 324.675 85.3217 325.686 80.7893Z" fill="#0953BB"/>
<path d="M285.786 151.976C284.638 151.976 283.539 151.729 282.499 151.245C272.686 146.649 271.227 121.967 271.179 120.926C271.169 120.765 271.227 120.614 271.334 120.496C271.441 120.378 271.587 120.313 271.753 120.324C271.772 120.324 273.931 120.389 275.749 119.272C276.012 119.111 276.352 119.196 276.508 119.465C276.664 119.733 276.576 120.077 276.314 120.238C274.826 121.151 273.192 121.387 272.326 121.441C272.608 125.232 274.544 146.273 282.965 150.214C285.883 151.578 289.364 150.698 293.303 147.604C293.322 147.594 293.332 147.583 293.352 147.572C293.439 147.519 301.968 142.041 314.182 120.614C314.338 120.346 314.678 120.249 314.941 120.41C315.203 120.571 315.291 120.915 315.145 121.183C302.979 142.514 294.596 148.12 293.954 148.528C291.018 150.827 288.285 151.976 285.786 151.976Z" fill="#FEA711"/>
<path d="M425.007 307.989H338.854C338.086 307.989 337.463 307.356 337.463 306.572C337.463 305.788 338.086 305.154 338.854 305.154H425.007C425.775 305.154 426.397 305.788 426.397 306.572C426.388 307.356 425.775 307.989 425.007 307.989Z" fill="#FEA711"/>
<path d="M333.097 307.989H287.332C286.564 307.989 285.941 307.356 285.941 306.572C285.941 305.788 286.564 305.154 287.332 305.154H333.097C333.866 305.154 334.488 305.788 334.488 306.572C334.488 307.356 333.866 307.989 333.097 307.989Z" fill="#FEA711"/>
<path d="M366.765 39.0633C365.413 39.0633 363.273 38.827 361.63 37.5274C360.375 36.5286 359.636 35.0894 359.442 33.2313C358.771 26.8408 354.978 25.015 354.939 24.9935C354.803 24.9291 354.735 24.7572 354.803 24.6176C354.861 24.478 355.027 24.4135 355.173 24.478C355.338 24.5531 359.296 26.4434 359.996 33.1669C360.171 34.8638 360.842 36.1741 361.97 37.0763C363.964 38.6551 366.872 38.5263 367.737 38.4511C367.727 37.0656 368.817 36.55 369.439 36.4749C369.585 36.4534 369.731 36.5608 369.75 36.7219C369.77 36.8723 369.663 37.0226 369.507 37.0334C369.371 37.0548 368.146 37.2589 368.301 38.6766C368.321 38.827 368.214 38.9666 368.068 38.9881C368.01 38.9988 367.504 39.0633 366.765 39.0633Z" fill="#3E4287"/>
<path d="M369.079 39.3533C368.71 39.3533 368.301 39.2351 367.873 38.9451C367.805 38.9022 367.757 38.8163 367.757 38.7303C367.747 38.6444 367.776 38.5585 367.844 38.5048L369.39 36.9796C369.497 36.8722 369.672 36.8722 369.779 36.9904C369.886 37.1085 369.886 37.2804 369.77 37.3878L368.486 38.6551C369.459 39.1062 370.11 38.3329 370.188 38.2363C370.285 38.1181 370.46 38.0966 370.577 38.1933C370.694 38.29 370.713 38.4726 370.625 38.5907C370.363 38.9129 369.799 39.3533 369.079 39.3533Z" fill="#3E4287"/>
<path d="M368.029 38.988C367.883 38.988 367.767 38.8698 367.757 38.7302C367.747 38.5691 367.854 38.4402 368.01 38.4295C368.613 38.3865 369.469 37.6776 369.751 37.4091C369.867 37.3017 370.042 37.3125 370.14 37.4199C370.247 37.538 370.237 37.7099 370.13 37.8173C370.081 37.8602 368.973 38.9128 368.058 38.988C368.049 38.988 368.039 38.988 368.029 38.988Z" fill="#3E4287"/>
<path d="M275.254 78.835L289.248 83.3029L275.254 78.835Z" fill="white"/>
<path d="M289.248 83.6139C289.219 83.6139 289.199 83.6139 289.17 83.6031L275.176 79.1352C275.03 79.0922 274.942 78.9204 274.991 78.7593C275.03 78.5982 275.186 78.5015 275.331 78.5552L289.326 83.0231C289.471 83.0661 289.559 83.238 289.51 83.3991C289.471 83.5279 289.364 83.6139 289.248 83.6139Z" fill="#3E4287"/>
<path d="M288.343 87.0507C288.314 87.0507 288.295 87.0507 288.266 87.0399L274.272 82.5719C274.126 82.529 274.038 82.3571 274.087 82.196C274.126 82.0349 274.281 81.9383 274.427 81.992L288.421 86.46C288.567 86.5029 288.655 86.6748 288.606 86.8359C288.577 86.9648 288.47 87.0507 288.343 87.0507Z" fill="#090761"/>
</g>
<defs>
<clipPath id="clip0_249_4075">
<rect width="337.5" height="239.39" fill="white" transform="translate(51.0176 1.53784)"/>
</clipPath>
<clipPath id="clip1_249_4075">
<rect width="450" height="307.204" fill="white" transform="translate(0 0.784912)"/>
</clipPath>
</defs>
</svg>
