<svg width="18" height="18" viewBox="0 0 18 18" fill="none" xmlns="http://www.w3.org/2000/svg">
<g clip-path="url(#clip0_260_16)">
<path d="M15.6047 6.92295L4.97342 0.369635C4.20427 -0.103885 3.27435 -0.123573 2.48583 0.316971C1.69731 0.757445 1.22656 1.55975 1.22656 2.46295V15.5099C1.22656 16.8756 2.32696 17.9926 3.67942 18C3.68311 18 3.6868 18 3.69042 18C4.11307 18 4.55351 17.8675 4.96487 17.6165C5.2958 17.4146 5.40039 16.9826 5.19849 16.6518C4.99659 16.3208 4.56458 16.2162 4.23376 16.4181C4.04135 16.5355 3.85344 16.5962 3.68698 16.5962C3.17668 16.5934 2.63032 16.1563 2.63032 15.5099V2.46298C2.63032 2.07553 2.83226 1.73145 3.17046 1.54249C3.5087 1.35352 3.90755 1.36196 4.23707 1.56484L14.8684 8.11816C15.1879 8.31489 15.3708 8.64294 15.37 9.0182C15.3692 9.39342 15.185 9.72072 14.8637 9.91679L7.17726 14.6231C6.84665 14.8255 6.74273 15.2576 6.94516 15.5882C7.14755 15.9188 7.57966 16.0227 7.91027 15.8203L15.5958 11.1146C16.3317 10.6657 16.7721 9.88308 16.7738 9.02101C16.7756 8.15905 16.3384 7.37464 15.6047 6.92295Z" fill="#949DA6"/>
</g>
<defs>
<clipPath id="clip0_260_16">
<rect width="18" height="18" fill="white"/>
</clipPath>
</defs>
</svg>
