<svg width="70" height="70" viewBox="0 0 70 70" fill="none" xmlns="http://www.w3.org/2000/svg">
<path d="M14.3555 8.39526H10.2539C9.74644 8.39584 9.25993 8.59769 8.9011 8.95652C8.54227 9.31535 8.34042 9.80186 8.33984 10.3093V47.43H12.4414V10.3093C12.442 9.80186 12.6438 9.31535 13.0027 8.95652C13.3615 8.59769 13.848 8.39584 14.3555 8.39526Z" fill="#D4E1F4"/>
<path d="M66.304 47.43H63.1637V10.3093C63.1627 9.36689 62.7878 8.46335 62.1214 7.79694C61.455 7.13054 60.5515 6.75569 59.609 6.75464H10.2536C9.31113 6.75569 8.4076 7.13054 7.74119 7.79694C7.07478 8.46335 6.69994 9.36689 6.69889 10.3093V47.43H3.69531C3.47775 47.43 3.2691 47.5164 3.11526 47.6702C2.96143 47.8241 2.875 48.0327 2.875 48.2503C2.875 48.4678 2.96143 48.6765 3.11526 48.8303C3.2691 48.9842 3.47775 49.0706 3.69531 49.0706H33.2812L21.5781 61.8716C21.4313 62.0321 21.3542 62.2445 21.3639 62.4618C21.3736 62.6792 21.4692 62.8838 21.6298 63.0307C21.7904 63.1775 22.0027 63.2546 22.2201 63.2449C22.4374 63.2352 22.6421 63.1396 22.7889 62.979L34.9313 49.6964L47.0749 62.9787C47.1477 63.0582 47.2353 63.1226 47.3329 63.1683C47.4305 63.2139 47.5362 63.2398 47.6438 63.2446C47.7514 63.2494 47.8589 63.233 47.9602 63.1962C48.0615 63.1595 48.1545 63.1031 48.234 63.0304C48.3135 62.9577 48.3779 62.87 48.4236 62.7724C48.4692 62.6748 48.4951 62.5692 48.4999 62.4616C48.5047 62.3539 48.4883 62.2464 48.4515 62.1451C48.4148 62.0439 48.3584 61.9508 48.2857 61.8713L36.5826 49.0703H66.3053C66.5228 49.0703 66.7315 48.9839 66.8853 48.8301C67.0391 48.6762 67.1256 48.4676 67.1256 48.25C67.1256 48.0325 67.0391 47.8238 66.8853 47.67C66.7315 47.5161 66.5228 47.4297 66.3053 47.4297L66.304 47.43ZM8.33951 10.3093C8.34009 9.80186 8.54194 9.31535 8.90077 8.95652C9.2596 8.59769 9.74611 8.39584 10.2536 8.39526H59.609C60.1165 8.39584 60.603 8.59769 60.9618 8.95652C61.3207 9.31535 61.5225 9.80186 61.5231 10.3093V47.43H8.33951V10.3093Z" fill="#0635C9"/>
<path d="M12.8398 35.5862H29.682C29.8995 35.5862 30.1082 35.4997 30.262 35.3459C30.4158 35.1921 30.5023 34.9834 30.5023 34.7659C30.5023 34.5483 30.4158 34.3397 30.262 34.1858C30.1082 34.032 29.8995 33.9456 29.682 33.9456H12.8398C12.6223 33.9456 12.4136 34.032 12.2598 34.1858C12.106 34.3397 12.0195 34.5483 12.0195 34.7659C12.0195 34.9834 12.106 35.1921 12.2598 35.3459C12.4136 35.4997 12.6223 35.5862 12.8398 35.5862Z" fill="#0635C9"/>
<path d="M55.932 39.9612H12.8398C12.6223 39.9612 12.4136 40.0476 12.2598 40.2014C12.106 40.3553 12.0195 40.5639 12.0195 40.7815C12.0195 40.9991 12.106 41.2077 12.2598 41.3615C12.4136 41.5154 12.6223 41.6018 12.8398 41.6018H55.932C56.1495 41.6018 56.3582 41.5154 56.512 41.3615C56.6658 41.2077 56.7523 40.9991 56.7523 40.7815C56.7523 40.5639 56.6658 40.3553 56.512 40.2014C56.3582 40.0476 56.1495 39.9612 55.932 39.9612Z" fill="#0635C9"/>
<path d="M23.7766 13.7949H13.084C12.8664 13.7949 12.6578 13.8813 12.5039 14.0352C12.3501 14.189 12.2637 14.3977 12.2637 14.6152V25.3066C12.2637 25.5242 12.3501 25.7328 12.5039 25.8867C12.6578 26.0405 12.8664 26.1269 13.084 26.1269H23.7764C23.9939 26.1269 24.2026 26.0405 24.3564 25.8867C24.5102 25.7328 24.5967 25.5242 24.5967 25.3066V14.6152C24.5967 14.3977 24.5103 14.1891 24.3565 14.0353C24.2027 13.8815 23.9941 13.795 23.7766 13.7949ZM22.9563 24.4873H13.9043V15.4355H22.956L22.9563 24.4873Z" fill="#1AE5BE"/>
<path d="M41.9767 18.3287C41.9294 18.1832 41.8423 18.0537 41.7253 17.9551C41.6083 17.8564 41.466 17.7925 41.3145 17.7705L37.46 17.2099L35.7364 13.7173C35.6687 13.58 35.5639 13.4644 35.4339 13.3836C35.3039 13.3027 35.1538 13.2599 35.0007 13.2599C34.8476 13.2599 34.6976 13.3027 34.5676 13.3836C34.4376 13.4644 34.3328 13.58 34.265 13.7173L32.5414 17.2099L28.6869 17.7705C28.5354 17.7925 28.3931 17.8564 28.276 17.9551C28.159 18.0537 28.0718 18.1832 28.0245 18.3288C27.9772 18.4744 27.9716 18.6303 28.0083 18.7789C28.045 18.9276 28.1225 19.063 28.2322 19.1698L31.0213 21.8885L30.3628 25.7272C30.3369 25.8781 30.3538 26.0332 30.4115 26.175C30.4691 26.3168 30.5653 26.4396 30.6892 26.5296C30.813 26.6196 30.9595 26.6731 31.1122 26.6841C31.2649 26.6951 31.4176 26.6632 31.5531 26.592L35.0007 24.7794L38.4482 26.5917C38.5837 26.663 38.7364 26.6949 38.8891 26.6838C39.0418 26.6728 39.1883 26.6193 39.3121 26.5293C39.436 26.4393 39.5322 26.3165 39.5899 26.1747C39.6475 26.0329 39.6644 25.8778 39.6385 25.727L38.9801 21.8886L41.7691 19.1699C41.8788 19.0631 41.9563 18.9276 41.993 18.779C42.0297 18.6303 42.024 18.4743 41.9767 18.3287ZM37.5261 21.0145C37.4308 21.1074 37.3595 21.222 37.3184 21.3485C37.2773 21.4751 37.2676 21.6097 37.2901 21.7408L37.7404 24.3658L35.3824 23.126C35.2647 23.0641 35.1337 23.0318 35.0007 23.0318C34.8677 23.0318 34.7367 23.0641 34.619 23.126L32.261 24.3658L32.7114 21.7408C32.7339 21.6097 32.7242 21.4751 32.683 21.3485C32.6419 21.222 32.5707 21.1074 32.4754 21.0145L30.5676 19.1552L33.204 18.7724C33.3356 18.7533 33.4607 18.7024 33.5683 18.6242C33.6759 18.546 33.7629 18.4428 33.8218 18.3235L35.0007 15.9345L36.1796 18.3232C36.2385 18.4425 36.3255 18.5457 36.4332 18.6239C36.5408 18.7021 36.6658 18.753 36.7975 18.7721L39.4338 19.1549L37.5261 21.0145Z" fill="#1AE5BE"/>
<path d="M51.4171 13.7932C50.1973 13.7933 49.0049 14.1551 47.9907 14.8329C46.9765 15.5107 46.1861 16.474 45.7193 17.601C45.2526 18.728 45.1305 19.9681 45.3686 21.1645C45.6066 22.3608 46.1941 23.4597 47.0567 24.3223C47.9192 25.1848 49.0182 25.7721 50.2146 26.0101C51.411 26.248 52.6511 26.1258 53.778 25.659C54.905 25.1922 55.8682 24.4016 56.5459 23.3874C57.2236 22.3731 57.5853 21.1807 57.5853 19.9609C57.5835 18.3256 56.933 16.7578 55.7766 15.6015C54.6202 14.4452 53.0524 13.7949 51.4171 13.7932ZM51.4171 24.4879C50.5218 24.4878 49.6466 24.2222 48.9022 23.7247C48.1578 23.2272 47.5776 22.5201 47.2351 21.6929C46.8925 20.8657 46.8029 19.9555 46.9777 19.0774C47.1524 18.1992 47.5836 17.3926 48.2168 16.7596C48.8499 16.1265 49.6565 15.6954 50.5347 15.5208C51.4128 15.3462 52.323 15.4358 53.1502 15.7785C53.9774 16.1211 54.6844 16.7014 55.1818 17.4458C55.6792 18.1903 55.9447 19.0655 55.9447 19.9609C55.9433 21.1612 55.4658 22.3119 54.617 23.1606C53.7682 24.0093 52.6174 24.4867 51.4171 24.4879Z" fill="#1AE5BE"/>
</svg>
