<svg width="112" height="26" viewBox="0 0 112 26" fill="none" xmlns="http://www.w3.org/2000/svg">
<path d="M3.568 13.656L7.12 19H9.408L5.6 13.656H3.568ZM1.248 7.8V19H3.136V7.8H1.248ZM2.368 9.448H4.624C5.06133 9.448 5.44 9.52267 5.76 9.672C6.08 9.81067 6.33067 10.0187 6.512 10.296C6.69333 10.5733 6.784 10.9147 6.784 11.32C6.784 11.7147 6.69333 12.056 6.512 12.344C6.33067 12.6213 6.08 12.8347 5.76 12.984C5.44 13.1227 5.06133 13.192 4.624 13.192H2.368V14.76H4.704C5.52533 14.76 6.23467 14.616 6.832 14.328C7.44 14.04 7.90933 13.6347 8.24 13.112C8.57067 12.5893 8.736 11.9813 8.736 11.288C8.736 10.584 8.57067 9.97067 8.24 9.448C7.90933 8.92533 7.44 8.52 6.832 8.232C6.23467 7.944 5.52533 7.8 4.704 7.8H2.368V9.448ZM13.804 19.16C14.6573 19.16 15.388 18.9947 15.996 18.664C16.6147 18.3227 17.116 17.8213 17.5 17.16L15.996 16.568C15.7613 16.9627 15.468 17.256 15.116 17.448C14.764 17.64 14.3533 17.736 13.884 17.736C13.436 17.736 13.0573 17.64 12.748 17.448C12.4387 17.2453 12.204 16.9627 12.044 16.6C11.884 16.2267 11.804 15.7787 11.804 15.256C11.804 14.8507 11.852 14.4987 11.948 14.2C12.044 13.8907 12.1773 13.6347 12.348 13.432C12.5293 13.2187 12.7427 13.0587 12.988 12.952C13.244 12.8453 13.5373 12.792 13.868 12.792C14.2307 12.792 14.5453 12.872 14.812 13.032C15.0893 13.192 15.3027 13.416 15.452 13.704C15.612 13.992 15.692 14.3333 15.692 14.728C15.692 14.8027 15.6707 14.8933 15.628 15C15.596 15.1067 15.5587 15.192 15.516 15.256L16.06 14.52H11.068V15.72H17.548C17.548 15.6773 17.548 15.6133 17.548 15.528C17.5587 15.432 17.564 15.336 17.564 15.24C17.564 14.4507 17.4147 13.7787 17.116 13.224C16.828 12.6587 16.412 12.2267 15.868 11.928C15.324 11.6293 14.6627 11.48 13.884 11.48C13.2973 11.48 12.7693 11.5707 12.3 11.752C11.8307 11.9333 11.4253 12.1947 11.084 12.536C10.7533 12.8667 10.4973 13.272 10.316 13.752C10.1347 14.2213 10.044 14.744 10.044 15.32C10.044 16.088 10.1987 16.76 10.508 17.336C10.8173 17.912 11.2547 18.36 11.82 18.68C12.3853 19 13.0467 19.16 13.804 19.16ZM20.3014 16.712C20.3014 16.4773 20.3547 16.28 20.4614 16.12C20.568 15.96 20.7334 15.8373 20.9574 15.752C21.192 15.656 21.4907 15.608 21.8534 15.608C22.2694 15.608 22.664 15.6613 23.0374 15.768C23.4107 15.8747 23.7627 16.0453 24.0934 16.28V15.4C23.9974 15.2827 23.832 15.1547 23.5974 15.016C23.3627 14.8667 23.064 14.7387 22.7014 14.632C22.3494 14.5253 21.928 14.472 21.4374 14.472C20.8294 14.472 20.312 14.568 19.8854 14.76C19.4587 14.952 19.128 15.224 18.8934 15.576C18.6694 15.9173 18.5574 16.328 18.5574 16.808C18.5574 17.3093 18.6747 17.736 18.9094 18.088C19.144 18.44 19.4587 18.7067 19.8534 18.888C20.248 19.0693 20.6747 19.16 21.1334 19.16C21.56 19.16 21.976 19.0853 22.3814 18.936C22.7974 18.776 23.1387 18.5413 23.4054 18.232C23.6827 17.912 23.8214 17.5173 23.8214 17.048L23.5654 16.088C23.5654 16.4613 23.48 16.7813 23.3094 17.048C23.1387 17.3147 22.9094 17.5173 22.6214 17.656C22.3334 17.7947 22.0187 17.864 21.6774 17.864C21.4107 17.864 21.1707 17.8213 20.9574 17.736C20.7547 17.64 20.5947 17.5067 20.4774 17.336C20.36 17.1653 20.3014 16.9573 20.3014 16.712ZM19.7574 13.56C19.864 13.4853 20.024 13.3947 20.2374 13.288C20.4614 13.1813 20.7227 13.0853 21.0214 13C21.32 12.9147 21.6454 12.872 21.9974 12.872C22.2214 12.872 22.4294 12.8933 22.6214 12.936C22.8134 12.9787 22.9787 13.048 23.1174 13.144C23.2667 13.24 23.3787 13.368 23.4534 13.528C23.528 13.6773 23.5654 13.864 23.5654 14.088V19H25.2614V13.752C25.2614 13.2613 25.128 12.8507 24.8614 12.52C24.5947 12.1787 24.2267 11.9173 23.7574 11.736C23.2987 11.5547 22.7654 11.464 22.1574 11.464C21.4747 11.464 20.872 11.56 20.3494 11.752C19.8267 11.944 19.3947 12.1413 19.0534 12.344L19.7574 13.56ZM32.8119 6.52V19H34.5559V6.52H32.8119ZM26.7159 15.32C26.7159 16.12 26.8812 16.808 27.2119 17.384C27.5425 17.96 27.9799 18.4027 28.5239 18.712C29.0679 19.0107 29.6599 19.16 30.2999 19.16C30.7585 19.16 31.1799 19.0747 31.5639 18.904C31.9479 18.7227 32.2785 18.4667 32.5559 18.136C32.8332 17.8053 33.0465 17.4053 33.1959 16.936C33.3559 16.456 33.4359 15.9173 33.4359 15.32C33.4359 14.7227 33.3559 14.1893 33.1959 13.72C33.0465 13.24 32.8332 12.8347 32.5559 12.504C32.2785 12.1733 31.9479 11.9227 31.5639 11.752C31.1799 11.5707 30.7585 11.48 30.2999 11.48C29.6599 11.48 29.0679 11.6347 28.5239 11.944C27.9799 12.2427 27.5425 12.68 27.2119 13.256C26.8812 13.8213 26.7159 14.5093 26.7159 15.32ZM28.5079 15.32C28.5079 14.8293 28.6092 14.4133 28.8119 14.072C29.0145 13.72 29.2812 13.4533 29.6119 13.272C29.9532 13.08 30.3212 12.984 30.7159 12.984C30.9612 12.984 31.2065 13.0373 31.4519 13.144C31.7079 13.24 31.9372 13.3893 32.1399 13.592C32.3425 13.784 32.5025 14.0293 32.6199 14.328C32.7479 14.616 32.8119 14.9467 32.8119 15.32C32.8119 15.6933 32.7479 16.0293 32.6199 16.328C32.5025 16.616 32.3425 16.8613 32.1399 17.064C31.9372 17.256 31.7079 17.4053 31.4519 17.512C31.2065 17.608 30.9612 17.656 30.7159 17.656C30.3212 17.656 29.9532 17.5653 29.6119 17.384C29.2812 17.192 29.0145 16.9253 28.8119 16.584C28.6092 16.232 28.5079 15.8107 28.5079 15.32ZM43.703 12.184L47.111 17.96L50.535 12.184L51.303 19H53.255L51.719 7.24L47.111 14.84L42.519 7.24L40.983 19H42.935L43.703 12.184ZM54.3878 15.32C54.3878 16.0667 54.5584 16.7333 54.8997 17.32C55.2518 17.896 55.7264 18.3493 56.3238 18.68C56.9318 19 57.6091 19.16 58.3558 19.16C59.1131 19.16 59.7904 19 60.3878 18.68C60.9851 18.3493 61.4544 17.896 61.7958 17.32C62.1478 16.7333 62.3238 16.0667 62.3238 15.32C62.3238 14.5627 62.1478 13.896 61.7958 13.32C61.4544 12.744 60.9851 12.296 60.3878 11.976C59.7904 11.6453 59.1131 11.48 58.3558 11.48C57.6091 11.48 56.9318 11.6453 56.3238 11.976C55.7264 12.296 55.2518 12.744 54.8997 13.32C54.5584 13.896 54.3878 14.5627 54.3878 15.32ZM56.1638 15.32C56.1638 14.8613 56.2598 14.4613 56.4518 14.12C56.6438 13.768 56.9051 13.496 57.2358 13.304C57.5664 13.1013 57.9398 13 58.3558 13C58.7718 13 59.1451 13.1013 59.4758 13.304C59.8064 13.496 60.0678 13.768 60.2598 14.12C60.4518 14.4613 60.5478 14.8613 60.5478 15.32C60.5478 15.7787 60.4518 16.184 60.2598 16.536C60.0678 16.8773 59.8064 17.1493 59.4758 17.352C59.1451 17.544 58.7718 17.64 58.3558 17.64C57.9398 17.64 57.5664 17.544 57.2358 17.352C56.9051 17.1493 56.6438 16.8773 56.4518 16.536C56.2598 16.184 56.1638 15.7787 56.1638 15.32ZM65.6754 11.64H63.9634V19H65.6754V11.64ZM67.8674 13.496L68.7154 12.024C68.5447 11.832 68.342 11.6933 68.1074 11.608C67.8727 11.5227 67.622 11.48 67.3554 11.48C66.982 11.48 66.6194 11.6133 66.2674 11.88C65.926 12.1467 65.6434 12.5093 65.4194 12.968C65.206 13.416 65.0994 13.9333 65.0994 14.52L65.6754 14.856C65.6754 14.504 65.718 14.1947 65.8034 13.928C65.8887 13.6613 66.0167 13.4587 66.1874 13.32C66.3687 13.1707 66.6034 13.096 66.8914 13.096C67.1047 13.096 67.2807 13.1333 67.4194 13.208C67.558 13.272 67.7074 13.368 67.8674 13.496ZM72.8509 19.16C73.7042 19.16 74.4349 18.9947 75.0429 18.664C75.6615 18.3227 76.1629 17.8213 76.5469 17.16L75.0429 16.568C74.8082 16.9627 74.5149 17.256 74.1629 17.448C73.8109 17.64 73.4002 17.736 72.9309 17.736C72.4829 17.736 72.1042 17.64 71.7949 17.448C71.4855 17.2453 71.2509 16.9627 71.0909 16.6C70.9309 16.2267 70.8509 15.7787 70.8509 15.256C70.8509 14.8507 70.8989 14.4987 70.9949 14.2C71.0909 13.8907 71.2242 13.6347 71.3949 13.432C71.5762 13.2187 71.7895 13.0587 72.0349 12.952C72.2909 12.8453 72.5842 12.792 72.9149 12.792C73.2775 12.792 73.5922 12.872 73.8589 13.032C74.1362 13.192 74.3495 13.416 74.4989 13.704C74.6589 13.992 74.7389 14.3333 74.7389 14.728C74.7389 14.8027 74.7175 14.8933 74.6749 15C74.6429 15.1067 74.6055 15.192 74.5629 15.256L75.1069 14.52H70.1149V15.72H76.5949C76.5949 15.6773 76.5949 15.6133 76.5949 15.528C76.6055 15.432 76.6109 15.336 76.6109 15.24C76.6109 14.4507 76.4615 13.7787 76.1629 13.224C75.8749 12.6587 75.4589 12.2267 74.9149 11.928C74.3709 11.6293 73.7095 11.48 72.9309 11.48C72.3442 11.48 71.8162 11.5707 71.3469 11.752C70.8775 11.9333 70.4722 12.1947 70.1309 12.536C69.8002 12.8667 69.5442 13.272 69.3629 13.752C69.1815 14.2213 69.0909 14.744 69.0909 15.32C69.0909 16.088 69.2455 16.76 69.5549 17.336C69.8642 17.912 70.3015 18.36 70.8669 18.68C71.4322 19 72.0935 19.16 72.8509 19.16Z" fill="#4A8F9F"/>
<circle cx="99" cy="13" r="13" fill="#4A8F9F"/>
<path d="M95.04 14.688H103.184V12.976H95.04V14.688ZM98.208 9.744V17.92H100.016V9.744H98.208Z" fill="white"/>
</svg>
