<svg width="36" height="36" viewBox="0 0 36 36" fill="none" xmlns="http://www.w3.org/2000/svg">
<circle cx="18" cy="18" r="18" fill="#949DA6"/>
<path d="M21.2437 12.2073C20.0203 12.2073 18.874 12.6649 18 13.4836C17.126 12.6649 15.9797 12.2073 14.7563 12.2073C12.1337 12.2073 10 14.341 10 16.9637C10 18.2555 10.4252 19.5273 11.2637 20.7436C11.912 21.6841 12.8089 22.5931 13.9294 23.4454C15.809 24.8753 17.6647 25.6543 17.7429 25.6867L17.9981 25.7928L18.2538 25.6881C18.332 25.6562 20.1889 24.8882 22.0696 23.4635C23.1907 22.6142 24.0881 21.7054 24.7367 20.7625C25.575 19.5439 26 18.2658 26 16.9637C26 14.341 23.8663 12.2073 21.2437 12.2073ZM18.0014 24.3353C16.7496 23.7555 11.3397 21.0142 11.3397 16.9637C11.3397 15.0797 12.8724 13.547 14.7563 13.547C15.827 13.547 16.8156 14.035 17.4686 14.886L18 15.5784L18.5314 14.886C19.1845 14.035 20.173 13.547 21.2437 13.547C23.1276 13.547 24.6604 15.0797 24.6604 16.9637C24.6603 21.0433 19.2527 23.7613 18.0014 24.3353Z" fill="white"/>
</svg>
