<svg width="19" height="18" viewBox="0 0 19 18" fill="none" xmlns="http://www.w3.org/2000/svg">
<path d="M1.7348 6.85668L1.73518 6.85662L4.40814 6.44947C5.88896 6.22391 7.16047 5.27632 7.79989 3.92176L9.02639 1.32356C9.2292 0.894398 9.79508 0.893046 9.99985 1.3239C9.99991 1.32403 9.99997 1.32415 10 1.32428L11.2262 3.92176C11.8656 5.27632 13.1371 6.22391 14.6179 6.44947L17.2909 6.85662L17.2913 6.85668C17.715 6.92089 17.9452 7.51481 17.5886 7.87766L17.5884 7.8778L15.554 9.94908C14.548 10.9733 14.0911 12.416 14.324 13.8326L14.8122 16.801C14.8992 17.3323 14.3836 17.6285 14.0287 17.4336L14.0286 17.4335L11.6792 16.1433C10.3301 15.4024 8.69597 15.4024 7.3469 16.1433L4.99744 17.4335L4.99585 17.4344C4.64454 17.629 4.12633 17.3357 4.21391 16.801L4.70206 13.8326C4.93503 12.416 4.4781 10.9733 3.47211 9.94908L1.43766 7.8778L1.43753 7.87766C1.08084 7.51481 1.3111 6.92089 1.7348 6.85668Z" stroke="#949DA6"/>
</svg>
