<svg width="16" height="16" viewBox="0 0 16 16" fill="none" xmlns="http://www.w3.org/2000/svg">
<path d="M5.86579 5.60198L5.33937 5.68216L1.00122 6.34296C1.00059 6.34607 1.00021 6.34916 1.00006 6.35206C0.99983 6.3568 1.00028 6.35985 1.00055 6.36112L5.86579 5.60198ZM5.86579 5.60198L6.0931 5.12045M5.86579 5.60198L6.0931 5.12045M6.0931 5.12045L8 1.08089L9.9069 5.12045L10.1342 5.60198L10.6606 5.68216L14.9988 6.34296C14.9994 6.34607 14.9998 6.34916 14.9999 6.35206C15.0002 6.3568 14.9997 6.35985 14.9995 6.36112L6.0931 5.12045ZM7.51864 12.8597L3.69573 14.9591L14.9967 6.36413L14.9965 6.36441L11.8354 9.58277L11.4797 9.9449L11.562 10.4458L12.3043 14.9591L8.48137 12.8597L8 12.5953L7.51864 12.8597ZM12.3903 15.0064L12.3901 15.0063L12.3903 15.0064Z" stroke="#949DA6" stroke-width="2"/>
</svg>
