<svg width="70" height="70" viewBox="0 0 70 70" fill="none" xmlns="http://www.w3.org/2000/svg">
<path d="M9.91185 39.372C9.9105 33.1086 12.2341 27.0677 16.4325 22.4197C20.6308 17.7717 26.405 14.8475 32.6363 14.2138C31.799 14.1301 30.9505 14.0877 30.0906 14.0867C16.1342 14.0867 4.82031 25.407 4.82031 39.372C4.82031 53.337 16.1342 64.6573 30.0909 64.6573C30.9502 64.6573 31.7987 64.6149 32.6366 64.5301C26.4053 63.8965 20.631 60.9724 16.4326 56.3244C12.2342 51.6764 9.91051 45.6354 9.91185 39.372Z" fill="#D4E1F4"/>
<path d="M30.4883 66.4453C45.3395 66.4453 57.4219 54.3629 57.4219 39.5117C57.4392 33.6769 55.545 27.997 52.0289 23.3406C51.8758 23.1392 51.6492 23.0066 51.3987 22.9718C51.1481 22.937 50.894 23.0028 50.6918 23.1548C50.4896 23.3068 50.3558 23.5327 50.3197 23.783C50.2836 24.0334 50.348 24.2879 50.499 24.4908C53.7649 28.8161 55.5241 34.092 55.5078 39.5117C55.5078 53.3076 44.2842 64.5312 30.4883 64.5312C16.6924 64.5312 5.46875 53.3076 5.46875 39.5117C5.46875 25.7158 16.6924 14.4922 30.4883 14.4922C35.9081 14.4759 41.1842 16.2353 45.5094 19.5013C45.7123 19.6538 45.9675 19.7195 46.2188 19.6839C46.4701 19.6484 46.697 19.5144 46.8496 19.3115C47.0021 19.1086 47.0678 18.8535 47.0322 18.6022C46.9966 18.3508 46.8627 18.1239 46.6598 17.9714C42.0033 14.4551 36.3232 12.5608 30.4883 12.5781C15.6371 12.5781 3.55469 24.6605 3.55469 39.5117C3.55469 54.3629 15.6371 66.4453 30.4883 66.4453Z" fill="#0635C9"/>
<path d="M41.7089 25.6943C41.7829 25.5927 41.8361 25.4775 41.8655 25.3553C41.895 25.2331 41.9 25.1063 41.8805 24.9822C41.8609 24.858 41.8171 24.7389 41.7515 24.6317C41.6859 24.5245 41.5999 24.4313 41.4982 24.3573C38.3024 22.024 34.4453 20.7712 30.4883 20.7813C20.1603 20.7813 11.7578 29.1838 11.7578 39.5118C11.7578 49.8398 20.1603 58.2422 30.4883 58.2422C40.8163 58.2422 49.2188 49.8398 49.2188 39.5118C49.2286 35.5633 47.9813 31.7143 45.6575 28.5221C45.5837 28.4203 45.4906 28.3341 45.3834 28.2684C45.2763 28.2027 45.1573 28.1587 45.0332 28.139C44.909 28.1193 44.7822 28.1242 44.66 28.1534C44.5378 28.1827 44.4225 28.2358 44.3208 28.3096C44.2191 28.3834 44.1329 28.4765 44.0672 28.5837C44.0014 28.6908 43.9575 28.8098 43.9377 28.9339C43.918 29.0581 43.9229 29.1849 43.9522 29.3071C43.9815 29.4293 44.0345 29.5446 44.1083 29.6463C46.5895 33.0719 47.6884 37.3068 47.1859 41.5066C46.6834 45.7064 44.6165 49.5625 41.3972 52.3061C38.178 55.0497 34.0429 56.4791 29.8166 56.3094C25.5902 56.1397 21.5831 54.3834 18.5942 51.3905C15.6053 48.3976 13.8541 44.3882 13.69 40.1616C13.5259 35.9351 14.9608 31.8019 17.7086 28.5863C20.4564 25.3706 24.3152 23.3088 28.5157 22.8118C32.7162 22.3149 36.9496 23.4193 40.372 25.905C40.4736 25.9789 40.5888 26.0322 40.7109 26.0616C40.8331 26.091 40.9599 26.0961 41.0841 26.0765C41.2082 26.057 41.3273 26.0132 41.4345 25.9476C41.5417 25.882 41.635 25.7959 41.7089 25.6943Z" fill="#0635C9"/>
<path d="M30.4883 36.3672C30.7421 36.3672 30.9855 36.2664 31.165 36.0869C31.3445 35.9074 31.4453 35.664 31.4453 35.4102C31.4453 35.1563 31.3445 34.9129 31.165 34.7334C30.9855 34.554 30.7421 34.4531 30.4883 34.4531C29.4878 34.4531 28.5098 34.7498 27.6779 35.3057C26.846 35.8615 26.1976 36.6515 25.8148 37.5759C25.4319 38.5002 25.3317 39.5173 25.5269 40.4986C25.7221 41.4799 26.2039 42.3812 26.9113 43.0887C27.6188 43.7961 28.5201 44.2779 29.5014 44.4731C30.4827 44.6683 31.4998 44.5681 32.4241 44.1852C33.3485 43.8024 34.1385 43.154 34.6943 42.3221C35.2502 41.4902 35.5469 40.5122 35.5469 39.5117C35.5469 39.2579 35.446 39.0145 35.2666 38.835C35.0871 38.6555 34.8437 38.5547 34.5898 38.5547C34.336 38.5547 34.0926 38.6555 33.9131 38.835C33.7336 39.0145 33.6328 39.2579 33.6328 39.5117C33.6328 40.1336 33.4484 40.7416 33.1029 41.2587C32.7573 41.7758 32.2662 42.1789 31.6916 42.4169C31.1171 42.6549 30.4848 42.7172 29.8748 42.5958C29.2648 42.4745 28.7045 42.175 28.2648 41.7352C27.825 41.2955 27.5255 40.7352 27.4042 40.1252C27.2828 39.5152 27.3451 38.8829 27.5831 38.3084C27.8211 37.7338 28.2242 37.2427 28.7413 36.8971C29.2584 36.5516 29.8664 36.3672 30.4883 36.3672Z" fill="#0635C9"/>
<path d="M65.5825 13.2269L57.566 12.434L56.773 4.41745C56.7552 4.23714 56.6864 4.0656 56.5749 3.92281C56.4633 3.78001 56.3135 3.67182 56.1429 3.61081C55.9723 3.5498 55.7879 3.53848 55.611 3.57818C55.4342 3.61787 55.2723 3.70694 55.1442 3.83503L44.5099 14.4693C44.3931 14.5861 44.3085 14.7313 44.2644 14.8905C44.2203 15.0498 44.2182 15.2177 44.2582 15.3781L46.0606 22.586L29.8116 38.835C29.7227 38.9239 29.6522 39.0294 29.6041 39.1455C29.556 39.2616 29.5312 39.3861 29.5312 39.5118C29.5312 39.6375 29.556 39.7619 29.6041 39.878C29.6522 39.9942 29.7227 40.0997 29.8116 40.1885C29.9004 40.2774 30.006 40.3479 30.1221 40.396C30.2382 40.4441 30.3626 40.4689 30.4883 40.4689C30.614 40.4689 30.7385 40.4441 30.8546 40.396C30.9707 40.3479 31.0762 40.2774 31.1651 40.1885L47.4141 23.9395L54.6225 25.7416C54.7828 25.7817 54.9507 25.7796 55.11 25.7355C55.2693 25.6914 55.4144 25.6068 55.5312 25.4899L66.1651 14.8559C66.2932 14.7278 66.3823 14.5658 66.422 14.389C66.4617 14.2122 66.4504 14.0277 66.3894 13.857C66.3284 13.6864 66.2201 13.5366 66.0773 13.425C65.9345 13.3135 65.7629 13.2448 65.5825 13.2269ZM46.2465 15.4396L55.0675 6.61862L55.6939 12.9527L47.6386 21.008L46.2465 15.4396ZM54.5605 23.7536L48.9921 22.3614L57.0474 14.3062L63.3815 14.9326L54.5605 23.7536Z" fill="#1AE5BE"/>
</svg>
