<svg width="95" height="94" viewBox="0 0 95 94" fill="none" xmlns="http://www.w3.org/2000/svg">
<path d="M13.5905 28.84H18.6305C20.4705 28.84 22.0971 28.5733 23.5105 28.04C24.9238 27.5067 26.0305 26.7467 26.8305 25.76C27.6571 24.7467 28.0705 23.52 28.0705 22.08C28.0705 20.88 27.8305 19.84 27.3505 18.96C26.8971 18.08 26.2438 17.3467 25.3905 16.76C24.5638 16.1733 23.5771 15.7333 22.4305 15.44C21.2838 15.1467 20.0171 15 18.6305 15H9.31047V43H19.1905C21.2705 43 23.0971 42.72 24.6705 42.16C26.2438 41.6 27.4705 40.7333 28.3505 39.56C29.2305 38.36 29.6705 36.84 29.6705 35C29.6705 33.6133 29.3771 32.44 28.7905 31.48C28.2305 30.4933 27.4571 29.6933 26.4705 29.08C25.4838 28.44 24.3638 27.9733 23.1105 27.68C21.8571 27.3867 20.5505 27.24 19.1905 27.24H13.5905V30.36H18.7105C19.4305 30.36 20.0971 30.44 20.7105 30.6C21.3238 30.76 21.8571 31 22.3105 31.32C22.7638 31.6133 23.1105 32.0133 23.3505 32.52C23.6171 33 23.7505 33.5867 23.7505 34.28C23.7505 35.24 23.5238 36.0267 23.0705 36.64C22.6438 37.2533 22.0438 37.7067 21.2705 38C20.5238 38.2933 19.6705 38.44 18.7105 38.44H15.0305V19.56H18.1105C19.3638 19.56 20.3505 19.8533 21.0705 20.44C21.7905 21 22.1505 21.8 22.1505 22.84C22.1505 23.5333 21.9771 24.1333 21.6305 24.64C21.3105 25.1467 20.8438 25.5333 20.2305 25.8C19.6438 26.0667 18.9371 26.2 18.1105 26.2H13.5905V28.84ZM34.0639 11.8V43H39.2639V11.8H34.0639ZM43.1364 33.8C43.1364 35.6933 43.5764 37.3733 44.4564 38.84C45.3631 40.28 46.5764 41.4 48.0964 42.2C49.6431 43 51.3897 43.4 53.3364 43.4C55.2831 43.4 57.0297 43 58.5764 42.2C60.1231 41.4 61.3364 40.28 62.2164 38.84C63.1231 37.3733 63.5764 35.6933 63.5764 33.8C63.5764 31.88 63.1231 30.2 62.2164 28.76C61.3364 27.32 60.1231 26.2 58.5764 25.4C57.0297 24.6 55.2831 24.2 53.3364 24.2C51.3897 24.2 49.6431 24.6 48.0964 25.4C46.5764 26.2 45.3631 27.32 44.4564 28.76C43.5764 30.2 43.1364 31.88 43.1364 33.8ZM48.4564 33.8C48.4564 32.76 48.6697 31.8533 49.0964 31.08C49.5497 30.28 50.1364 29.6667 50.8564 29.24C51.5764 28.8133 52.4031 28.6 53.3364 28.6C54.2431 28.6 55.0564 28.8133 55.7764 29.24C56.5231 29.6667 57.1097 30.28 57.5364 31.08C57.9897 31.88 58.2164 32.7867 58.2164 33.8C58.2164 34.84 57.9897 35.7467 57.5364 36.52C57.1097 37.2933 56.5231 37.9067 55.7764 38.36C55.0564 38.7867 54.2431 39 53.3364 39C52.4031 39 51.5764 38.7867 50.8564 38.36C50.1364 37.9067 49.5497 37.2933 49.0964 36.52C48.6697 35.72 48.4564 34.8133 48.4564 33.8ZM66.5433 44.28C66.6499 45.88 67.0766 47.28 67.8233 48.48C68.5966 49.7067 69.7033 50.6667 71.1433 51.36C72.6099 52.08 74.4099 52.44 76.5433 52.44C78.3033 52.44 79.9299 52.0933 81.4233 51.4C82.9166 50.7333 84.1033 49.6667 84.9833 48.2C85.8899 46.76 86.3433 44.8933 86.3433 42.6V24.6H81.3433V42.6C81.3433 43.8533 81.1033 44.8933 80.6233 45.72C80.1699 46.5467 79.5566 47.16 78.7833 47.56C78.0099 47.96 77.1833 48.16 76.3033 48.16C75.3966 48.16 74.5966 48 73.9033 47.68C73.2366 47.36 72.7033 46.9067 72.3033 46.32C71.9299 45.76 71.7166 45.08 71.6633 44.28H66.5433ZM66.1833 33.64C66.1833 35.6667 66.5966 37.3867 67.4233 38.8C68.2499 40.2133 69.3299 41.28 70.6633 42C72.0233 42.72 73.4766 43.08 75.0233 43.08C76.1699 43.08 77.2233 42.8667 78.1833 42.44C79.1699 42.0133 80.0099 41.4 80.7033 40.6C81.4233 39.7733 81.9833 38.7867 82.3833 37.64C82.7833 36.4667 82.9833 35.1333 82.9833 33.64C82.9833 32.1467 82.7833 30.8267 82.3833 29.68C81.9833 28.5067 81.4233 27.52 80.7033 26.72C80.0099 25.8933 79.1699 25.2667 78.1833 24.84C77.2233 24.4133 76.1699 24.2 75.0233 24.2C73.4766 24.2 72.0233 24.56 70.6633 25.28C69.3299 26 68.2499 27.0667 67.4233 28.48C66.5966 29.8667 66.1833 31.5867 66.1833 33.64ZM71.5833 33.64C71.5833 32.5467 71.8099 31.6267 72.2633 30.88C72.7166 30.1067 73.3166 29.52 74.0633 29.12C74.8099 28.72 75.6366 28.52 76.5433 28.52C77.1033 28.52 77.6633 28.6267 78.2233 28.84C78.7833 29.0533 79.3033 29.3733 79.7833 29.8C80.2633 30.2267 80.6366 30.76 80.9033 31.4C81.1966 32.04 81.3433 32.7867 81.3433 33.64C81.3433 34.4667 81.1966 35.2 80.9033 35.84C80.6366 36.48 80.2633 37.0267 79.7833 37.48C79.3033 37.9067 78.7833 38.2267 78.2233 38.44C77.6633 38.6533 77.1033 38.76 76.5433 38.76C75.6366 38.76 74.8099 38.56 74.0633 38.16C73.3166 37.76 72.7166 37.1867 72.2633 36.44C71.8099 35.6667 71.5833 34.7333 71.5833 33.64Z" fill="#2F2D51"/>
<path d="M1.86394 79.24H8.58394V78.12H1.86394V79.24ZM7.78594 74.2V84H8.97594V74.2H7.78594ZM1.20594 74.2V84H2.39594V74.2H1.20594ZM10.5838 80.78C10.5838 81.424 10.7284 82.0027 11.0177 82.516C11.3164 83.02 11.7178 83.4167 12.2218 83.706C12.7258 83.9953 13.2904 84.14 13.9158 84.14C14.5504 84.14 15.1151 83.9953 15.6098 83.706C16.1138 83.4167 16.5104 83.02 16.7998 82.516C17.0984 82.0027 17.2478 81.424 17.2478 80.78C17.2478 80.1267 17.0984 79.548 16.7998 79.044C16.5104 78.54 16.1138 78.1433 15.6098 77.854C15.1151 77.5647 14.5504 77.42 13.9158 77.42C13.2904 77.42 12.7258 77.5647 12.2218 77.854C11.7178 78.1433 11.3164 78.54 11.0177 79.044C10.7284 79.548 10.5838 80.1267 10.5838 80.78ZM11.7178 80.78C11.7178 80.332 11.8111 79.9353 11.9978 79.59C12.1938 79.2353 12.4551 78.96 12.7818 78.764C13.1178 78.568 13.4958 78.47 13.9158 78.47C14.3358 78.47 14.7091 78.568 15.0358 78.764C15.3718 78.96 15.6331 79.2353 15.8198 79.59C16.0158 79.9353 16.1138 80.332 16.1138 80.78C16.1138 81.228 16.0158 81.6247 15.8198 81.97C15.6331 82.3153 15.3718 82.5907 15.0358 82.796C14.7091 82.992 14.3358 83.09 13.9158 83.09C13.4958 83.09 13.1178 82.992 12.7818 82.796C12.4551 82.5907 12.1938 82.3153 11.9978 81.97C11.8111 81.6247 11.7178 81.228 11.7178 80.78ZM27.6063 79.94C27.6063 79.408 27.5223 78.9553 27.3543 78.582C27.1957 78.1993 26.9623 77.91 26.6543 77.714C26.3463 77.518 25.973 77.42 25.5343 77.42C25.105 77.42 24.7223 77.5227 24.3863 77.728C24.0503 77.924 23.7703 78.2227 23.5463 78.624C23.453 78.3627 23.313 78.1433 23.1263 77.966C22.949 77.7887 22.739 77.6533 22.4963 77.56C22.2537 77.4667 21.983 77.42 21.6843 77.42C21.423 77.42 21.1803 77.462 20.9563 77.546C20.7323 77.6207 20.5317 77.7373 20.3543 77.896C20.1863 78.0547 20.037 78.2553 19.9063 78.498V77.56H18.7863V84H19.9063V80.08C19.9063 79.744 19.967 79.4547 20.0883 79.212C20.2097 78.9693 20.3823 78.7873 20.6063 78.666C20.8303 78.5353 21.0963 78.47 21.4043 78.47C21.6843 78.47 21.913 78.5307 22.0903 78.652C22.277 78.764 22.4123 78.9367 22.4963 79.17C22.5897 79.4033 22.6363 79.7067 22.6363 80.08V84H23.7563V80.08C23.7563 79.744 23.817 79.4547 23.9383 79.212C24.0597 78.9693 24.2323 78.7873 24.4563 78.666C24.6803 78.5353 24.9463 78.47 25.2543 78.47C25.5343 78.47 25.763 78.5307 25.9403 78.652C26.127 78.764 26.2623 78.9367 26.3463 79.17C26.4397 79.4033 26.4863 79.7067 26.4863 80.08V84H27.6063V79.94ZM32.2022 84.14C32.8928 84.14 33.4902 84.0047 33.9942 83.734C34.5075 83.454 34.9322 83.0433 35.2682 82.502L34.3582 81.928C34.1248 82.32 33.8402 82.614 33.5042 82.81C33.1682 82.9967 32.7808 83.09 32.3422 83.09C31.9035 83.09 31.5302 82.9967 31.2222 82.81C30.9142 82.6233 30.6808 82.3527 30.5222 81.998C30.3635 81.6433 30.2842 81.214 30.2842 80.71C30.2842 80.346 30.3308 80.0193 30.4242 79.73C30.5175 79.4407 30.6528 79.198 30.8302 79.002C31.0075 78.806 31.2222 78.6567 31.4742 78.554C31.7355 78.4513 32.0248 78.4 32.3422 78.4C32.7062 78.4 33.0235 78.4793 33.2942 78.638C33.5648 78.7967 33.7748 79.016 33.9242 79.296C34.0828 79.576 34.1622 79.9073 34.1622 80.29C34.1622 80.3553 34.1482 80.4393 34.1202 80.542C34.0922 80.6353 34.0642 80.7053 34.0362 80.752L34.4842 80.108H29.8642V81.06H35.3662C35.3662 81.0413 35.3662 80.9993 35.3662 80.934C35.3755 80.8593 35.3802 80.7893 35.3802 80.724C35.3802 80.0427 35.2588 79.4547 35.0162 78.96C34.7735 78.4653 34.4235 78.0873 33.9662 77.826C33.5182 77.5553 32.9768 77.42 32.3422 77.42C31.8662 77.42 31.4322 77.504 31.0402 77.672C30.6482 77.8307 30.3122 78.0593 30.0322 78.358C29.7522 78.6473 29.5328 78.9973 29.3742 79.408C29.2248 79.8187 29.1502 80.276 29.1502 80.78C29.1502 81.4427 29.2762 82.026 29.5282 82.53C29.7895 83.034 30.1488 83.4307 30.6062 83.72C31.0728 84 31.6048 84.14 32.2022 84.14ZM54.337 74.2L48.667 86.1H49.787L55.457 74.2H54.337ZM70.3119 78.82H71.8939C72.4819 78.82 72.9906 78.736 73.4199 78.568C73.8586 78.4 74.1992 78.1527 74.4419 77.826C74.6846 77.4993 74.8059 77.1073 74.8059 76.65C74.8059 76.23 74.7359 75.866 74.5959 75.558C74.4559 75.25 74.2552 74.998 73.9939 74.802C73.7419 74.5967 73.4386 74.4473 73.0839 74.354C72.7292 74.2513 72.3326 74.2 71.8939 74.2H69.3739V84H72.0339C72.6686 84 73.2332 83.8973 73.7279 83.692C74.2319 83.4773 74.6286 83.16 74.9179 82.74C75.2166 82.3107 75.3659 81.774 75.3659 81.13C75.3659 80.682 75.2819 80.2947 75.1139 79.968C74.9459 79.6413 74.7079 79.3753 74.3999 79.17C74.1012 78.9553 73.7512 78.7967 73.3499 78.694C72.9486 78.5913 72.5099 78.54 72.0339 78.54H70.3119V79.198H72.0339C72.3512 79.198 72.6406 79.24 72.9019 79.324C73.1632 79.3987 73.3872 79.5153 73.5739 79.674C73.7699 79.8327 73.9192 80.0287 74.0219 80.262C74.1246 80.4953 74.1759 80.7613 74.1759 81.06C74.1759 81.4613 74.0826 81.802 73.8959 82.082C73.7186 82.362 73.4666 82.5767 73.1399 82.726C72.8226 82.8753 72.4539 82.95 72.0339 82.95H70.5639V75.25H71.8939C72.3886 75.25 72.7992 75.3807 73.1259 75.642C73.4526 75.894 73.6159 76.2533 73.6159 76.72C73.6159 77.028 73.5412 77.2893 73.3919 77.504C73.2426 77.7187 73.0372 77.882 72.7759 77.994C72.5146 78.106 72.2206 78.162 71.8939 78.162H70.3119V78.82ZM77.1105 73.08V84H78.2305V73.08H77.1105ZM79.7771 80.78C79.7771 81.424 79.9218 82.0027 80.2111 82.516C80.5098 83.02 80.9111 83.4167 81.4151 83.706C81.9191 83.9953 82.4838 84.14 83.1091 84.14C83.7438 84.14 84.3084 83.9953 84.8031 83.706C85.3071 83.4167 85.7038 83.02 85.9931 82.516C86.2918 82.0027 86.4411 81.424 86.4411 80.78C86.4411 80.1267 86.2918 79.548 85.9931 79.044C85.7038 78.54 85.3071 78.1433 84.8031 77.854C84.3084 77.5647 83.7438 77.42 83.1091 77.42C82.4838 77.42 81.9191 77.5647 81.4151 77.854C80.9111 78.1433 80.5098 78.54 80.2111 79.044C79.9218 79.548 79.7771 80.1267 79.7771 80.78ZM80.9111 80.78C80.9111 80.332 81.0044 79.9353 81.1911 79.59C81.3871 79.2353 81.6484 78.96 81.9751 78.764C82.3111 78.568 82.6891 78.47 83.1091 78.47C83.5291 78.47 83.9024 78.568 84.2291 78.764C84.5651 78.96 84.8264 79.2353 85.0131 79.59C85.2091 79.9353 85.3071 80.332 85.3071 80.78C85.3071 81.228 85.2091 81.6247 85.0131 81.97C84.8264 82.3153 84.5651 82.5907 84.2291 82.796C83.9024 82.992 83.5291 83.09 83.1091 83.09C82.6891 83.09 82.3111 82.992 81.9751 82.796C81.6484 82.5907 81.3871 82.3153 81.1911 81.97C81.0044 81.6247 80.9111 81.228 80.9111 80.78ZM87.5457 84.42C87.5457 84.9707 87.681 85.456 87.9517 85.876C88.2224 86.3053 88.5957 86.6367 89.0717 86.87C89.557 87.1033 90.1124 87.22 90.7377 87.22C91.279 87.22 91.7924 87.094 92.2777 86.842C92.763 86.59 93.1597 86.212 93.4677 85.708C93.7757 85.2133 93.9297 84.5973 93.9297 83.86V77.56H92.8097V83.86C92.8097 84.4013 92.7024 84.84 92.4877 85.176C92.2824 85.5213 92.021 85.7733 91.7037 85.932C91.3864 86.0907 91.0644 86.17 90.7377 86.17C90.3177 86.17 89.9537 86.086 89.6457 85.918C89.3377 85.7593 89.0997 85.5447 88.9317 85.274C88.7637 85.0127 88.6797 84.728 88.6797 84.42H87.5457ZM87.4197 80.78C87.4197 81.4707 87.5644 82.068 87.8537 82.572C88.143 83.076 88.5304 83.4633 89.0157 83.734C89.501 84.0047 90.033 84.14 90.6117 84.14C91.013 84.14 91.377 84.0653 91.7037 83.916C92.0397 83.7573 92.3244 83.5333 92.5577 83.244C92.8004 82.9547 92.987 82.6047 93.1177 82.194C93.2484 81.774 93.3137 81.3027 93.3137 80.78C93.3137 80.2573 93.2484 79.7907 93.1177 79.38C92.987 78.96 92.8004 78.6053 92.5577 78.316C92.3244 78.0267 92.0397 77.8073 91.7037 77.658C91.377 77.4993 91.013 77.42 90.6117 77.42C90.033 77.42 89.501 77.5553 89.0157 77.826C88.5304 78.0967 88.143 78.484 87.8537 78.988C87.5644 79.4827 87.4197 80.08 87.4197 80.78ZM88.5537 80.78C88.5537 80.2853 88.6517 79.8653 88.8477 79.52C89.053 79.1747 89.3237 78.9133 89.6597 78.736C89.9957 78.5587 90.3597 78.47 90.7517 78.47C90.9944 78.47 91.237 78.5213 91.4797 78.624C91.7224 78.7267 91.9417 78.876 92.1377 79.072C92.343 79.268 92.5064 79.5107 92.6277 79.8C92.749 80.08 92.8097 80.4067 92.8097 80.78C92.8097 81.1533 92.749 81.4847 92.6277 81.774C92.5064 82.054 92.343 82.292 92.1377 82.488C91.9417 82.684 91.7224 82.8333 91.4797 82.936C91.237 83.0387 90.9944 83.09 90.7517 83.09C90.3597 83.09 89.9957 83.0013 89.6597 82.824C89.3237 82.6467 89.053 82.3853 88.8477 82.04C88.6517 81.6947 88.5537 81.2747 88.5537 80.78Z" fill="#77838F"/>
</svg>
