<svg width="303" height="94" viewBox="0 0 303 94" fill="none" xmlns="http://www.w3.org/2000/svg">
<path d="M7.96906 29C7.96906 27.6133 8.20906 26.36 8.68906 25.24C9.16906 24.12 9.8224 23.1733 10.6491 22.4C11.4757 21.6 12.4224 21 13.4891 20.6C14.5824 20.1733 15.7291 19.96 16.9291 19.96C18.2624 19.96 19.4491 20.1333 20.4891 20.48C21.5557 20.8 22.5024 21.2533 23.3291 21.84C24.1557 22.4267 24.8757 23.08 25.4891 23.8V17.32C24.3424 16.3867 23.1024 15.68 21.7691 15.2C20.4357 14.6933 18.7424 14.44 16.6891 14.44C14.5291 14.44 12.5291 14.8 10.6891 15.52C8.87573 16.2133 7.3024 17.2 5.96906 18.48C4.63573 19.76 3.59573 21.2933 2.84906 23.08C2.12906 24.8667 1.76906 26.84 1.76906 29C1.76906 31.16 2.12906 33.1333 2.84906 34.92C3.59573 36.7067 4.63573 38.24 5.96906 39.52C7.3024 40.7733 8.87573 41.76 10.6891 42.48C12.5291 43.1733 14.5291 43.52 16.6891 43.52C18.7424 43.52 20.4357 43.2667 21.7691 42.76C23.1024 42.2533 24.3424 41.56 25.4891 40.68V34.2C24.8757 34.92 24.1557 35.5733 23.3291 36.16C22.5024 36.72 21.5557 37.1733 20.4891 37.52C19.4491 37.8667 18.2624 38.04 16.9291 38.04C15.7291 38.04 14.5824 37.84 13.4891 37.44C12.4224 37.0133 11.4757 36.4133 10.6491 35.64C9.8224 34.84 9.16906 33.88 8.68906 32.76C8.20906 31.64 7.96906 30.3867 7.96906 29ZM29.4216 33.8C29.4216 35.6933 29.8616 37.3733 30.7416 38.84C31.6482 40.28 32.8616 41.4 34.3816 42.2C35.9282 43 37.6749 43.4 39.6216 43.4C41.5682 43.4 43.3149 43 44.8616 42.2C46.4082 41.4 47.6216 40.28 48.5016 38.84C49.4082 37.3733 49.8616 35.6933 49.8616 33.8C49.8616 31.88 49.4082 30.2 48.5016 28.76C47.6216 27.32 46.4082 26.2 44.8616 25.4C43.3149 24.6 41.5682 24.2 39.6216 24.2C37.6749 24.2 35.9282 24.6 34.3816 25.4C32.8616 26.2 31.6482 27.32 30.7416 28.76C29.8616 30.2 29.4216 31.88 29.4216 33.8ZM34.7416 33.8C34.7416 32.76 34.9549 31.8533 35.3816 31.08C35.8349 30.28 36.4216 29.6667 37.1416 29.24C37.8616 28.8133 38.6882 28.6 39.6216 28.6C40.5282 28.6 41.3416 28.8133 42.0616 29.24C42.8082 29.6667 43.3949 30.28 43.8216 31.08C44.2749 31.88 44.5016 32.7867 44.5016 33.8C44.5016 34.84 44.2749 35.7467 43.8216 36.52C43.3949 37.2933 42.8082 37.9067 42.0616 38.36C41.3416 38.7867 40.5282 39 39.6216 39C38.6882 39 37.8616 38.7867 37.1416 38.36C36.4216 37.9067 35.8349 37.2933 35.3816 36.52C34.9549 35.72 34.7416 34.8133 34.7416 33.8ZM59.1084 35.8V24.6H53.7084V36.32C53.7084 37.7867 53.9484 39.0533 54.4284 40.12C54.9084 41.1867 55.6284 42 56.5884 42.56C57.5484 43.12 58.7484 43.4 60.1884 43.4C61.5218 43.4 62.6418 43.1333 63.5484 42.6C64.4818 42.04 65.2418 41.24 65.8284 40.2V43H70.9884V24.6H65.8284V35.8C65.8284 36.5733 65.6684 37.24 65.3484 37.8C65.0284 38.36 64.5884 38.8 64.0284 39.12C63.4684 39.4133 62.8284 39.56 62.1084 39.56C61.3884 39.56 60.8018 39.4133 60.3484 39.12C59.9218 38.8267 59.6018 38.4 59.3884 37.84C59.2018 37.2533 59.1084 36.5733 59.1084 35.8ZM81.2113 24.6H76.0913V43H81.2113V24.6ZM86.6113 30.04L88.9713 25.6C88.6246 25.1467 88.1446 24.8 87.5313 24.56C86.9179 24.32 86.2779 24.2 85.6113 24.2C84.6246 24.2 83.6779 24.5333 82.7713 25.2C81.8913 25.8667 81.1713 26.7733 80.6113 27.92C80.0513 29.04 79.7713 30.3333 79.7713 31.8L81.2113 33.28C81.2113 32.4 81.3179 31.6533 81.5313 31.04C81.7713 30.4 82.1179 29.9067 82.5713 29.56C83.0246 29.2133 83.5713 29.04 84.2113 29.04C84.7446 29.04 85.1846 29.1333 85.5313 29.32C85.9046 29.48 86.2646 29.72 86.6113 30.04ZM92.5972 36.64L90.0772 39.88C90.7705 40.5467 91.5439 41.1733 92.3972 41.76C93.2772 42.32 94.2639 42.7733 95.3572 43.12C96.4505 43.4667 97.6505 43.64 98.9572 43.64C100.371 43.64 101.571 43.4133 102.557 42.96C103.571 42.48 104.344 41.8133 104.877 40.96C105.411 40.08 105.677 39.0267 105.677 37.8C105.677 36.68 105.424 35.7733 104.917 35.08C104.437 34.3867 103.784 33.8133 102.957 33.36C102.131 32.88 101.224 32.4533 100.237 32.08C99.4105 31.76 98.6772 31.48 98.0372 31.24C97.4239 30.9733 96.9439 30.6933 96.5972 30.4C96.2505 30.1067 96.0772 29.7467 96.0772 29.32C96.0772 28.8933 96.2505 28.56 96.5972 28.32C96.9439 28.08 97.4105 27.96 97.9972 27.96C98.8505 27.96 99.7439 28.2 100.677 28.68C101.611 29.1333 102.411 29.72 103.077 30.44L105.357 27.16C104.744 26.6 104.051 26.1067 103.277 25.68C102.504 25.2267 101.664 24.8667 100.757 24.6C99.8505 24.3333 98.8772 24.2 97.8372 24.2C96.6105 24.2 95.5039 24.4 94.5172 24.8C93.5305 25.1733 92.7439 25.7467 92.1572 26.52C91.5705 27.2667 91.2772 28.2 91.2772 29.32C91.2772 30.4667 91.5305 31.4133 92.0372 32.16C92.5439 32.88 93.1972 33.4667 93.9972 33.92C94.8239 34.3467 95.6505 34.7067 96.4772 35C97.3839 35.2933 98.1305 35.5867 98.7172 35.88C99.3039 36.1467 99.7439 36.4533 100.037 36.8C100.331 37.12 100.477 37.5067 100.477 37.96C100.477 38.4667 100.291 38.88 99.9172 39.2C99.5705 39.4933 99.0505 39.64 98.3572 39.64C97.8239 39.64 97.2639 39.5467 96.6772 39.36C96.0905 39.1467 95.4505 38.8267 94.7572 38.4C94.0905 37.9467 93.3705 37.36 92.5972 36.64ZM118.014 43.4C120.254 43.4 122.161 42.9733 123.734 42.12C125.308 41.24 126.574 39.9333 127.534 38.2L122.974 36.76C122.468 37.6667 121.788 38.3467 120.934 38.8C120.108 39.2267 119.134 39.44 118.014 39.44C117.001 39.44 116.134 39.2133 115.414 38.76C114.721 38.3067 114.188 37.6533 113.814 36.8C113.441 35.92 113.268 34.88 113.294 33.68C113.294 32.6933 113.388 31.8533 113.574 31.16C113.788 30.44 114.094 29.8267 114.494 29.32C114.894 28.8133 115.374 28.4533 115.934 28.24C116.521 28 117.188 27.88 117.934 27.88C118.761 27.88 119.481 28.0667 120.094 28.44C120.708 28.7867 121.174 29.28 121.494 29.92C121.841 30.56 122.014 31.3333 122.014 32.24C122.014 32.4267 121.961 32.6533 121.854 32.92C121.774 33.1867 121.668 33.4133 121.534 33.6L122.974 31.76H111.054V34.92H127.534C127.534 34.76 127.548 34.56 127.574 34.32C127.601 34.08 127.614 33.8267 127.614 33.56C127.614 31.5867 127.228 29.9067 126.454 28.52C125.708 27.1067 124.614 26.04 123.174 25.32C121.761 24.5733 120.041 24.2 118.014 24.2C116.468 24.2 115.081 24.4267 113.854 24.88C112.628 25.3067 111.574 25.9467 110.694 26.8C109.841 27.6267 109.188 28.64 108.734 29.84C108.281 31.0133 108.054 32.3333 108.054 33.8C108.054 35.7467 108.454 37.44 109.254 38.88C110.081 40.32 111.241 41.44 112.734 42.24C114.228 43.0133 115.988 43.4 118.014 43.4ZM132.402 36.64L129.882 39.88C130.575 40.5467 131.349 41.1733 132.202 41.76C133.082 42.32 134.069 42.7733 135.162 43.12C136.255 43.4667 137.455 43.64 138.762 43.64C140.175 43.64 141.375 43.4133 142.362 42.96C143.375 42.48 144.149 41.8133 144.682 40.96C145.215 40.08 145.482 39.0267 145.482 37.8C145.482 36.68 145.229 35.7733 144.722 35.08C144.242 34.3867 143.589 33.8133 142.762 33.36C141.935 32.88 141.029 32.4533 140.042 32.08C139.215 31.76 138.482 31.48 137.842 31.24C137.229 30.9733 136.749 30.6933 136.402 30.4C136.055 30.1067 135.882 29.7467 135.882 29.32C135.882 28.8933 136.055 28.56 136.402 28.32C136.749 28.08 137.215 27.96 137.802 27.96C138.655 27.96 139.549 28.2 140.482 28.68C141.415 29.1333 142.215 29.72 142.882 30.44L145.162 27.16C144.549 26.6 143.855 26.1067 143.082 25.68C142.309 25.2267 141.469 24.8667 140.562 24.6C139.655 24.3333 138.682 24.2 137.642 24.2C136.415 24.2 135.309 24.4 134.322 24.8C133.335 25.1733 132.549 25.7467 131.962 26.52C131.375 27.2667 131.082 28.2 131.082 29.32C131.082 30.4667 131.335 31.4133 131.842 32.16C132.349 32.88 133.002 33.4667 133.802 33.92C134.629 34.3467 135.455 34.7067 136.282 35C137.189 35.2933 137.935 35.5867 138.522 35.88C139.109 36.1467 139.549 36.4533 139.842 36.8C140.135 37.12 140.282 37.5067 140.282 37.96C140.282 38.4667 140.095 38.88 139.722 39.2C139.375 39.4933 138.855 39.64 138.162 39.64C137.629 39.64 137.069 39.5467 136.482 39.36C135.895 39.1467 135.255 38.8267 134.562 38.4C133.895 37.9467 133.175 37.36 132.402 36.64ZM175.171 32.6H183.171C182.931 33.4267 182.585 34.2133 182.131 34.96C181.705 35.68 181.158 36.32 180.491 36.88C179.825 37.4133 179.038 37.84 178.131 38.16C177.251 38.4533 176.238 38.6 175.091 38.6C173.785 38.6 172.571 38.3733 171.451 37.92C170.358 37.4667 169.398 36.8267 168.571 36C167.745 35.1467 167.105 34.1333 166.651 32.96C166.198 31.7867 165.971 30.4667 165.971 29C165.971 27.5333 166.198 26.2267 166.651 25.08C167.131 23.9067 167.785 22.9067 168.611 22.08C169.465 21.2533 170.438 20.6267 171.531 20.2C172.651 19.7733 173.838 19.56 175.091 19.56C176.905 19.56 178.411 19.96 179.611 20.76C180.838 21.5333 181.811 22.52 182.531 23.72L187.451 20.84C186.598 19.5333 185.571 18.4133 184.371 17.48C183.171 16.52 181.798 15.7733 180.251 15.24C178.705 14.7067 176.985 14.44 175.091 14.44C172.905 14.44 170.891 14.7867 169.051 15.48C167.211 16.1733 165.611 17.16 164.251 18.44C162.891 19.72 161.838 21.2533 161.091 23.04C160.371 24.8267 160.011 26.8133 160.011 29C160.011 31.16 160.371 33.1467 161.091 34.96C161.811 36.7733 162.838 38.3333 164.171 39.64C165.505 40.9467 167.078 41.96 168.891 42.68C170.731 43.3733 172.745 43.72 174.931 43.72C177.251 43.72 179.305 43.3067 181.091 42.48C182.878 41.6533 184.371 40.52 185.571 39.08C186.771 37.64 187.665 35.9733 188.251 34.08C188.838 32.1867 189.091 30.1733 189.011 28.04H175.171V32.6ZM198.282 24.6H193.162V43H198.282V24.6ZM203.682 30.04L206.042 25.6C205.695 25.1467 205.215 24.8 204.602 24.56C203.988 24.32 203.348 24.2 202.682 24.2C201.695 24.2 200.748 24.5333 199.842 25.2C198.962 25.8667 198.242 26.7733 197.682 27.92C197.122 29.04 196.842 30.3333 196.842 31.8L198.282 33.28C198.282 32.4 198.388 31.6533 198.602 31.04C198.842 30.4 199.188 29.9067 199.642 29.56C200.095 29.2133 200.642 29.04 201.282 29.04C201.815 29.04 202.255 29.1333 202.602 29.32C202.975 29.48 203.335 29.72 203.682 30.04ZM208.548 17.48C208.548 18.3067 208.841 19 209.428 19.56C210.014 20.12 210.748 20.4 211.628 20.4C212.508 20.4 213.241 20.12 213.828 19.56C214.441 19 214.748 18.3067 214.748 17.48C214.748 16.6267 214.441 15.92 213.828 15.36C213.241 14.8 212.508 14.52 211.628 14.52C210.748 14.52 210.014 14.8 209.428 15.36C208.841 15.92 208.548 16.6267 208.548 17.48ZM209.108 24.6V43H214.108V24.6H209.108ZM233.527 11.8V43H238.727V11.8H233.527ZM218.367 33.8C218.367 35.8267 218.78 37.56 219.607 39C220.434 40.44 221.514 41.5333 222.847 42.28C224.207 43.0267 225.66 43.4 227.207 43.4C228.354 43.4 229.407 43.1867 230.367 42.76C231.354 42.3067 232.194 41.6667 232.887 40.84C233.607 40.0133 234.154 39.0133 234.527 37.84C234.927 36.64 235.127 35.2933 235.127 33.8C235.127 32.3067 234.927 30.9733 234.527 29.8C234.154 28.6 233.607 27.5867 232.887 26.76C232.194 25.9333 231.354 25.3067 230.367 24.88C229.407 24.4267 228.354 24.2 227.207 24.2C225.66 24.2 224.207 24.5733 222.847 25.32C221.514 26.0667 220.434 27.16 219.607 28.6C218.78 30.0133 218.367 31.7467 218.367 33.8ZM223.767 33.8C223.767 32.7067 223.994 31.7733 224.447 31C224.9 30.2 225.5 29.5867 226.247 29.16C226.994 28.7333 227.82 28.52 228.727 28.52C229.287 28.52 229.847 28.64 230.407 28.88C230.967 29.12 231.487 29.4667 231.967 29.92C232.447 30.3467 232.82 30.8933 233.087 31.56C233.38 32.2 233.527 32.9333 233.527 33.76C233.527 34.6133 233.38 35.3733 233.087 36.04C232.82 36.7067 232.447 37.2667 231.967 37.72C231.487 38.1467 230.967 38.48 230.407 38.72C229.847 38.96 229.287 39.08 228.727 39.08C227.82 39.08 226.994 38.8667 226.247 38.44C225.5 38.0133 224.9 37.4133 224.447 36.64C223.994 35.84 223.767 34.8933 223.767 33.8ZM260.302 29C260.302 27.5867 260.435 26.3067 260.702 25.16C260.968 23.9867 261.342 22.9867 261.822 22.16C262.302 21.3333 262.902 20.6933 263.622 20.24C264.342 19.7867 265.128 19.56 265.982 19.56C266.675 19.56 267.315 19.7067 267.902 20C268.488 20.2933 269.008 20.72 269.462 21.28C269.942 21.8133 270.342 22.4667 270.662 23.24C270.982 23.9867 271.222 24.8533 271.382 25.84C271.568 26.8 271.662 27.8533 271.662 29C271.662 30.4133 271.528 31.7067 271.262 32.88C270.995 34.0267 270.608 35.0133 270.102 35.84C269.622 36.6667 269.022 37.3067 268.302 37.76C267.608 38.2133 266.835 38.44 265.982 38.44C265.262 38.44 264.608 38.3067 264.022 38.04C263.435 37.7467 262.915 37.32 262.462 36.76C262.008 36.2 261.622 35.5467 261.302 34.8C260.982 34.0267 260.728 33.16 260.542 32.2C260.382 31.2133 260.302 30.1467 260.302 29ZM254.702 29C254.702 30.76 254.875 32.4 255.222 33.92C255.568 35.4133 256.062 36.76 256.702 37.96C257.368 39.1333 258.168 40.1333 259.102 40.96C260.035 41.76 261.075 42.3867 262.222 42.84C263.395 43.2667 264.648 43.48 265.982 43.48C267.688 43.48 269.235 43.1467 270.622 42.48C272.035 41.8133 273.235 40.8533 274.222 39.6C275.208 38.32 275.955 36.7867 276.462 35C276.995 33.2133 277.262 31.2133 277.262 29C277.262 27.2133 277.088 25.5733 276.742 24.08C276.422 22.5867 275.928 21.2533 275.262 20.08C274.622 18.88 273.835 17.88 272.902 17.08C271.995 16.2533 270.955 15.6267 269.782 15.2C268.635 14.7467 267.368 14.52 265.982 14.52C264.302 14.52 262.768 14.8533 261.382 15.52C259.995 16.1867 258.808 17.16 257.822 18.44C256.835 19.6933 256.062 21.2133 255.502 23C254.968 24.7867 254.702 26.7867 254.702 29ZM289.525 29.32C291.098 29.32 292.551 29.1733 293.885 28.88C295.218 28.56 296.378 28.0933 297.365 27.48C298.378 26.8667 299.165 26.12 299.725 25.24C300.285 24.36 300.565 23.3333 300.565 22.16C300.565 20.7733 300.205 19.5067 299.485 18.36C298.765 17.1867 297.711 16.2533 296.325 15.56C294.965 14.8667 293.311 14.52 291.365 14.52C289.525 14.52 287.898 14.88 286.485 15.6C285.098 16.32 284.018 17.3067 283.245 18.56C282.471 19.8133 282.085 21.24 282.085 22.84H287.405C287.405 22.1467 287.578 21.5333 287.925 21C288.271 20.44 288.738 20.0133 289.325 19.72C289.938 19.4 290.618 19.24 291.365 19.24C292.138 19.24 292.778 19.3733 293.285 19.64C293.818 19.9067 294.205 20.2933 294.445 20.8C294.711 21.28 294.845 21.8533 294.845 22.52C294.845 23.0533 294.725 23.5733 294.485 24.08C294.245 24.56 293.885 25 293.405 25.4C292.951 25.7733 292.391 26.0667 291.725 26.28C291.085 26.4933 290.351 26.6 289.525 26.6V29.32ZM291.085 43.52C293.191 43.52 295.005 43.1867 296.525 42.52C298.071 41.8533 299.258 40.9067 300.085 39.68C300.938 38.4533 301.365 37.04 301.365 35.44C301.365 34.0267 301.071 32.8267 300.485 31.84C299.898 30.8267 299.071 30 298.005 29.36C296.938 28.72 295.685 28.2533 294.245 27.96C292.805 27.64 291.231 27.48 289.525 27.48V30.52C290.511 30.52 291.378 30.6267 292.125 30.84C292.898 31.0267 293.538 31.3067 294.045 31.68C294.578 32.0533 294.978 32.5067 295.245 33.04C295.511 33.5733 295.645 34.1733 295.645 34.84C295.645 35.6933 295.458 36.4267 295.085 37.04C294.711 37.6267 294.191 38.0667 293.525 38.36C292.885 38.6533 292.138 38.8 291.285 38.8C290.431 38.8 289.645 38.64 288.925 38.32C288.205 37.9733 287.631 37.4933 287.205 36.88C286.778 36.24 286.565 35.4667 286.565 34.56H280.885C280.885 35.76 281.111 36.9067 281.565 38C282.045 39.0667 282.725 40.0267 283.605 40.88C284.485 41.7067 285.551 42.36 286.805 42.84C288.058 43.2933 289.485 43.52 291.085 43.52Z" fill="#2F2D51"/>
<path d="M70.071 79.24H76.791V78.12H70.071V79.24ZM75.993 74.2V84H77.183V74.2H75.993ZM69.413 74.2V84H70.603V74.2H69.413ZM78.7908 80.78C78.7908 81.424 78.9354 82.0027 79.2248 82.516C79.5234 83.02 79.9248 83.4167 80.4288 83.706C80.9328 83.9953 81.4974 84.14 82.1228 84.14C82.7574 84.14 83.3221 83.9953 83.8168 83.706C84.3208 83.4167 84.7174 83.02 85.0068 82.516C85.3054 82.0027 85.4548 81.424 85.4548 80.78C85.4548 80.1267 85.3054 79.548 85.0068 79.044C84.7174 78.54 84.3208 78.1433 83.8168 77.854C83.3221 77.5647 82.7574 77.42 82.1228 77.42C81.4974 77.42 80.9328 77.5647 80.4288 77.854C79.9248 78.1433 79.5234 78.54 79.2248 79.044C78.9354 79.548 78.7908 80.1267 78.7908 80.78ZM79.9248 80.78C79.9248 80.332 80.0181 79.9353 80.2048 79.59C80.4008 79.2353 80.6621 78.96 80.9888 78.764C81.3248 78.568 81.7028 78.47 82.1228 78.47C82.5428 78.47 82.9161 78.568 83.2428 78.764C83.5788 78.96 83.8401 79.2353 84.0268 79.59C84.2228 79.9353 84.3208 80.332 84.3208 80.78C84.3208 81.228 84.2228 81.6247 84.0268 81.97C83.8401 82.3153 83.5788 82.5907 83.2428 82.796C82.9161 82.992 82.5428 83.09 82.1228 83.09C81.7028 83.09 81.3248 82.992 80.9888 82.796C80.6621 82.5907 80.4008 82.3153 80.2048 81.97C80.0181 81.6247 79.9248 81.228 79.9248 80.78ZM95.8134 79.94C95.8134 79.408 95.7294 78.9553 95.5614 78.582C95.4027 78.1993 95.1694 77.91 94.8614 77.714C94.5534 77.518 94.18 77.42 93.7414 77.42C93.312 77.42 92.9294 77.5227 92.5934 77.728C92.2574 77.924 91.9774 78.2227 91.7534 78.624C91.66 78.3627 91.52 78.1433 91.3334 77.966C91.156 77.7887 90.946 77.6533 90.7034 77.56C90.4607 77.4667 90.19 77.42 89.8914 77.42C89.63 77.42 89.3874 77.462 89.1634 77.546C88.9394 77.6207 88.7387 77.7373 88.5614 77.896C88.3934 78.0547 88.244 78.2553 88.1134 78.498V77.56H86.9934V84H88.1134V80.08C88.1134 79.744 88.174 79.4547 88.2954 79.212C88.4167 78.9693 88.5894 78.7873 88.8134 78.666C89.0374 78.5353 89.3034 78.47 89.6114 78.47C89.8914 78.47 90.12 78.5307 90.2974 78.652C90.484 78.764 90.6194 78.9367 90.7034 79.17C90.7967 79.4033 90.8434 79.7067 90.8434 80.08V84H91.9634V80.08C91.9634 79.744 92.024 79.4547 92.1454 79.212C92.2667 78.9693 92.4394 78.7873 92.6634 78.666C92.8874 78.5353 93.1534 78.47 93.4614 78.47C93.7414 78.47 93.97 78.5307 94.1474 78.652C94.334 78.764 94.4694 78.9367 94.5534 79.17C94.6467 79.4033 94.6934 79.7067 94.6934 80.08V84H95.8134V79.94ZM100.409 84.14C101.1 84.14 101.697 84.0047 102.201 83.734C102.715 83.454 103.139 83.0433 103.475 82.502L102.565 81.928C102.332 82.32 102.047 82.614 101.711 82.81C101.375 82.9967 100.988 83.09 100.549 83.09C100.111 83.09 99.7372 82.9967 99.4292 82.81C99.1212 82.6233 98.8879 82.3527 98.7292 81.998C98.5705 81.6433 98.4912 81.214 98.4912 80.71C98.4912 80.346 98.5379 80.0193 98.6312 79.73C98.7245 79.4407 98.8599 79.198 99.0372 79.002C99.2145 78.806 99.4292 78.6567 99.6812 78.554C99.9425 78.4513 100.232 78.4 100.549 78.4C100.913 78.4 101.231 78.4793 101.501 78.638C101.772 78.7967 101.982 79.016 102.131 79.296C102.29 79.576 102.369 79.9073 102.369 80.29C102.369 80.3553 102.355 80.4393 102.327 80.542C102.299 80.6353 102.271 80.7053 102.243 80.752L102.691 80.108H98.0712V81.06H103.573C103.573 81.0413 103.573 80.9993 103.573 80.934C103.583 80.8593 103.587 80.7893 103.587 80.724C103.587 80.0427 103.466 79.4547 103.223 78.96C102.981 78.4653 102.631 78.0873 102.173 77.826C101.725 77.5553 101.184 77.42 100.549 77.42C100.073 77.42 99.6392 77.504 99.2472 77.672C98.8552 77.8307 98.5192 78.0593 98.2392 78.358C97.9592 78.6473 97.7399 78.9973 97.5812 79.408C97.4319 79.8187 97.3572 80.276 97.3572 80.78C97.3572 81.4427 97.4832 82.026 97.7352 82.53C97.9965 83.034 98.3559 83.4307 98.8132 83.72C99.2799 84 99.8119 84.14 100.409 84.14ZM122.544 74.2L116.874 86.1H117.994L123.664 74.2H122.544ZM138.281 79.1C138.281 78.5307 138.379 78.0127 138.575 77.546C138.771 77.07 139.037 76.664 139.373 76.328C139.718 75.9827 140.106 75.7167 140.535 75.53C140.974 75.3433 141.436 75.25 141.921 75.25C142.388 75.25 142.812 75.3107 143.195 75.432C143.587 75.5533 143.942 75.726 144.259 75.95C144.576 76.1647 144.847 76.4167 145.071 76.706V75.138C144.66 74.774 144.212 74.5033 143.727 74.326C143.242 74.1487 142.64 74.06 141.921 74.06C141.24 74.06 140.6 74.186 140.003 74.438C139.415 74.6807 138.897 75.0307 138.449 75.488C138.001 75.936 137.651 76.468 137.399 77.084C137.147 77.7 137.021 78.372 137.021 79.1C137.021 79.828 137.147 80.5 137.399 81.116C137.651 81.732 138.001 82.2687 138.449 82.726C138.897 83.174 139.415 83.524 140.003 83.776C140.6 84.0187 141.24 84.14 141.921 84.14C142.64 84.14 143.242 84.0513 143.727 83.874C144.212 83.6967 144.66 83.426 145.071 83.062V81.494C144.847 81.7833 144.576 82.04 144.259 82.264C143.942 82.4787 143.587 82.6467 143.195 82.768C142.812 82.8893 142.388 82.95 141.921 82.95C141.436 82.95 140.974 82.8567 140.535 82.67C140.106 82.4833 139.718 82.222 139.373 81.886C139.037 81.5407 138.771 81.1347 138.575 80.668C138.379 80.192 138.281 79.6693 138.281 79.1ZM146.535 80.78C146.535 81.424 146.68 82.0027 146.969 82.516C147.268 83.02 147.669 83.4167 148.173 83.706C148.677 83.9953 149.242 84.14 149.867 84.14C150.502 84.14 151.066 83.9953 151.561 83.706C152.065 83.4167 152.462 83.02 152.751 82.516C153.05 82.0027 153.199 81.424 153.199 80.78C153.199 80.1267 153.05 79.548 152.751 79.044C152.462 78.54 152.065 78.1433 151.561 77.854C151.066 77.5647 150.502 77.42 149.867 77.42C149.242 77.42 148.677 77.5647 148.173 77.854C147.669 78.1433 147.268 78.54 146.969 79.044C146.68 79.548 146.535 80.1267 146.535 80.78ZM147.669 80.78C147.669 80.332 147.762 79.9353 147.949 79.59C148.145 79.2353 148.406 78.96 148.733 78.764C149.069 78.568 149.447 78.47 149.867 78.47C150.287 78.47 150.66 78.568 150.987 78.764C151.323 78.96 151.584 79.2353 151.771 79.59C151.967 79.9353 152.065 80.332 152.065 80.78C152.065 81.228 151.967 81.6247 151.771 81.97C151.584 82.3153 151.323 82.5907 150.987 82.796C150.66 82.992 150.287 83.09 149.867 83.09C149.447 83.09 149.069 82.992 148.733 82.796C148.406 82.5907 148.145 82.3153 147.949 81.97C147.762 81.6247 147.669 81.228 147.669 80.78ZM155.858 81.48V77.56H154.738V81.62C154.738 82.1333 154.826 82.5813 155.004 82.964C155.19 83.3373 155.447 83.6267 155.774 83.832C156.11 84.0373 156.502 84.14 156.95 84.14C157.379 84.14 157.752 84.0467 158.07 83.86C158.387 83.664 158.653 83.3747 158.868 82.992V84H159.988V77.56H158.868V81.48C158.868 81.7973 158.798 82.0773 158.658 82.32C158.527 82.5627 158.336 82.754 158.084 82.894C157.841 83.0247 157.556 83.09 157.23 83.09C156.931 83.09 156.679 83.0293 156.474 82.908C156.268 82.7773 156.114 82.5953 156.012 82.362C155.909 82.1193 155.858 81.8253 155.858 81.48ZM163.213 77.56H162.093V84H163.213V77.56ZM165.159 78.792L165.775 77.868C165.607 77.6907 165.42 77.574 165.215 77.518C165.019 77.4527 164.804 77.42 164.571 77.42C164.272 77.42 163.978 77.5367 163.689 77.77C163.4 78.0033 163.162 78.3207 162.975 78.722C162.798 79.114 162.709 79.5667 162.709 80.08H163.213C163.213 79.772 163.241 79.4967 163.297 79.254C163.362 79.0113 163.474 78.82 163.633 78.68C163.792 78.54 164.011 78.47 164.291 78.47C164.478 78.47 164.632 78.498 164.753 78.554C164.874 78.6007 165.01 78.68 165.159 78.792ZM167.158 82.026L166.276 82.572C166.397 82.824 166.574 83.0713 166.808 83.314C167.05 83.5567 167.344 83.7573 167.69 83.916C168.035 84.0653 168.422 84.14 168.852 84.14C169.29 84.14 169.673 84.056 170 83.888C170.336 83.7107 170.597 83.4773 170.784 83.188C170.97 82.8893 171.064 82.5533 171.064 82.18C171.064 81.7973 170.97 81.4847 170.784 81.242C170.606 80.9993 170.364 80.794 170.056 80.626C169.748 80.4487 169.407 80.2853 169.034 80.136C168.81 80.0427 168.595 79.9447 168.39 79.842C168.184 79.7393 168.016 79.6227 167.886 79.492C167.755 79.3613 167.69 79.212 167.69 79.044C167.69 78.8293 167.774 78.6707 167.942 78.568C168.11 78.4653 168.31 78.414 168.544 78.414C168.88 78.414 169.178 78.4933 169.44 78.652C169.71 78.8107 169.934 79.0113 170.112 79.254L171.008 78.68C170.877 78.4373 170.695 78.2227 170.462 78.036C170.228 77.8493 169.958 77.7 169.65 77.588C169.351 77.476 169.029 77.42 168.684 77.42C168.338 77.42 168.002 77.4807 167.676 77.602C167.358 77.7233 167.097 77.91 166.892 78.162C166.696 78.414 166.598 78.7313 166.598 79.114C166.598 79.4873 166.691 79.8 166.878 80.052C167.074 80.2947 167.312 80.4953 167.592 80.654C167.881 80.8033 168.166 80.934 168.446 81.046C168.698 81.1393 168.936 81.242 169.16 81.354C169.384 81.4567 169.566 81.5873 169.706 81.746C169.855 81.8953 169.93 82.082 169.93 82.306C169.93 82.558 169.836 82.7587 169.65 82.908C169.472 83.048 169.225 83.118 168.908 83.118C168.646 83.118 168.404 83.0713 168.18 82.978C167.965 82.8753 167.774 82.74 167.606 82.572C167.438 82.404 167.288 82.222 167.158 82.026ZM175.03 84.14C175.721 84.14 176.318 84.0047 176.822 83.734C177.336 83.454 177.76 83.0433 178.096 82.502L177.186 81.928C176.953 82.32 176.668 82.614 176.332 82.81C175.996 82.9967 175.609 83.09 175.17 83.09C174.732 83.09 174.358 82.9967 174.05 82.81C173.742 82.6233 173.509 82.3527 173.35 81.998C173.192 81.6433 173.112 81.214 173.112 80.71C173.112 80.346 173.159 80.0193 173.252 79.73C173.346 79.4407 173.481 79.198 173.658 79.002C173.836 78.806 174.05 78.6567 174.302 78.554C174.564 78.4513 174.853 78.4 175.17 78.4C175.534 78.4 175.852 78.4793 176.122 78.638C176.393 78.7967 176.603 79.016 176.752 79.296C176.911 79.576 176.99 79.9073 176.99 80.29C176.99 80.3553 176.976 80.4393 176.948 80.542C176.92 80.6353 176.892 80.7053 176.864 80.752L177.312 80.108H172.692V81.06H178.194C178.194 81.0413 178.194 80.9993 178.194 80.934C178.204 80.8593 178.208 80.7893 178.208 80.724C178.208 80.0427 178.087 79.4547 177.844 78.96C177.602 78.4653 177.252 78.0873 176.794 77.826C176.346 77.5553 175.805 77.42 175.17 77.42C174.694 77.42 174.26 77.504 173.868 77.672C173.476 77.8307 173.14 78.0593 172.86 78.358C172.58 78.6473 172.361 78.9973 172.202 79.408C172.053 79.8187 171.978 80.276 171.978 80.78C171.978 81.4427 172.104 82.026 172.356 82.53C172.618 83.034 172.977 83.4307 173.434 83.72C173.901 84 174.433 84.14 175.03 84.14ZM180.009 82.026L179.127 82.572C179.249 82.824 179.426 83.0713 179.659 83.314C179.902 83.5567 180.196 83.7573 180.541 83.916C180.887 84.0653 181.274 84.14 181.703 84.14C182.142 84.14 182.525 84.056 182.851 83.888C183.187 83.7107 183.449 83.4773 183.635 83.188C183.822 82.8893 183.915 82.5533 183.915 82.18C183.915 81.7973 183.822 81.4847 183.635 81.242C183.458 80.9993 183.215 80.794 182.907 80.626C182.599 80.4487 182.259 80.2853 181.885 80.136C181.661 80.0427 181.447 79.9447 181.241 79.842C181.036 79.7393 180.868 79.6227 180.737 79.492C180.607 79.3613 180.541 79.212 180.541 79.044C180.541 78.8293 180.625 78.6707 180.793 78.568C180.961 78.4653 181.162 78.414 181.395 78.414C181.731 78.414 182.03 78.4933 182.291 78.652C182.562 78.8107 182.786 79.0113 182.963 79.254L183.859 78.68C183.729 78.4373 183.547 78.2227 183.313 78.036C183.08 77.8493 182.809 77.7 182.501 77.588C182.203 77.476 181.881 77.42 181.535 77.42C181.19 77.42 180.854 77.4807 180.527 77.602C180.21 77.7233 179.949 77.91 179.743 78.162C179.547 78.414 179.449 78.7313 179.449 79.114C179.449 79.4873 179.543 79.8 179.729 80.052C179.925 80.2947 180.163 80.4953 180.443 80.654C180.733 80.8033 181.017 80.934 181.297 81.046C181.549 81.1393 181.787 81.242 182.011 81.354C182.235 81.4567 182.417 81.5873 182.557 81.746C182.707 81.8953 182.781 82.082 182.781 82.306C182.781 82.558 182.688 82.7587 182.501 82.908C182.324 83.048 182.077 83.118 181.759 83.118C181.498 83.118 181.255 83.0713 181.031 82.978C180.817 82.8753 180.625 82.74 180.457 82.572C180.289 82.404 180.14 82.222 180.009 82.026ZM194.207 80.15H197.469C197.385 80.5327 197.25 80.892 197.063 81.228C196.886 81.564 196.657 81.8627 196.377 82.124C196.097 82.3853 195.761 82.5907 195.369 82.74C194.986 82.88 194.552 82.95 194.067 82.95C193.554 82.95 193.068 82.8567 192.611 82.67C192.163 82.4833 191.771 82.222 191.435 81.886C191.099 81.5407 190.833 81.1347 190.637 80.668C190.45 80.192 190.357 79.6693 190.357 79.1C190.357 78.5307 190.45 78.0127 190.637 77.546C190.833 77.07 191.099 76.664 191.435 76.328C191.771 75.9827 192.163 75.7167 192.611 75.53C193.068 75.3433 193.554 75.25 194.067 75.25C194.814 75.25 195.462 75.3993 196.013 75.698C196.564 75.9873 196.993 76.3933 197.301 76.916L198.141 76.146C197.861 75.6887 197.516 75.306 197.105 74.998C196.704 74.69 196.246 74.4567 195.733 74.298C195.229 74.1393 194.674 74.06 194.067 74.06C193.358 74.06 192.7 74.186 192.093 74.438C191.486 74.6807 190.959 75.0307 190.511 75.488C190.063 75.936 189.713 76.468 189.461 77.084C189.218 77.7 189.097 78.372 189.097 79.1C189.097 79.828 189.218 80.5 189.461 81.116C189.713 81.732 190.063 82.2687 190.511 82.726C190.959 83.174 191.486 83.524 192.093 83.776C192.7 84.0187 193.358 84.14 194.067 84.14C194.814 84.14 195.476 84.0047 196.055 83.734C196.643 83.454 197.138 83.076 197.539 82.6C197.94 82.124 198.244 81.5827 198.449 80.976C198.654 80.36 198.757 79.7113 198.757 79.03H194.207V80.15ZM201.563 77.56H200.443V84H201.563V77.56ZM203.509 78.792L204.125 77.868C203.957 77.6907 203.77 77.574 203.565 77.518C203.369 77.4527 203.154 77.42 202.921 77.42C202.622 77.42 202.328 77.5367 202.039 77.77C201.749 78.0033 201.511 78.3207 201.325 78.722C201.147 79.114 201.059 79.5667 201.059 80.08H201.563C201.563 79.772 201.591 79.4967 201.647 79.254C201.712 79.0113 201.824 78.82 201.983 78.68C202.141 78.54 202.361 78.47 202.641 78.47C202.827 78.47 202.981 78.498 203.103 78.554C203.224 78.6007 203.359 78.68 203.509 78.792ZM205.241 74.9C205.241 75.1053 205.316 75.2873 205.465 75.446C205.624 75.5953 205.806 75.67 206.011 75.67C206.226 75.67 206.408 75.5953 206.557 75.446C206.707 75.2873 206.781 75.1053 206.781 74.9C206.781 74.6853 206.707 74.5033 206.557 74.354C206.408 74.2047 206.226 74.13 206.011 74.13C205.806 74.13 205.624 74.2047 205.465 74.354C205.316 74.5033 205.241 74.6853 205.241 74.9ZM205.451 77.56V84H206.571V77.56H205.451ZM213.708 73.08V84H214.828V73.08H213.708ZM208.318 80.78C208.318 81.4707 208.463 82.068 208.752 82.572C209.041 83.076 209.429 83.4633 209.914 83.734C210.399 84.0047 210.931 84.14 211.51 84.14C211.911 84.14 212.275 84.0653 212.602 83.916C212.938 83.7573 213.223 83.5333 213.456 83.244C213.699 82.9547 213.885 82.6047 214.016 82.194C214.147 81.774 214.212 81.3027 214.212 80.78C214.212 80.2573 214.147 79.7907 214.016 79.38C213.885 78.96 213.699 78.6053 213.456 78.316C213.223 78.0267 212.938 77.8073 212.602 77.658C212.275 77.4993 211.911 77.42 211.51 77.42C210.931 77.42 210.399 77.5553 209.914 77.826C209.429 78.0967 209.041 78.484 208.752 78.988C208.463 79.4827 208.318 80.08 208.318 80.78ZM209.452 80.78C209.452 80.2853 209.55 79.8653 209.746 79.52C209.951 79.1747 210.222 78.9133 210.558 78.736C210.894 78.5587 211.258 78.47 211.65 78.47C211.893 78.47 212.135 78.5213 212.378 78.624C212.621 78.7267 212.84 78.876 213.036 79.072C213.241 79.268 213.405 79.5107 213.526 79.8C213.647 80.08 213.708 80.4067 213.708 80.78C213.708 81.1533 213.647 81.4847 213.526 81.774C213.405 82.054 213.241 82.292 213.036 82.488C212.84 82.684 212.621 82.8333 212.378 82.936C212.135 83.0387 211.893 83.09 211.65 83.09C211.258 83.09 210.894 83.0013 210.558 82.824C210.222 82.6467 209.951 82.3853 209.746 82.04C209.55 81.6947 209.452 81.2747 209.452 80.78ZM221.76 79.1C221.76 78.5307 221.816 78.008 221.928 77.532C222.04 77.0467 222.203 76.6313 222.418 76.286C222.632 75.9313 222.889 75.6607 223.188 75.474C223.496 75.278 223.836 75.18 224.21 75.18C224.508 75.18 224.784 75.2453 225.036 75.376C225.297 75.4973 225.526 75.6747 225.722 75.908C225.927 76.132 226.095 76.4073 226.226 76.734C226.366 77.0607 226.473 77.4247 226.548 77.826C226.622 78.218 226.66 78.6427 226.66 79.1C226.66 79.6693 226.604 80.1967 226.492 80.682C226.38 81.158 226.216 81.5733 226.002 81.928C225.787 82.2733 225.53 82.544 225.232 82.74C224.933 82.9267 224.592 83.02 224.21 83.02C223.911 83.02 223.631 82.9593 223.37 82.838C223.118 82.7073 222.889 82.53 222.684 82.306C222.488 82.0727 222.32 81.7927 222.18 81.466C222.049 81.1393 221.946 80.78 221.872 80.388C221.797 79.9867 221.76 79.5573 221.76 79.1ZM220.57 79.1C220.57 79.688 220.626 80.2387 220.738 80.752C220.85 81.256 221.013 81.718 221.228 82.138C221.442 82.558 221.699 82.9173 221.998 83.216C222.296 83.5147 222.632 83.7433 223.006 83.902C223.379 84.0607 223.78 84.14 224.21 84.14C224.751 84.14 225.241 84.0187 225.68 83.776C226.128 83.524 226.51 83.174 226.828 82.726C227.154 82.2687 227.406 81.732 227.584 81.116C227.761 80.5 227.85 79.828 227.85 79.1C227.85 78.512 227.794 77.966 227.682 77.462C227.57 76.9487 227.406 76.482 227.192 76.062C226.977 75.642 226.72 75.2827 226.422 74.984C226.123 74.6853 225.787 74.4567 225.414 74.298C225.04 74.1393 224.639 74.06 224.21 74.06C223.668 74.06 223.174 74.186 222.726 74.438C222.287 74.6807 221.904 75.0307 221.578 75.488C221.26 75.936 221.013 76.468 220.836 77.084C220.658 77.7 220.57 78.372 220.57 79.1ZM229.524 76.132L231.694 75.488V84H232.884V74.06L229.524 74.9V76.132Z" fill="#77838F"/>
</svg>
