<svg width="12" height="11" viewBox="0 0 12 11" fill="none" xmlns="http://www.w3.org/2000/svg">
<path d="M0.191815 5.96625L4.52543 10.3C4.64914 10.4237 4.81402 10.4916 4.98982 10.4916C5.16582 10.4916 5.3306 10.4236 5.4543 10.3L5.84776 9.90641C5.97137 9.7829 6.03947 9.61793 6.03947 9.44202C6.03947 9.26622 5.97137 9.09569 5.84776 8.97217L3.31959 6.43844L11.3517 6.43844C11.7139 6.43844 12 6.15493 12 5.79269L12 5.2363C12 4.87406 11.7139 4.56197 11.3517 4.56197L3.29091 4.56197L5.84767 2.01409C5.97128 1.89038 6.03937 1.72989 6.03937 1.55399C6.03937 1.37828 5.97128 1.21546 5.84767 1.09185L5.45421 0.699559C5.3305 0.575853 5.16572 0.508438 4.98972 0.508438C4.81392 0.508438 4.64904 0.57673 4.52534 0.700437L0.191718 5.03406C0.067719 5.15816 -0.000475432 5.32381 1.28342e-05 5.49991C-0.000378188 5.67659 0.0677189 5.84235 0.191815 5.96625Z" fill="white"/>
</svg>
