<svg width="10" height="10" viewBox="0 0 10 10" fill="none" xmlns="http://www.w3.org/2000/svg">
<path d="M9.84016 2.54039L9.5126 2.21054C9.40951 2.10754 9.27235 2.05079 9.12577 2.05079C8.97926 2.05079 8.84194 2.10754 8.73885 2.21054L5.00224 5.94732L1.26131 2.2064C1.15838 2.10339 1.02107 2.04672 0.87456 2.04672C0.728055 2.04672 0.590655 2.10339 0.487646 2.2064L0.160001 2.53421C-0.0533338 2.74738 -0.0533338 3.09462 0.160001 3.30779L4.61402 7.77783C4.71695 7.88075 4.8541 7.95327 5.00191 7.95327H5.00362C5.1502 7.95327 5.28736 7.88067 5.39029 7.77783L9.84016 3.3199C9.94325 3.21698 9.99984 3.07567 10 2.92917C10 2.78258 9.94325 2.64323 9.84016 2.54039Z" fill="#2F2D51"/>
</svg>
