<svg width="12" height="11" viewBox="0 0 12 11" fill="none" xmlns="http://www.w3.org/2000/svg">
<path d="M11.8082 5.03387L7.47457 0.700153C7.35086 0.576447 7.18598 0.508545 7.01018 0.508545C6.83418 0.508545 6.6694 0.576544 6.5457 0.700153L6.15224 1.09371C6.02863 1.21722 5.96053 1.3822 5.96053 1.5581C5.96053 1.7339 6.02863 1.90444 6.15224 2.02795L8.68041 4.56168L0.648287 4.56168C0.286144 4.56168 0 4.84519 0 5.20743L0 5.76382C0 6.12606 0.286144 6.43816 0.648287 6.43816L8.70909 6.43816L6.15233 8.98604C6.02873 9.10974 5.96063 9.27023 5.96063 9.44613C5.96063 9.62184 6.02873 9.78466 6.15233 9.90827L6.54579 10.3006C6.6695 10.4243 6.83428 10.4917 7.01028 10.4917C7.18608 10.4917 7.35096 10.4234 7.47466 10.2997L11.8083 5.96606C11.9323 5.84196 12.0005 5.67631 12 5.50021C12.0004 5.32353 11.9323 5.15778 11.8082 5.03387Z" fill="white"/>
</svg>
