<svg width="12" height="11" viewBox="0 0 12 11" fill="none" xmlns="http://www.w3.org/2000/svg">
<path d="M0.191815 5.71612L4.52543 10.0498C4.64914 10.1736 4.81402 10.2415 4.98982 10.2415C5.16582 10.2415 5.3306 10.1735 5.4543 10.0498L5.84776 9.65629C5.97137 9.53278 6.03947 9.3678 6.03947 9.1919C6.03947 9.0161 5.97137 8.84556 5.84776 8.72205L3.31959 6.18832L11.3517 6.18832C11.7139 6.18832 12 5.90481 12 5.54257L12 4.98618C12 4.62394 11.7139 4.31184 11.3517 4.31184L3.29091 4.31184L5.84767 1.76396C5.97128 1.64026 6.03937 1.47977 6.03937 1.30387C6.03937 1.12816 5.97128 0.965335 5.84767 0.841726L5.45421 0.449437C5.3305 0.325731 5.16572 0.258316 4.98972 0.258316C4.81392 0.258316 4.64904 0.326608 4.52534 0.450315L0.191718 4.78394C0.067719 4.90803 -0.000475432 5.07369 1.28342e-05 5.24979C-0.000378188 5.42647 0.0677189 5.59222 0.191815 5.71612Z" fill="#4A8F9F"/>
</svg>
