<svg width="16" height="16" viewBox="0 0 16 16" fill="none" xmlns="http://www.w3.org/2000/svg">
<path d="M15.7188 9.8575V3.1875C15.7188 2.41209 15.0879 1.78125 14.3125 1.78125H12.4688V1.25C12.4688 0.991125 12.2589 0.78125 12 0.78125C11.7411 0.78125 11.5312 0.991125 11.5312 1.25V1.78125H8.46875V1.25C8.46875 0.991125 8.25887 0.78125 8 0.78125C7.74113 0.78125 7.53125 0.991125 7.53125 1.25V1.78125H4.46875V1.25C4.46875 0.991125 4.25887 0.78125 4 0.78125C3.74113 0.78125 3.53125 0.991125 3.53125 1.25V1.78125H1.40625C0.630844 1.78125 0 2.41209 0 3.1875V11.8125C0 12.5879 0.630844 13.2188 1.40625 13.2188H8.68531C9.35484 14.4112 10.6317 15.2188 12.0938 15.2188C14.2477 15.2188 16 13.4664 16 11.3125C16 10.7985 15.9 10.3074 15.7188 9.8575ZM12.5625 8.38087C13.8248 8.58197 14.8243 9.58144 15.0254 10.8438H12.5625V8.38087ZM1.40625 12.2812C1.14778 12.2812 0.9375 12.071 0.9375 11.8125V3.1875C0.9375 2.92903 1.14778 2.71875 1.40625 2.71875H3.53125V3.28125C3.53125 3.54012 3.74113 3.75 4 3.75C4.25887 3.75 4.46875 3.54012 4.46875 3.28125V2.71875H7.53125V3.28125C7.53125 3.54012 7.74113 3.75 8 3.75C8.25887 3.75 8.46875 3.54012 8.46875 3.28125V2.71875H11.5312V3.28125C11.5312 3.54012 11.7411 3.75 12 3.75C12.2589 3.75 12.4688 3.54012 12.4688 3.28125V2.71875H14.3125C14.571 2.71875 14.7812 2.92903 14.7812 3.1875V8.48034C14.0805 7.81506 13.134 7.40625 12.0938 7.40625C9.93984 7.40625 8.1875 9.15859 8.1875 11.3125C8.1875 11.6468 8.22978 11.9713 8.30916 12.2812H1.40625ZM12.0938 14.2812C10.4568 14.2812 9.125 12.9495 9.125 11.3125C9.125 9.83503 10.21 8.60631 11.625 8.38087V11.3125C11.625 11.5714 11.8349 11.7812 12.0938 11.7812H15.0254C14.7999 13.1962 13.5712 14.2812 12.0938 14.2812Z" fill="#949DA6"/>
<path d="M3.25 5.78125H2.5C2.24112 5.78125 2.03125 5.99112 2.03125 6.25C2.03125 6.50888 2.24112 6.71875 2.5 6.71875H3.25C3.50888 6.71875 3.71875 6.50888 3.71875 6.25C3.71875 5.99112 3.50888 5.78125 3.25 5.78125Z" fill="#949DA6"/>
<path d="M6 5.78125H5.25C4.99112 5.78125 4.78125 5.99112 4.78125 6.25C4.78125 6.50888 4.99112 6.71875 5.25 6.71875H6C6.25888 6.71875 6.46875 6.50888 6.46875 6.25C6.46875 5.99112 6.25888 5.78125 6 5.78125Z" fill="#949DA6"/>
<path d="M6 7.78125H5.25C4.99112 7.78125 4.78125 7.99112 4.78125 8.25C4.78125 8.50888 4.99112 8.71875 5.25 8.71875H6C6.25888 8.71875 6.46875 8.50888 6.46875 8.25C6.46875 7.99112 6.25888 7.78125 6 7.78125Z" fill="#949DA6"/>
<path d="M3.25 7.78125H2.5C2.24112 7.78125 2.03125 7.99112 2.03125 8.25C2.03125 8.50888 2.24112 8.71875 2.5 8.71875H3.25C3.50888 8.71875 3.71875 8.50888 3.71875 8.25C3.71875 7.99112 3.50888 7.78125 3.25 7.78125Z" fill="#949DA6"/>
<path d="M3.25 9.78125H2.5C2.24112 9.78125 2.03125 9.99112 2.03125 10.25C2.03125 10.5089 2.24112 10.7188 2.5 10.7188H3.25C3.50888 10.7188 3.71875 10.5089 3.71875 10.25C3.71875 9.99112 3.50888 9.78125 3.25 9.78125Z" fill="#949DA6"/>
<path d="M6 9.78125H5.25C4.99112 9.78125 4.78125 9.99112 4.78125 10.25C4.78125 10.5089 4.99112 10.7188 5.25 10.7188H6C6.25888 10.7188 6.46875 10.5089 6.46875 10.25C6.46875 9.99112 6.25888 9.78125 6 9.78125Z" fill="#949DA6"/>
</svg>
