<svg width="30" height="30" viewBox="0 0 30 30" fill="none" xmlns="http://www.w3.org/2000/svg">
<g clip-path="url(#clip0_264_1422)">
<path d="M23.8101 29.5605H6.18945C5.21861 29.5605 4.43164 28.7736 4.43164 27.8027V2.19727C4.43164 1.22643 5.21861 0.439453 6.18945 0.439453H23.8101C24.781 0.439453 25.5679 1.22643 25.5679 2.19727V27.8027C25.5679 28.7736 24.781 29.5605 23.8101 29.5605Z" fill="#F9F7F8"/>
<path d="M23.8105 0.439453H22.0527C23.0235 0.439453 23.8105 1.22643 23.8105 2.19727V27.8027C23.8105 28.7736 23.0235 29.5605 22.0527 29.5605H23.8105C24.7813 29.5605 25.5684 28.7736 25.5684 27.8027V2.19727C25.5684 1.22643 24.7814 0.439453 23.8105 0.439453Z" fill="#E5E1E5"/>
<path d="M20.8871 8.08541C20.8871 11.3374 18.2509 13.973 14.9989 13.973C13.0137 13.973 11.2577 12.9904 10.1911 11.4848C9.51076 10.5247 9.11133 9.35203 9.11133 8.08541C9.11133 7.67332 9.15387 7.27125 9.23414 6.8833C9.78902 4.20773 12.1591 2.19727 14.9989 2.19727C18.2509 2.19727 20.8871 4.83346 20.8871 8.08541Z" fill="#D7D0D6"/>
<path d="M11.6348 12.9172C12.5886 13.5826 13.7483 13.9731 14.9994 13.9731C16.2507 13.9731 17.4106 13.5825 18.3645 12.9171C18.3076 11.1071 16.8235 9.65698 14.9996 9.65698C13.1758 9.65692 11.6915 11.1071 11.6348 12.9172Z" fill="#FD8087"/>
<path d="M15.4398 10.9476C16.0271 10.9476 16.5485 10.6658 16.8764 10.2301C16.3399 9.86856 15.6939 9.65698 14.998 9.65698C14.5746 9.65698 14.1701 9.73597 13.7969 9.87864C14.0764 10.5082 14.7065 10.9476 15.4398 10.9476Z" fill="#FE646F"/>
<path d="M14.9982 10.124C14.0057 10.124 13.2012 9.31942 13.2012 8.32696V6.13433C13.2012 5.55249 13.6729 5.08081 14.2547 5.08081H15.7419C16.3237 5.08081 16.7954 5.55249 16.7954 6.13433V8.32696C16.7953 9.31948 15.9908 10.124 14.9982 10.124Z" fill="#FFCEBF"/>
<path d="M15.7418 5.08081H14.2547C13.6729 5.08081 13.2012 5.55249 13.2012 6.13433V7.47478L14.7241 6.97304C15.2856 6.78806 15.9012 6.87296 16.3917 7.20308L16.7954 7.47472V6.13427C16.7953 5.55249 16.3236 5.08081 15.7418 5.08081Z" fill="#C59191"/>
<path d="M15.1586 16.9027L15.5756 17.7475C15.6012 17.7993 15.6507 17.8353 15.7079 17.8436L16.6402 17.9791C16.7844 18.0001 16.842 18.1772 16.7377 18.2789L16.063 18.9365C16.0216 18.9769 16.0027 19.0351 16.0124 19.0921L16.1717 20.0206C16.1963 20.1642 16.0456 20.2738 15.9166 20.206L15.0827 19.7676C15.0315 19.7407 14.9704 19.7407 14.9191 19.7676L14.0852 20.206C13.9563 20.2738 13.8056 20.1642 13.8302 20.0206L13.9894 19.0921C13.9992 19.0351 13.9803 18.9769 13.9389 18.9365L13.2642 18.2789C13.1599 18.1772 13.2175 18 13.3617 17.9791L14.2939 17.8436C14.3512 17.8353 14.4007 17.7993 14.4263 17.7475L14.8433 16.9027C14.9078 16.772 15.0942 16.772 15.1586 16.9027Z" fill="#FEE45A"/>
<path d="M20.4965 16.9027L20.9135 17.7475C20.9391 17.7993 20.9886 17.8353 21.0458 17.8436L21.9781 17.9791C22.1223 18.0001 22.1799 18.1772 22.0756 18.2789L21.4009 18.9365C21.3595 18.9769 21.3406 19.0351 21.3503 19.0921L21.5096 20.0206C21.5342 20.1642 21.3835 20.2738 21.2545 20.206L20.4206 19.7676C20.3694 19.7407 20.3083 19.7407 20.257 19.7676L19.4231 20.206C19.2942 20.2738 19.1435 20.1642 19.1681 20.0206L19.3273 19.0921C19.3371 19.0351 19.3182 18.9769 19.2768 18.9365L18.6021 18.2789C18.4978 18.1772 18.5554 18 18.6996 17.9791L19.6318 17.8436C19.6891 17.8353 19.7386 17.7993 19.7642 17.7475L20.1812 16.9027C20.2458 16.772 20.4321 16.772 20.4965 16.9027Z" fill="#FEE45A"/>
<path d="M9.82073 16.9027L10.2377 17.7475C10.2633 17.7993 10.3128 17.8353 10.37 17.8436L11.3023 17.9791C11.4465 18.0001 11.5041 18.1772 11.3998 18.2789L10.7251 18.9365C10.6837 18.9769 10.6648 19.0351 10.6746 19.0921L10.8338 20.0206C10.8584 20.1642 10.7077 20.2738 10.5788 20.206L9.74485 19.7676C9.69364 19.7407 9.63247 19.7407 9.58126 19.7676L8.74735 20.206C8.61838 20.2738 8.46768 20.1642 8.49229 20.0206L8.65155 19.0921C8.66133 19.0351 8.64241 18.9769 8.60098 18.9365L7.92633 18.2789C7.82198 18.1772 7.87958 18 8.02377 17.9791L8.95606 17.8436C9.01331 17.8353 9.06282 17.7993 9.08842 17.7475L9.50538 16.9027C9.56995 16.772 9.75622 16.772 9.82073 16.9027Z" fill="#FEE45A"/>
<path d="M22.9312 25.9863H9.82707C9.58432 25.9863 9.38762 26.183 9.38762 26.4258C9.38762 26.6685 9.58432 26.8652 9.82707 26.8652H22.9313C23.174 26.8652 23.3707 26.6685 23.3707 26.4258C23.3707 26.183 23.174 25.9863 22.9312 25.9863ZM17.1989 17.963C17.126 17.7386 16.9357 17.5782 16.7022 17.5443L15.9071 17.4287L15.5515 16.7082C15.4471 16.4967 15.2357 16.3652 14.9998 16.3652C14.7639 16.3652 14.5524 16.4967 14.4481 16.7082L14.0925 17.4287L13.2974 17.5443C13.0639 17.5782 12.8737 17.7387 12.8007 17.9631C12.7278 18.1875 12.7875 18.4291 12.9564 18.5937L13.5317 19.1545L13.3959 19.9465C13.3561 20.179 13.4499 20.4096 13.6408 20.5483C13.7486 20.6266 13.8748 20.6664 14.0018 20.6664C14.0995 20.6664 14.1978 20.6428 14.2886 20.5951L14.9998 20.2211L15.7109 20.5949C15.9197 20.7047 16.168 20.6867 16.3588 20.5482C16.5497 20.4095 16.6435 20.1789 16.6037 19.9464L16.4679 19.1544L17.0431 18.5937C17.212 18.4291 17.2718 18.1874 17.1989 17.963ZM15.755 18.6219C15.61 18.7633 15.5439 18.9669 15.5781 19.1664L15.6471 19.5684L15.2863 19.3787C15.107 19.2844 14.8928 19.2843 14.7135 19.3786L14.3526 19.5684L14.4215 19.1665C14.4557 18.9669 14.3896 18.7633 14.2446 18.6218L13.9525 18.3371L14.356 18.2786C14.5563 18.2495 14.7295 18.1237 14.8194 17.942L14.9998 17.5763L15.1805 17.9423C15.2702 18.1238 15.4433 18.2495 15.6435 18.2785L16.0471 18.3371L15.755 18.6219ZM23.8101 0H6.18945C4.97785 0 3.99219 0.985664 3.99219 2.19727V21.1436C3.99219 21.3863 4.18889 21.583 4.43164 21.583C4.67439 21.583 4.87109 21.3863 4.87109 21.1436V2.19727C4.87109 1.47029 5.46254 0.878906 6.18945 0.878906H23.8102C24.5371 0.878906 25.1285 1.47029 25.1285 2.19727V27.8027C25.1285 28.5296 24.5371 29.1211 23.8102 29.1211H6.18945C5.46254 29.1211 4.87109 28.5296 4.87109 27.8027V22.8312C4.87109 22.5884 4.67439 22.3917 4.43164 22.3917C4.18889 22.3917 3.99219 22.5884 3.99219 22.8312V27.8027C3.99219 29.0143 4.97785 30 6.18945 30H23.8102C25.0218 30 26.0074 29.0143 26.0074 27.8027V2.19727C26.0074 0.985664 25.0217 0 23.8101 0ZM22.9312 23.3496H9.82707C9.58432 23.3496 9.38762 23.5463 9.38762 23.7891C9.38762 24.0318 9.58432 24.2285 9.82707 24.2285H22.9313C23.174 24.2285 23.3707 24.0318 23.3707 23.7891C23.3707 23.5463 23.174 23.3496 22.9312 23.3496ZM7.50781 26.8652C7.75051 26.8652 7.94726 26.6685 7.94726 26.4258C7.94726 26.1831 7.75051 25.9863 7.50781 25.9863C7.26512 25.9863 7.06836 26.1831 7.06836 26.4258C7.06836 26.6685 7.26512 26.8652 7.50781 26.8652ZM7.46305 17.9629C7.39016 18.1873 7.44975 18.429 7.61867 18.5937L8.19406 19.1545L8.05818 19.9465C8.01834 20.179 8.11215 20.4095 8.30305 20.5482C8.49389 20.6868 8.74221 20.7047 8.95098 20.595L9.66219 20.2211L10.3733 20.595C10.4642 20.6427 10.5625 20.6664 10.6602 20.6663C10.7872 20.6663 10.9135 20.6265 11.0213 20.5481C11.2122 20.4094 11.3059 20.1788 11.266 19.9464L11.1302 19.1545L11.7056 18.5937C11.8745 18.429 11.9341 18.1873 11.8612 17.9629C11.7883 17.7386 11.598 17.5781 11.3646 17.5442L10.5694 17.4286L10.2138 16.7082C10.1095 16.4966 9.89803 16.3652 9.66213 16.3652C9.66213 16.3652 9.66207 16.3652 9.66201 16.3652C9.42611 16.3652 9.21471 16.4967 9.11047 16.7082L8.75492 17.4287L7.9598 17.5443C7.72625 17.5781 7.53594 17.7386 7.46305 17.9629ZM9.01818 18.2786C9.21875 18.2495 9.39195 18.1236 9.4816 17.942L9.66207 17.5763L9.8426 17.9419C9.93225 18.1237 10.1054 18.2495 10.3058 18.2785L10.7094 18.3371L10.4173 18.6219C10.2723 18.7633 10.2062 18.9669 10.2404 19.1664L10.3094 19.5684L9.94859 19.3787C9.76912 19.2843 9.55502 19.2843 9.37584 19.3786L9.01484 19.5684L9.08381 19.1665C9.11809 18.9669 9.05193 18.7633 8.90686 18.6218L8.61482 18.3371L9.01818 18.2786ZM22.0399 17.5443L21.2447 17.4287L20.8892 16.7082C20.7848 16.4967 20.5735 16.3652 20.3376 16.3652C20.3376 16.3652 20.3376 16.3652 20.3375 16.3652C20.1016 16.3652 19.8901 16.4966 19.7858 16.7082L19.4302 17.4287L18.6351 17.5443C18.4017 17.5781 18.2114 17.7386 18.1384 17.963C18.0655 18.1874 18.1251 18.429 18.294 18.5937L18.8694 19.1545L18.7337 19.9464C18.6937 20.1789 18.7875 20.4094 18.9783 20.5482C19.0862 20.6266 19.2124 20.6664 19.3394 20.6664C19.4372 20.6664 19.5355 20.6428 19.6263 20.5951L20.3375 20.2212L21.0487 20.5951C21.2574 20.7047 21.5058 20.6869 21.6966 20.5482C21.8875 20.4096 21.9812 20.179 21.9414 19.9464L21.8056 19.1545L22.381 18.5937C22.5499 18.429 22.6095 18.1873 22.5366 17.963C22.4637 17.7386 22.2733 17.5781 22.0399 17.5443ZM21.0927 18.6219C20.9476 18.7633 20.8815 18.9669 20.9158 19.1664L20.9847 19.5684L20.6239 19.3787C20.5342 19.3315 20.4358 19.3079 20.3374 19.3079C20.239 19.3079 20.1407 19.3314 20.0511 19.3786L19.6902 19.5684L19.7591 19.1665C19.7933 18.9669 19.7272 18.7633 19.5821 18.6218L19.2901 18.3371L19.6935 18.2786C19.8941 18.2495 20.0673 18.1236 20.1569 17.942L20.3374 17.5763L20.5179 17.9419C20.6076 18.1237 20.7808 18.2495 20.9811 18.2785L21.3847 18.3371L21.0927 18.6219ZM7.06836 23.7891C7.06836 24.0318 7.26512 24.2285 7.50781 24.2285C7.75051 24.2285 7.94726 24.0318 7.94726 23.7891C7.94726 23.5464 7.75051 23.3496 7.50781 23.3496C7.26512 23.3496 7.06836 23.5464 7.06836 23.7891ZM14.9996 1.75781C11.5118 1.75781 8.67248 4.61725 8.67248 8.08541C8.67248 11.4894 11.5335 14.4125 14.9996 14.4125C18.4886 14.4125 21.3271 11.5741 21.3271 8.08541C21.3271 4.59639 18.4886 1.75781 14.9996 1.75781ZM14.9996 13.5336C13.958 13.5336 12.9519 13.2335 12.092 12.6911C12.168 12.02 12.4711 11.3994 12.9611 10.9236C13.2421 10.6506 13.5774 10.4361 13.9389 10.2954C14.2548 10.4663 14.6162 10.5635 14.9998 10.5635C15.3833 10.5635 15.7446 10.4664 16.0604 10.2955C16.6551 10.5265 17.1609 10.9472 17.4977 11.4968C17.5806 11.6321 17.7249 11.7067 17.8728 11.7067C17.951 11.7067 18.0303 11.6858 18.102 11.6419C18.3089 11.5151 18.3738 11.2446 18.2471 11.0377C17.8896 10.4542 17.3853 9.98221 16.7908 9.66504C17.0705 9.29162 17.2363 8.82832 17.2363 8.32699V6.13436C17.2363 5.31111 16.5666 4.64139 15.7434 4.64139H14.2562C13.433 4.64139 12.7633 5.31111 12.7633 6.13436V8.32699C12.7633 8.82873 12.9294 9.29238 13.2095 9.66592C12.8961 9.8335 12.6048 10.0444 12.3488 10.2932C11.8351 10.792 11.48 11.4135 11.3095 12.0929C10.193 11.0679 9.55145 9.60662 9.55145 8.08559C9.55145 7.71152 9.58965 7.33705 9.66506 6.97271C10.186 4.46021 12.4296 2.63672 14.9996 2.63672C18.0039 2.63672 20.4482 5.08102 20.4482 8.08541C20.4482 11.0896 18.0039 13.5336 14.9996 13.5336ZM14.8631 7.39043C15.2989 7.24687 15.7672 7.31145 16.1479 7.56762L16.3574 7.70865V8.32687C16.3574 9.07547 15.7484 9.68449 14.9998 9.68449C14.2512 9.68449 13.6422 9.07547 13.6422 8.32687V7.79262L14.8631 7.39043ZM13.6422 6.8673V6.1343C13.6422 5.79568 13.9176 5.52023 14.2562 5.52023H15.7433C16.0819 5.52023 16.3573 5.79568 16.3573 6.1343V6.67676C15.8086 6.40711 15.1796 6.36076 14.588 6.55564L13.6422 6.8673Z" fill="black"/>
</g>
<defs>
<clipPath id="clip0_264_1422">
<rect width="30" height="30" fill="white"/>
</clipPath>
</defs>
</svg>
