<svg width="16" height="18" viewBox="0 0 16 18" fill="none" xmlns="http://www.w3.org/2000/svg">
<path d="M14.6047 6.92295L3.97342 0.369635C3.20427 -0.103885 2.27435 -0.123573 1.48583 0.316971C0.697306 0.757445 0.226562 1.55975 0.226562 2.46295V15.5099C0.226562 16.8756 1.32696 17.9926 2.67942 18C2.68311 18 2.6868 18 2.69042 18C3.11307 18 3.55351 17.8675 3.96487 17.6165C4.2958 17.4146 4.40039 16.9826 4.19849 16.6518C3.99659 16.3208 3.56458 16.2162 3.23376 16.4181C3.04135 16.5355 2.85344 16.5962 2.68698 16.5962C2.17668 16.5934 1.63032 16.1563 1.63032 15.5099V2.46298C1.63032 2.07553 1.83226 1.73145 2.17046 1.54249C2.5087 1.35352 2.90755 1.36196 3.23707 1.56484L13.8684 8.11816C14.1879 8.31489 14.3708 8.64294 14.37 9.0182C14.3692 9.39342 14.185 9.72072 13.8637 9.91679L6.17726 14.6231C5.84665 14.8255 5.74273 15.2576 5.94516 15.5882C6.14755 15.9188 6.57966 16.0227 6.91027 15.8203L14.5958 11.1146C15.3317 10.6657 15.7721 9.88308 15.7738 9.02101C15.7756 8.15905 15.3384 7.37464 14.6047 6.92295Z" fill="#949DA6"/>
</svg>
