<svg width="16" height="16" viewBox="0 0 16 16" fill="none" xmlns="http://www.w3.org/2000/svg">
<g clip-path="url(#clip0_256_3007)">
<path d="M15.4286 7.42841H6.20457C5.89469 6.21086 4.65646 5.47506 3.43888 5.78494C2.63143 5.99045 2.00093 6.62095 1.79541 7.42841H0.571439C0.255837 7.42841 0 7.68424 0 7.99985C0 8.31545 0.255837 8.57125 0.571439 8.57125H1.79545C2.10532 9.7888 3.34356 10.5246 4.56114 10.2147C5.36859 10.0092 5.99909 9.37871 6.20461 8.57125H15.4286C15.7442 8.57125 16 8.31542 16 7.99981C16 7.68421 15.7442 7.42841 15.4286 7.42841ZM4.00001 9.14269C3.36884 9.14269 2.85716 8.63102 2.85716 7.99985C2.85716 7.36868 3.36884 6.857 4.00001 6.857C4.63118 6.857 5.14285 7.36868 5.14285 7.99985C5.14285 8.63102 4.63118 9.14269 4.00001 9.14269Z" fill="#949DA6"/>
<path d="M15.4286 1.71405H13.6331C13.3233 0.496508 12.085 -0.239295 10.8675 0.0705817C10.06 0.276095 9.4295 0.906597 9.22399 1.71405H0.571439C0.255837 1.71405 0 1.96989 0 2.28549C0 2.60109 0.255837 2.85693 0.571439 2.85693H9.22399C9.53387 4.07447 10.7721 4.81028 11.9897 4.5004C12.7971 4.29489 13.4276 3.66438 13.6331 2.85693H15.4286C15.7442 2.85693 16 2.60109 16 2.28549C16 1.96989 15.7442 1.71405 15.4286 1.71405ZM11.4286 3.42834C10.7974 3.42834 10.2857 2.91666 10.2857 2.28549C10.2857 1.65432 10.7974 1.14265 11.4286 1.14265C12.0598 1.14265 12.5714 1.65432 12.5714 2.28549C12.5714 2.91666 12.0598 3.42834 11.4286 3.42834Z" fill="#949DA6"/>
<path d="M15.4286 13.1428H12.4903C12.1804 11.9252 10.9422 11.1894 9.72458 11.4993C8.91713 11.7048 8.28662 12.3353 8.08111 13.1428H0.571439C0.255837 13.1428 0 13.3986 0 13.7142C0 14.0297 0.255837 14.2856 0.571439 14.2856H8.08114C8.39102 15.5032 9.62926 16.239 10.8468 15.9291C11.6543 15.7236 12.2848 15.0931 12.4903 14.2856H15.4286C15.7442 14.2856 16 14.0298 16 13.7142C16 13.3986 15.7442 13.1428 15.4286 13.1428ZM10.2857 14.8571C9.65454 14.8571 9.14286 14.3454 9.14286 13.7142C9.14286 13.083 9.65454 12.5714 10.2857 12.5714C10.9169 12.5714 11.4286 13.083 11.4286 13.7142C11.4286 14.3454 10.9169 14.8571 10.2857 14.8571Z" fill="#949DA6"/>
</g>
<defs>
<clipPath id="clip0_256_3007">
<rect width="16" height="16" fill="white"/>
</clipPath>
</defs>
</svg>
