<svg width="20" height="20" viewBox="0 0 20 20" fill="none" xmlns="http://www.w3.org/2000/svg">
<path d="M18.1612 11.7355L16.6857 8.04688L18.1612 4.35824C18.2334 4.1777 18.2114 3.97313 18.1024 3.81215C17.9934 3.65113 17.8116 3.55469 17.6172 3.55469H10.7812V2.1875C10.7812 1.86391 10.5189 1.60156 10.1953 1.60156H2.96875V0.585938C2.96875 0.262344 2.70641 0 2.38281 0C2.05922 0 1.79688 0.262344 1.79688 0.585938C1.79688 3.03582 1.79688 17.3346 1.79688 19.4141C1.79688 19.7377 2.05922 20 2.38281 20C2.70641 20 2.96875 19.7377 2.96875 19.4141V10.5859H7.65625V11.9531C7.65625 12.273 7.91691 12.5391 8.24219 12.5391H17.6172C17.8116 12.5391 17.9934 12.4426 18.1024 12.2816C18.2114 12.1206 18.2334 11.9161 18.1612 11.7355ZM9.60938 9.41406C8.93836 9.41406 3.69285 9.41406 2.96875 9.41406V2.77344H9.60938C9.60938 3.44445 9.60938 8.68996 9.60938 9.41406ZM9.65676 11.3672L10.6095 10.4144C10.7215 10.3025 10.7812 10.1486 10.7812 10V4.72656H16.7518L15.5107 7.82926C15.4548 7.96895 15.4548 8.1248 15.5107 8.26453L16.7518 11.3672H9.65676Z" fill="#77838F"/>
</svg>
