<svg width="12" height="11" viewBox="0 0 12 11" fill="none" xmlns="http://www.w3.org/2000/svg">
<path d="M11.8082 4.78363L7.47457 0.449909C7.35086 0.326203 7.18598 0.258301 7.01018 0.258301C6.83418 0.258301 6.6694 0.3263 6.5457 0.449909L6.15224 0.843467C6.02863 0.966978 5.96053 1.13195 5.96053 1.30785C5.96053 1.48366 6.02863 1.65419 6.15224 1.7777L8.68041 4.31144L0.648287 4.31144C0.286144 4.31144 0 4.59495 0 4.95719L0 5.51357C0 5.87582 0.286144 6.18791 0.648287 6.18791L8.70909 6.18791L6.15233 8.73579C6.02873 8.8595 5.96063 9.01999 5.96063 9.19589C5.96063 9.37159 6.02873 9.53442 6.15233 9.65803L6.54579 10.0503C6.6695 10.174 6.83428 10.2414 7.01028 10.2414C7.18608 10.2414 7.35096 10.1731 7.47466 10.0494L11.8083 5.71582C11.9323 5.59172 12.0005 5.42606 12 5.24997C12.0004 5.07329 11.9323 4.90753 11.8082 4.78363Z" fill="#4A8F9F"/>
</svg>
