<svg width="16" height="16" viewBox="0 0 16 16" fill="none" xmlns="http://www.w3.org/2000/svg">
<path d="M11.2437 1.20728C10.0203 1.20728 8.87397 1.66486 7.99998 2.48357C7.12598 1.66486 5.97968 1.20728 4.7563 1.20728C2.13368 1.20728 0 3.341 0 5.96366C0 7.2555 0.425164 8.52729 1.26366 9.74361C1.91197 10.6841 2.80887 11.5931 3.92937 12.4454C5.809 13.8753 7.66475 14.6543 7.74285 14.6867L7.99806 14.7928L8.25384 14.6881C8.33199 14.6562 10.1889 13.8882 12.0696 12.4635C13.1907 11.6142 14.0881 10.7054 14.7367 9.7625C15.575 8.54385 16 7.26577 16 5.96371C16 3.341 13.8663 1.20728 11.2437 1.20728ZM8.00141 13.3353C6.74962 12.7555 1.33966 10.0142 1.33966 5.96366C1.33966 4.07969 2.87237 2.54698 4.75634 2.54698C5.827 2.54698 6.81558 3.03502 7.46862 3.88598L8.00002 4.57845L8.53142 3.88598C9.18446 3.03502 10.173 2.54698 11.2437 2.54698C13.1276 2.54698 14.6604 4.07969 14.6604 5.96366C14.6603 10.0433 9.25265 12.7613 8.00141 13.3353Z" fill="white" fill-opacity="0.7"/>
</svg>
