<svg width="18" height="45" viewBox="0 0 18 45" fill="none" xmlns="http://www.w3.org/2000/svg">
<circle cx="9" cy="22" r="9" fill="#4A8F9F"/>
<path d="M12.4598 20.6696C12.4598 20.558 12.4152 20.4464 12.3348 20.3661L11.7277 19.7589C11.6473 19.6786 11.5357 19.6339 11.4241 19.6339C11.3125 19.6339 11.2009 19.6786 11.1205 19.7589L8.19196 22.692L6.87946 21.375C6.79911 21.2946 6.6875 21.25 6.57589 21.25C6.46429 21.25 6.35268 21.2946 6.27232 21.375L5.66518 21.9821C5.58482 22.0625 5.54018 22.1741 5.54018 22.2857C5.54018 22.3973 5.58482 22.5089 5.66518 22.5893L7.28125 24.2054L7.88839 24.8125C7.96875 24.8929 8.08036 24.9375 8.19196 24.9375C8.30357 24.9375 8.41518 24.8929 8.49554 24.8125L9.10268 24.2054L12.3348 20.9732C12.4152 20.8929 12.4598 20.7812 12.4598 20.6696Z" fill="white"/>
</svg>
