<svg width="14" height="18" viewBox="0 0 14 18" fill="none" xmlns="http://www.w3.org/2000/svg">
<path d="M12.5717 0H4.16956C4.05379 0.00594643 3.94322 0.0496071 3.85456 0.124286L0.413131 3.57857C0.328167 3.65957 0.280113 3.77191 0.280274 3.88929V16.8514C0.281452 17.4853 0.794988 17.9988 1.42885 18H12.5717C13.1981 17.9989 13.7086 17.497 13.7203 16.8707V1.14857C13.7191 0.514714 13.2056 0.00117857 12.5717 0ZM8.18099 0.857143H10.6988V4.87714L9.80527 3.45214C9.76906 3.39182 9.71859 3.3413 9.65827 3.30514C9.45529 3.18337 9.19204 3.24916 9.07027 3.45214L8.18099 4.87071V0.857143ZM3.7367 1.46786V2.66143C3.73552 3.10002 3.38029 3.45525 2.9417 3.45643H1.74813L3.7367 1.46786ZM12.8546 16.86C12.8534 17.0157 12.7274 17.1417 12.5717 17.1429H1.42885C1.42665 17.1429 1.42445 17.143 1.42226 17.143C1.26486 17.1441 1.13635 17.0174 1.13527 16.86V4.32214H2.9417C3.85793 4.31979 4.60006 3.57766 4.60242 2.66143V0.857143H7.31527V5.23286C7.31345 5.42593 7.37688 5.61391 7.49527 5.76643C7.67533 5.99539 7.98036 6.08561 8.25599 5.99143L8.28813 5.98071C8.49272 5.89484 8.66356 5.7443 8.77456 5.55214L9.44099 4.48071L10.1074 5.55214C10.2184 5.7443 10.3893 5.89484 10.5938 5.98071C10.8764 6.0922 11.1987 6.00509 11.3867 5.76643C11.5051 5.61391 11.5685 5.42593 11.5667 5.23286V0.857143H12.5717C12.7266 0.858268 12.8523 0.982982 12.8546 1.13786V16.86Z" fill="#949DA6"/>
<path d="M10.7761 14.3143H3.22252C2.98584 14.3143 2.79395 14.5062 2.79395 14.7429C2.79395 14.9796 2.98584 15.1715 3.22252 15.1715H10.7761C11.0128 15.1715 11.2047 14.9796 11.2047 14.7429C11.2047 14.5062 11.0128 14.3143 10.7761 14.3143Z" fill="#949DA6"/>
<path d="M10.7761 12.2035H3.22252C2.98584 12.2035 2.79395 12.3954 2.79395 12.6321C2.79395 12.8687 2.98584 13.0606 3.22252 13.0606H10.7761C11.0128 13.0606 11.2047 12.8687 11.2047 12.6321C11.2047 12.3954 11.0128 12.2035 10.7761 12.2035Z" fill="#949DA6"/>
<path d="M10.7761 10.0928H3.22252C2.98584 10.0928 2.79395 10.2847 2.79395 10.5213C2.79395 10.758 2.98584 10.9499 3.22252 10.9499H10.7761C11.0128 10.9499 11.2047 10.758 11.2047 10.5213C11.2047 10.2847 11.0128 10.0928 10.7761 10.0928Z" fill="#949DA6"/>
<path d="M10.7761 7.98218H3.22252C2.98584 7.98218 2.79395 8.17407 2.79395 8.41075C2.79395 8.64743 2.98584 8.83932 3.22252 8.83932H10.7761C11.0128 8.83932 11.2047 8.64743 11.2047 8.41075C11.2047 8.17407 11.0128 7.98218 10.7761 7.98218Z" fill="#949DA6"/>
</svg>
