<svg width="22" height="22" viewBox="0 0 22 22" fill="none" xmlns="http://www.w3.org/2000/svg">
<path d="M21.7277 10.4732L19.3738 8.81366C18.9473 8.51301 18.3578 8.81916 18.3578 9.34046V10.3555H7.05528C6.69933 10.3555 6.41071 10.644 6.41071 11C6.41071 11.356 6.69933 11.6446 7.05528 11.6446H18.3577V12.6595C18.3577 13.1843 18.9503 13.4847 19.3736 13.1863L21.7276 11.5268C22.0871 11.2735 22.0943 10.7322 21.7277 10.4732Z" fill="white"/>
<path d="M18.4968 15.1386C18.1888 14.9604 17.7944 15.0656 17.6161 15.3738C16.1021 17.9913 13.2718 19.7485 10.0376 19.7485C5.2137 19.7485 1.28911 15.8239 1.28911 11C1.28911 6.17604 5.2137 2.25145 10.0376 2.25145C13.274 2.25145 16.1029 4.01029 17.6161 6.62605C17.7943 6.93423 18.1888 7.03937 18.4968 6.86126C18.8049 6.68303 18.9102 6.28871 18.732 5.98058C16.9906 2.97027 13.7384 0.962341 10.0376 0.962341C4.4898 0.962341 0 5.45167 0 11C0 16.5478 4.48933 21.0376 10.0376 21.0376C13.7399 21.0376 16.9914 19.0283 18.732 16.0193C18.9102 15.7112 18.8049 15.3169 18.4968 15.1386Z" fill="white"/>
</svg>
