<svg width="20" height="20" viewBox="0 0 20 20" fill="none" xmlns="http://www.w3.org/2000/svg">
<g clip-path="url(#clip0_256_3041)">
<path d="M16.5465 5.13024L15.2322 4.02945L14.9329 2.34131C14.8335 1.78023 14.348 1.37335 13.7783 1.37335C13.778 1.37335 13.7775 1.37335 13.7772 1.37335L12.0628 1.37488L10.7485 0.274205C10.3114 -0.0919028 9.67738 -0.0913556 9.24091 0.275574L7.92861 1.37875L6.2142 1.38035C5.64405 1.3809 5.15872 1.78887 5.06026 2.35042L4.76408 4.03907L3.45178 5.14228C3.01535 5.50917 2.90582 6.13362 3.19137 6.62712L4.04992 8.1111L3.75378 9.79967C3.65524 10.3613 3.97276 10.91 4.50875 11.1046L5.9543 11.6292L5.95989 18.8268C5.95989 19.2647 6.20095 19.6629 6.58899 19.8659C6.76059 19.9556 6.94712 20 7.13295 20C7.36737 20 7.60062 19.9294 7.8013 19.7901L9.9861 18.2734L12.1709 19.7901C12.5306 20.0398 12.9951 20.0689 13.3832 19.8659C13.7712 19.6629 14.0123 19.2647 14.0123 18.8268V11.6377L15.5005 11.0945C16.0361 10.899 16.3526 10.3496 16.2531 9.78825L15.9538 8.10015L16.8096 6.61461C17.0943 6.12056 16.9836 5.49631 16.5465 5.13024ZM10.3205 17.078C10.1194 16.9385 9.85281 16.9385 9.65178 17.078L7.13264 18.8265C7.13264 18.8264 7.13264 18.8263 7.13264 18.8263L7.12842 13.3771C7.35154 13.6218 7.66652 13.7592 7.99315 13.7592C8.12738 13.7592 8.26357 13.7361 8.39608 13.6877L10.0065 13.0999L11.6181 13.6848C12.0517 13.842 12.5242 13.7298 12.8396 13.4196L12.8395 18.8266L10.3205 17.078ZM14.9377 7.51475C14.8003 7.75327 14.7511 8.03382 14.7992 8.30482L15.0984 9.99292L13.4878 10.5808C13.286 10.6545 13.1095 10.783 12.9761 10.949C12.9697 10.9566 12.9639 10.9647 12.9579 10.9727C12.9277 11.0123 12.899 11.0533 12.8739 11.0969L12.0185 12.5825C12.0185 12.5825 12.0183 12.5825 12.0181 12.5824L10.4065 11.9976C10.1478 11.9037 9.86297 11.9039 9.6044 11.9983L7.99393 12.5861L7.13538 11.1022C7.08925 11.0224 7.03339 10.9496 6.97073 10.8835C6.96507 10.8774 6.95975 10.871 6.95381 10.8652C6.83236 10.7425 6.68464 10.6468 6.52039 10.5871L4.90882 10.0022L5.205 8.31358C5.2525 8.04245 5.20277 7.76199 5.06495 7.52378L4.20639 6.03984L5.51869 4.93663C5.72942 4.75952 5.87163 4.51263 5.91912 4.24159L6.2153 2.55298L7.92963 2.55138C8.20489 2.55114 8.47254 2.45346 8.68319 2.27635L9.99549 1.17318L11.3098 2.27389C11.5205 2.45041 11.7879 2.54759 12.0629 2.54759H12.0638L13.7783 2.54602L14.0775 4.23416C14.1255 4.50517 14.2682 4.75166 14.4792 4.92842L15.7935 6.02921L14.9377 7.51475Z" fill="#949DA6"/>
<path d="M9.99928 3.64673C8.13493 3.64673 6.61816 5.1635 6.61816 7.02785C6.61816 8.89221 8.13493 10.409 9.99928 10.409C11.8636 10.409 13.3804 8.89221 13.3804 7.02785C13.3804 5.1635 11.8636 3.64673 9.99928 3.64673ZM9.99928 9.23631C8.78154 9.23631 7.79083 8.2456 7.79083 7.02785C7.79083 5.81011 8.78154 4.8194 9.99928 4.8194C11.217 4.8194 12.2078 5.81011 12.2078 7.02785C12.2078 8.2456 11.217 9.23631 9.99928 9.23631Z" fill="#949DA6"/>
</g>
<defs>
<clipPath id="clip0_256_3041">
<rect width="20" height="20" fill="white"/>
</clipPath>
</defs>
</svg>
