<svg width="25" height="25" viewBox="0 0 25 25" fill="none" xmlns="http://www.w3.org/2000/svg">
<path d="M23.6816 18.7988H22.8721C22.9534 18.5696 22.998 18.3231 22.998 18.0664V9.27734C22.998 8.06577 22.0124 7.08008 20.8008 7.08008H16.3574V5.46875V2.68555H18.0176V3.51562C18.0176 3.92012 18.3455 4.24805 18.75 4.24805C19.1545 4.24805 19.4824 3.92012 19.4824 3.51562V1.95312C19.4824 1.54863 19.1545 1.2207 18.75 1.2207H6.25C5.84551 1.2207 5.51758 1.54863 5.51758 1.95312C5.51758 2.35762 5.84551 2.68555 6.25 2.68555H8.64258V5.46875V7.08008H4.19922C2.98765 7.08008 2.00195 8.06577 2.00195 9.27734V18.0664C2.00195 18.3231 2.04663 18.5696 2.12793 18.7988H1.31836C0.591406 18.7988 0 19.3902 0 20.1172C0 22.1365 1.64282 23.7793 3.66211 23.7793H21.3379C23.3572 23.7793 25 22.1365 25 20.1172C25 19.3902 24.4086 18.7988 23.6816 18.7988ZM20.8008 8.54492C21.2046 8.54492 21.5332 8.87349 21.5332 9.27734V18.0664C21.5332 18.4703 21.2046 18.7988 20.8008 18.7988H18.5797C18.3786 17.811 17.8897 15.8416 16.9268 14.1271C16.915 14.1026 16.9021 14.0784 16.8874 14.0548C16.8845 14.0502 16.8812 14.0462 16.8783 14.0417C16.3407 13.105 15.6592 12.2516 14.803 11.6863C15.7458 10.9824 16.3574 9.85815 16.3574 8.59375V8.54492H20.8008ZM7.92012 18.7988C8.08066 18.0797 8.3688 16.9929 8.82837 15.9115C8.89077 15.7646 8.9543 15.6225 9.01885 15.4849L11.7676 17.2028V18.7988H7.92012ZM12.5 12.4512C13.5385 12.4512 14.4633 13.0406 15.262 14.2069L12.5 15.9332L9.73794 14.2069C10.5366 13.0407 11.4613 12.4512 12.5 12.4512ZM10.1074 8.59375V6.20117H14.8926V8.59375C14.8926 9.91304 13.8193 10.9863 12.5 10.9863C11.1807 10.9863 10.1074 9.91304 10.1074 8.59375ZM13.2324 17.2028L15.9811 15.4849C16.0422 15.6152 16.1024 15.7495 16.1617 15.8881C16.6255 16.9735 16.9172 18.073 17.0794 18.7988H13.2324V17.2028ZM14.8926 2.68555V4.73633H10.1074V2.68555H14.8926ZM3.4668 18.0664V9.27734C3.4668 8.87349 3.79536 8.54492 4.19922 8.54492H8.64258V8.59375C8.64258 9.85815 9.25415 10.9824 10.197 11.6863C9.34072 12.2516 8.65928 13.1051 8.12168 14.0418C8.11875 14.0462 8.11543 14.0502 8.1126 14.0548C8.09785 14.0784 8.08491 14.1026 8.07314 14.1271C7.1102 15.8415 6.62134 17.811 6.42026 18.7988H4.19922C3.79536 18.7988 3.4668 18.4703 3.4668 18.0664ZM21.3379 22.3145H3.66211C2.49976 22.3145 1.54536 21.4072 1.46968 20.2637H23.5303C23.4546 21.4072 22.5002 22.3145 21.3379 22.3145Z" fill="#949DA6"/>
</svg>
