<svg width="16" height="16" viewBox="0 0 16 16" fill="none" xmlns="http://www.w3.org/2000/svg">
<g clip-path="url(#clip0_256_2981)">
<path d="M15.7262 1.94825C13.4059 0.396725 10.401 0.315126 8.00002 1.73839C5.59897 0.315126 2.59406 0.396725 0.273859 1.94825C0.102729 2.06241 -3.54271e-05 2.25456 6.30651e-07 2.46027V14.6553C-0.000323889 14.8826 0.124616 15.0914 0.324917 15.1987C0.525109 15.3058 0.768066 15.294 0.9569 15.168C2.98471 13.8111 5.63063 13.8111 7.65844 15.168C7.66645 15.1735 7.67568 15.1747 7.68368 15.1796C7.69169 15.1846 7.7003 15.1932 7.70953 15.1987C7.73102 15.2079 7.75302 15.2159 7.77538 15.2227C7.79773 15.2329 7.82077 15.2415 7.84428 15.2486C7.87828 15.2564 7.91286 15.2616 7.94766 15.264C7.96551 15.264 7.98213 15.2714 7.99998 15.2714C8.00492 15.2714 8.00982 15.2714 8.01538 15.2714C8.03604 15.2699 8.05655 15.2672 8.07693 15.2634C8.10808 15.2602 8.13895 15.2547 8.16923 15.2467C8.19018 15.2399 8.21074 15.2319 8.23078 15.2227C8.24986 15.2147 8.27016 15.2104 8.28862 15.2006C8.29724 15.1956 8.30402 15.1883 8.31264 15.1827C8.32125 15.1772 8.3311 15.1753 8.33971 15.1698C10.3675 13.8129 13.0134 13.8129 15.0413 15.1698C15.3233 15.3595 15.7057 15.2846 15.8953 15.0026C15.9643 14.9 16.0008 14.779 16 14.6554V2.46027C16 2.25456 15.8973 2.06241 15.7262 1.94825ZM7.38462 13.6036C5.43516 12.6896 3.18022 12.6896 1.23076 13.6036V2.79993C3.12732 1.67313 5.48806 1.67313 7.38462 2.79993V13.6036ZM14.7692 13.6036C12.8198 12.6896 10.5648 12.6896 8.61538 13.6036V2.79993C10.5119 1.67313 12.8727 1.67313 14.7692 2.79993V13.6036Z" fill="#949DA6"/>
</g>
<defs>
<clipPath id="clip0_256_2981">
<rect width="16" height="16" fill="white"/>
</clipPath>
</defs>
</svg>
