<svg width="25" height="25" viewBox="0 0 25 25" fill="none" xmlns="http://www.w3.org/2000/svg">
<path d="M22.998 12.8327C24.1184 12.7334 25 11.7903 25 10.6445V3.80859C25 2.59702 24.0143 1.61133 22.8027 1.61133H15.5273C14.3158 1.61133 13.3301 2.59702 13.3301 3.80859V6.68945H4.19922C2.98765 6.68945 2.00195 7.67515 2.00195 8.88672V17.6758C2.00195 17.9325 2.04663 18.179 2.12793 18.4082H1.31836C0.591406 18.4082 0 18.9996 0 19.7266C0 21.7458 1.64282 23.3887 3.66211 23.3887H21.3379C23.3572 23.3887 25 21.7458 25 19.7266C25 18.9996 24.4086 18.4082 23.6816 18.4082H22.8721C22.9534 18.179 22.998 17.9325 22.998 17.6758V12.8327ZM14.7949 3.80859C14.7949 3.40474 15.1235 3.07617 15.5273 3.07617H22.8027C23.2066 3.07617 23.5352 3.40474 23.5352 3.80859V10.6445C23.5352 11.0484 23.2066 11.377 22.8027 11.377H16.0156C15.8783 11.377 15.7438 11.4155 15.6274 11.4883L14.1507 12.4113L14.7641 10.3667C14.7845 10.2984 14.7949 10.2275 14.7949 10.1562V3.80859ZM21.3379 21.9238H3.66211C2.49976 21.9238 1.54536 21.0166 1.46968 19.873H23.5303C23.4546 21.0166 22.5002 21.9238 21.3379 21.9238ZM6.98242 12.8906C6.98242 12.4329 7.35478 12.0605 7.8125 12.0605C8.27022 12.0605 8.64258 12.4329 8.64258 12.8906C8.64258 13.3483 8.27022 13.7207 7.8125 13.7207C7.35478 13.7207 6.98242 13.3483 6.98242 12.8906ZM6.5918 16.0156C6.5918 15.5734 7.16221 15.1855 7.8125 15.1855C8.16123 15.1855 8.49722 15.2943 8.73433 15.484C8.846 15.5733 9.0332 15.7611 9.0332 16.0156V18.4082H6.5918V16.0156ZM10.498 18.4082V16.0156C10.498 15.3823 10.1888 14.7716 9.64941 14.3402C9.6373 14.3305 9.62466 14.3214 9.61235 14.3119C9.92192 13.9207 10.1074 13.4271 10.1074 12.8906C10.1074 11.6252 9.07793 10.5957 7.8125 10.5957C6.54707 10.5957 5.51758 11.6252 5.51758 12.8906C5.51758 13.4277 5.70352 13.9218 6.01367 14.3132C5.46953 14.7334 5.12695 15.341 5.12695 16.0156V18.4082H4.19922C3.79536 18.4082 3.4668 18.0796 3.4668 17.6758V8.88672C3.4668 8.48286 3.79536 8.1543 4.19922 8.1543H13.3301V10.0488L12.7476 11.9903C12.5707 12.58 12.7726 13.2023 13.262 13.5758C13.5256 13.777 13.8368 13.8786 14.1495 13.8786C14.4172 13.8786 14.6861 13.804 14.927 13.6535L16.2257 12.8418H21.5332V17.6758C21.5332 18.0796 21.2046 18.4082 20.8008 18.4082H10.498Z" fill="white"/>
<path d="M19.9219 8.25195H18.3594C17.9549 8.25195 17.627 8.57988 17.627 8.98438C17.627 9.38887 17.9549 9.7168 18.3594 9.7168H19.9219C20.3264 9.7168 20.6543 9.38887 20.6543 8.98438C20.6543 8.57988 20.3264 8.25195 19.9219 8.25195Z" fill="white"/>
<path d="M17.1875 6.20117H21.0938C21.4982 6.20117 21.8262 5.87324 21.8262 5.46875C21.8262 5.06426 21.4982 4.73633 21.0938 4.73633H17.1875C16.783 4.73633 16.4551 5.06426 16.4551 5.46875C16.4551 5.87324 16.783 6.20117 17.1875 6.20117Z" fill="white"/>
</svg>
