<svg width="15" height="15" viewBox="0 0 15 15" fill="none" xmlns="http://www.w3.org/2000/svg">
<g clip-path="url(#clip0_309_7)">
<path d="M14.2482 0.752813C13.7627 0.267363 13.1173 0 12.4308 0C11.7443 0 11.0988 0.267363 10.6134 0.752813L1.22895 10.1372C1.1732 10.193 1.13189 10.263 1.1108 10.3418L0.0165312 14.4258C-0.0256563 14.5832 0.0193729 14.7511 0.134598 14.8663C0.221258 14.9531 0.337771 15 0.457156 15C0.496502 15 0.53617 14.9949 0.575193 14.9845L4.65912 13.8902C4.73787 13.8691 4.80798 13.8278 4.8637 13.7721L14.2481 4.38762C14.7336 3.90217 15.0009 3.25676 15.0009 2.57024C15.0009 1.88367 14.7336 1.23826 14.2482 0.752813ZM10.3108 2.34574L11.1603 3.19532L3.04612 11.3095L2.19654 10.4599L10.3108 2.34574ZM1.1023 13.8987L1.78759 11.3412L3.65983 13.2134L1.1023 13.8987ZM4.54105 12.8044L3.69124 11.9546L11.8054 3.84041L12.6552 4.69017L4.54105 12.8044ZM13.603 3.74247L13.3004 4.04514L10.9559 1.70063L11.2586 1.39796C11.5717 1.08483 11.988 0.912363 12.4308 0.912363C12.8736 0.912363 13.2899 1.08483 13.603 1.39796C14.2494 2.04431 14.2494 3.09609 13.603 3.74247Z" fill="#949DA6"/>
</g>
<defs>
<clipPath id="clip0_309_7">
<rect width="15" height="15" fill="white"/>
</clipPath>
</defs>
</svg>
