<svg width="25" height="25" viewBox="0 0 25 25" fill="none" xmlns="http://www.w3.org/2000/svg">
<path d="M22.8027 2.44141H2.19727C0.985693 2.44141 0 3.4271 0 4.63867V15.7715C0 16.9831 0.985693 17.9688 2.19727 17.9688H3.17383V21.0938C3.17383 21.9015 3.83096 22.5586 4.63867 22.5586H10.2051C11.0128 22.5586 11.6699 21.9015 11.6699 21.0938V17.9688H22.8027C24.0143 17.9688 25 16.9831 25 15.7715V4.63867C25 3.4271 24.0143 2.44141 22.8027 2.44141ZM10.2051 21.0938H4.63867V16.8457C4.63867 15.2856 5.67974 13.6719 7.42188 13.6719C9.16401 13.6719 10.2051 15.2856 10.2051 16.8457V21.0938ZM5.41992 10.2051C5.41992 9.10122 6.31802 8.20312 7.42188 8.20312C8.52573 8.20312 9.42383 9.10122 9.42383 10.2051C9.42383 11.3089 8.52573 12.207 7.42188 12.207C6.31802 12.207 5.41992 11.3089 5.41992 10.2051ZM23.5352 15.7715C23.5352 16.1753 23.2066 16.5039 22.8027 16.5039H11.6569C11.585 15.4706 11.1919 14.4613 10.5518 13.6918C10.2811 13.3663 9.97383 13.0907 9.63833 12.8685C10.4018 12.232 10.8887 11.2744 10.8887 10.2051C10.8887 8.29351 9.33345 6.73828 7.42188 6.73828C5.5103 6.73828 3.95508 8.29351 3.95508 10.2051C3.95508 11.2744 4.44199 12.232 5.20547 12.8684C4.86992 13.0907 4.5627 13.3663 4.29199 13.6917C3.65186 14.4613 3.25879 15.4706 3.18687 16.5039H2.19727C1.79341 16.5039 1.46484 16.1753 1.46484 15.7715V4.63867C1.46484 4.23481 1.79341 3.90625 2.19727 3.90625H22.8027C23.2066 3.90625 23.5352 4.23481 23.5352 4.63867V15.7715Z" fill="white"/>
<path d="M21.0938 6.34766H17.1875C16.783 6.34766 16.4551 6.67559 16.4551 7.08008C16.4551 7.48457 16.783 7.8125 17.1875 7.8125H21.0938C21.4982 7.8125 21.8262 7.48457 21.8262 7.08008C21.8262 6.67559 21.4982 6.34766 21.0938 6.34766Z" fill="white"/>
<path d="M21.0938 9.47266H17.1875C16.783 9.47266 16.4551 9.80059 16.4551 10.2051C16.4551 10.6096 16.783 10.9375 17.1875 10.9375H21.0938C21.4982 10.9375 21.8262 10.6096 21.8262 10.2051C21.8262 9.80059 21.4982 9.47266 21.0938 9.47266Z" fill="white"/>
<path d="M21.0938 12.5977H17.1875C16.783 12.5977 16.4551 12.9256 16.4551 13.3301C16.4551 13.7346 16.783 14.0625 17.1875 14.0625H21.0938C21.4982 14.0625 21.8262 13.7346 21.8262 13.3301C21.8262 12.9256 21.4982 12.5977 21.0938 12.5977Z" fill="white"/>
<path d="M14.0625 14.0625C14.467 14.0625 14.7949 13.7346 14.7949 13.3301C14.7949 12.9256 14.467 12.5977 14.0625 12.5977C13.658 12.5977 13.3301 12.9256 13.3301 13.3301C13.3301 13.7346 13.658 14.0625 14.0625 14.0625Z" fill="white"/>
<path d="M14.0625 10.9375C14.467 10.9375 14.7949 10.6096 14.7949 10.2051C14.7949 9.80057 14.467 9.47266 14.0625 9.47266C13.658 9.47266 13.3301 9.80057 13.3301 10.2051C13.3301 10.6096 13.658 10.9375 14.0625 10.9375Z" fill="white"/>
<path d="M14.0625 7.81262C14.467 7.81262 14.7949 7.48471 14.7949 7.0802C14.7949 6.67569 14.467 6.34778 14.0625 6.34778C13.658 6.34778 13.3301 6.67569 13.3301 7.0802C13.3301 7.48471 13.658 7.81262 14.0625 7.81262Z" fill="white"/>
</svg>
