<svg width="30" height="30" viewBox="0 0 30 30" fill="none" xmlns="http://www.w3.org/2000/svg">
<g clip-path="url(#clip0_264_1441)">
<path d="M29.4738 11.5819C29.2385 10.8577 28.5637 10.3674 27.8022 10.3674L19.2995 10.3673L16.6718 2.28068C16.4365 1.55651 15.7617 1.06616 15.0002 1.06616C14.812 1.06616 14.6292 1.09634 14.457 1.15235L15.0002 14.9993L23.2748 28.8936C23.5117 28.8437 23.7407 28.7455 23.9454 28.5968C24.5614 28.1492 24.8192 27.3559 24.5839 26.6316L21.9565 18.545L28.8353 13.5471C29.4514 13.0995 29.7092 12.3061 29.4738 11.5819Z" fill="#FFB820"/>
<path d="M27.8013 12.1251L18.0215 12.125L14.4561 1.15234C13.9312 1.32302 13.5048 1.73544 13.3276 2.28074L10.7 10.3673L2.19724 10.3674C1.43574 10.3674 0.760899 10.8577 0.5256 11.5819C0.290301 12.3061 0.54804 13.0995 1.16412 13.5471L8.04293 18.545L5.41556 26.6316C5.1802 27.3558 5.438 28.1492 6.05408 28.5967C6.6701 29.0443 7.50431 29.0443 8.12038 28.5967L14.9993 23.5991L21.8782 28.5968C22.2896 28.8957 22.798 28.9938 23.274 28.8936L19.8894 17.8736L27.8013 12.1251Z" fill="#FFD06A"/>
<path d="M22.9121 29.3731C22.4594 29.3731 22.0069 29.2328 21.6206 28.9521L15 24.1421L8.37932 28.9521C7.60692 29.5134 6.56887 29.5133 5.79642 28.9521C5.02396 28.3909 4.70318 27.4038 4.99824 26.4957L7.52694 18.7127L5.05695 16.9181C4.86061 16.7754 4.81708 16.5006 4.95975 16.3043C5.10236 16.1078 5.37709 16.0642 5.57354 16.2071L8.30192 18.1894C8.4559 18.3013 8.52035 18.4997 8.46152 18.6807L5.83415 26.7673C5.65715 27.3121 5.84962 27.9044 6.31307 28.2411C6.77652 28.5778 7.39934 28.578 7.86279 28.2411L14.7417 23.2435C14.8957 23.1316 15.1043 23.1316 15.2582 23.2435L22.1372 28.2412C22.6006 28.5779 23.2234 28.5779 23.6869 28.2412C24.1503 27.9044 24.3428 27.3121 24.1658 26.7673L21.5384 18.6807C21.4796 18.4997 21.5441 18.3013 21.698 18.1894L28.5769 13.1915C29.0404 12.8548 29.2328 12.2625 29.0558 11.7177C28.8788 11.1728 28.3749 10.8067 27.802 10.8067L19.2993 10.8066C19.109 10.8066 18.9402 10.684 18.8814 10.5029L16.2538 2.41641C16.0768 1.87158 15.5729 1.50557 15 1.50557C14.4272 1.50557 13.9233 1.87164 13.7463 2.41653L11.1187 10.503C11.0598 10.6841 10.8911 10.8067 10.7007 10.8067L2.19797 10.8068C1.62513 10.8068 1.12125 11.1729 0.944251 11.7177C0.767249 12.2626 0.959661 12.8548 1.42317 13.1916L4.15155 15.174C4.34789 15.3166 4.39142 15.5914 4.24875 15.7877C4.10614 15.984 3.83129 16.0277 3.63496 15.8849L0.906519 13.9026C0.134121 13.3412 -0.186661 12.3541 0.1084 11.4461C0.403462 10.538 1.24318 9.92788 2.19797 9.92788L10.3815 9.92776L12.9104 2.1449C13.2055 1.23681 14.0452 0.626709 15 0.626709C15.9549 0.626709 16.7946 1.23681 17.0896 2.14485L19.6186 9.92776L27.802 9.92788C28.7569 9.92788 29.5966 10.538 29.8916 11.4461C30.1867 12.3541 29.866 13.3413 29.0935 13.9025L22.473 18.7128L25.0017 26.4958C25.2968 27.4038 24.976 28.391 24.2035 28.9523C23.8173 29.2328 23.3646 29.3731 22.9121 29.3731Z" fill="black"/>
</g>
<defs>
<clipPath id="clip0_264_1441">
<rect width="30" height="30" fill="white"/>
</clipPath>
</defs>
</svg>
