<svg width="30" height="30" viewBox="0 0 30 30" fill="none" xmlns="http://www.w3.org/2000/svg">
<g clip-path="url(#clip0_264_1410)">
<path d="M26.791 23.5866C25.7884 22.6739 25.0512 21.7007 24.5092 20.7683C24.3178 20.439 24.4139 20.0207 24.7217 19.7962C27.3923 17.8486 29.126 14.6936 29.1199 11.1338C29.1097 5.21907 24.3432 0.461123 18.4285 0.461182C14.396 0.461182 10.8855 2.69408 9.06445 5.99051L20.6419 22.0673C22.6827 23.4597 24.9597 24.0686 26.4226 24.3314C26.8488 24.4081 27.1113 23.8781 26.791 23.5866Z" fill="#DFEBFA"/>
<path d="M9.51953 6.62305L20.6414 22.0673C21.1802 22.4349 21.7354 22.7474 22.2878 23.0139C23.7299 21.1917 24.5912 18.8887 24.5912 16.3845C24.5912 10.4798 19.8046 5.69317 13.8999 5.69312C12.3374 5.69312 10.8552 6.02539 9.51953 6.62305Z" fill="#B1DBFC"/>
<path d="M11.5839 5.69312C5.66928 5.69312 0.902727 10.451 0.892594 16.3657C0.886503 19.9255 2.6202 23.0806 5.29074 25.0282C5.59853 25.2526 5.69464 25.6709 5.50323 26.0003C4.96134 26.9326 4.22416 27.9058 3.22149 28.8185C2.90122 29.11 3.16374 29.64 3.59002 29.5634C5.09494 29.293 7.46179 28.6565 9.54644 27.1772C9.7604 27.0253 10.0249 26.9654 10.2854 26.9971C10.7111 27.0489 11.1444 27.0758 11.5839 27.0758C17.4886 27.0758 22.2753 22.2891 22.2753 16.3845C22.2752 10.4798 17.4886 5.69317 11.5839 5.69312Z" fill="#FEE55A"/>
<path d="M5.53662 28.8185C6.53929 27.9058 7.27647 26.9326 7.81842 26.0002C8.00983 25.6709 7.91372 25.2526 7.60593 25.0281C4.93539 23.0805 3.20163 19.9254 3.20778 16.3657C3.21727 10.8431 7.37352 6.32961 12.7391 5.75538C12.3597 5.71461 11.9744 5.69312 11.5841 5.69312C5.66928 5.69306 0.902727 10.4509 0.892594 16.3657C0.886503 19.9254 2.6202 23.0805 5.29074 25.0281C5.59853 25.2526 5.69464 25.6709 5.50323 26.0002C4.96134 26.9326 4.22416 27.9058 3.22149 28.8185C2.90122 29.11 3.16374 29.6399 3.59002 29.5634C4.10562 29.4707 4.72248 29.3351 5.39441 29.1373C5.393 29.0249 5.43611 28.91 5.53662 28.8185Z" fill="#FFD301"/>
<path d="M12.0742 27.0642C12.3009 27.054 12.5258 27.0367 12.7486 27.0126C12.6999 27.0073 12.651 27.0029 12.6026 26.9971C12.4222 26.9751 12.2403 26.9982 12.0742 27.0642Z" fill="#FFD301"/>
<path d="M17.4635 18.2205H5.70498C5.25293 18.2205 4.94292 18.6812 5.11798 19.0981C6.17864 21.6231 8.67376 23.3968 11.5843 23.3968C14.4948 23.3968 16.9899 21.6231 18.0505 19.0981C18.2256 18.6813 17.9157 18.2205 17.4635 18.2205Z" fill="#DFEBFA"/>
<path d="M7.63261 19.0981C7.45754 18.6812 7.7675 18.2205 8.2196 18.2205H5.70498C5.25293 18.2205 4.94292 18.6812 5.11798 19.0981C6.17864 21.6231 8.67376 23.3968 11.5843 23.3968C12.0136 23.3968 12.4335 23.3573 12.8416 23.2834C10.4838 22.8562 8.53683 21.2507 7.63261 19.0981Z" fill="#B1DBFC"/>
<path d="M4.70725 19.2575C7.25907 25.3322 15.8946 25.3406 18.4499 19.2575C18.7467 18.551 18.2225 17.7705 17.4578 17.7705H5.69933C4.93293 17.7704 4.41106 18.5523 4.70725 19.2575ZM5.69933 18.649H17.4579C17.5947 18.649 17.694 18.7884 17.6399 18.9172C15.3889 24.276 7.77145 24.2835 5.51729 18.9172C5.46311 18.7882 5.56274 18.649 5.69933 18.649Z" fill="black"/>
<path d="M6.15005 13.8513C6.15005 12.9804 6.85864 12.2719 7.72953 12.2719C8.60042 12.2719 9.30895 12.9804 9.30895 13.8513C9.30895 14.0939 9.50557 14.2906 9.74823 14.2906C9.99089 14.2906 10.1875 14.0939 10.1875 13.8513C10.1875 12.496 9.08486 11.3933 7.72953 11.3933C6.37414 11.3933 5.27148 12.496 5.27148 13.8513C5.27148 14.0939 5.46811 14.2906 5.71077 14.2906C5.95343 14.2906 6.15005 14.094 6.15005 13.8513Z" fill="black"/>
<path d="M13.8454 13.8513C13.8454 12.9804 14.554 12.2719 15.4248 12.2719C16.2957 12.2719 17.0043 12.9804 17.0043 13.8513C17.0043 14.0939 17.2009 14.2906 17.4435 14.2906C17.6862 14.2906 17.8828 14.0939 17.8828 13.8513C17.8828 12.496 16.7802 11.3933 15.4248 11.3933C14.0695 11.3933 12.9668 12.496 12.9668 13.8513C12.9668 14.0939 13.1634 14.2906 13.4061 14.2906C13.6487 14.2906 13.8454 14.094 13.8454 13.8513Z" fill="black"/>
<path d="M13.033 2.41998C13.2393 2.29224 13.3029 2.02152 13.1752 1.81523C13.0475 1.60901 12.7769 1.5454 12.5705 1.67308C10.9996 2.646 9.69006 4.00022 8.77073 5.59651C4.06977 6.80571 0.456302 11.0747 0.447282 16.3541C0.441074 19.9371 2.15158 23.276 5.02583 25.3723C5.15474 25.4663 5.19416 25.6367 5.11737 25.7687C4.53289 26.7744 3.79344 27.6876 2.91973 28.4828C2.27504 29.0697 2.80242 30.1394 3.66159 29.985C5.29021 29.6923 7.67622 29.028 9.79455 27.5247C9.91468 27.4395 10.0679 27.4032 10.2263 27.4224C12.242 27.6676 14.2982 27.3684 16.1886 26.507C16.4094 26.4063 16.5068 26.1458 16.4062 25.9251C16.3056 25.7043 16.0452 25.6069 15.8242 25.7075C14.0715 26.5062 12.1757 26.7745 10.3323 26.5502C9.95638 26.5047 9.58486 26.5962 9.28609 26.8082C7.31196 28.2091 5.07397 28.8359 3.52963 29.1157C4.46179 28.2638 5.25138 27.2865 5.87698 26.2102C6.18061 25.688 6.03723 25.0225 5.54353 24.6624C2.89689 22.7322 1.32028 19.6269 1.32585 16.3556C1.33551 10.7125 5.93461 6.12154 11.578 6.1216C17.2309 6.1216 21.8299 10.7206 21.8299 16.3736C21.8299 19.6792 20.2213 22.8008 17.5267 24.724C17.3293 24.8649 17.2835 25.1393 17.4244 25.3367C17.5653 25.5342 17.8396 25.58 18.0372 25.4391C19.1129 24.6713 20.0285 23.727 20.7571 22.662C22.7355 23.9113 24.863 24.4881 26.3376 24.753C27.1961 24.9072 27.7248 23.8383 27.0795 23.2509C26.2056 22.4555 25.4662 21.5423 24.8818 20.5367C24.805 20.4048 24.8444 20.2343 24.9734 20.1403C27.8405 18.0493 29.5582 14.7156 29.552 11.1221C29.5386 3.29678 21.7272 -2.00476 14.4927 0.726051C14.2657 0.811681 14.1512 1.06518 14.2369 1.29214C14.3226 1.5191 14.5762 1.63367 14.8029 1.54798C21.5092 -0.983281 28.6612 4.00637 28.6733 11.1236C28.679 14.3949 27.1023 17.5002 24.4557 19.4304C23.9619 19.7905 23.8186 20.4559 24.1222 20.9782C24.747 22.0531 25.5355 23.0295 26.4695 23.884C25.0738 23.6311 23.0733 23.0862 21.224 21.9178C22.1817 20.2509 22.7084 18.3426 22.7084 16.3736C22.7084 9.65301 16.7459 4.37982 9.95562 5.35912C10.7627 4.18103 11.8125 3.17584 13.033 2.41998Z" fill="black"/>
</g>
<defs>
<clipPath id="clip0_264_1410">
<rect width="30" height="30" fill="white"/>
</clipPath>
</defs>
</svg>
