<svg width="36" height="36" viewBox="0 0 36 36" fill="none" xmlns="http://www.w3.org/2000/svg">
<rect width="36" height="36" fill="#F7F9FB"/>
<circle cx="18" cy="18" r="18" fill="#949DA6"/>
<path d="M21.2437 12.2072C20.0203 12.2072 18.874 12.6648 18 13.4835C17.126 12.6648 15.9797 12.2072 14.7563 12.2072C12.1337 12.2072 10 14.3409 10 16.9636C10 18.2554 10.4252 19.5272 11.2637 20.7436C11.912 21.684 12.8089 22.593 13.9294 23.4454C15.809 24.8753 17.6647 25.6542 17.7429 25.6867L17.9981 25.7928L18.2538 25.6881C18.332 25.6561 20.1889 24.8882 22.0696 23.4635C23.1907 22.6141 24.0881 21.7054 24.7367 20.7624C25.575 19.5438 26 18.2657 26 16.9636C26 14.3409 23.8663 12.2072 21.2437 12.2072ZM18.0014 24.3352C16.7496 23.7555 11.3397 21.0142 11.3397 16.9636C11.3397 15.0796 12.8724 13.5469 14.7563 13.5469C15.827 13.5469 16.8156 14.035 17.4686 14.8859L18 15.5784L18.5314 14.8859C19.1845 14.035 20.173 13.5469 21.2437 13.5469C23.1276 13.5469 24.6604 15.0796 24.6604 16.9636C24.6603 21.0433 19.2527 23.7612 18.0014 24.3352Z" fill="white"/>
<path d="M13.2727 15.2121C14.9515 15.6432 16.6628 15.9531 18.3502 16.3502C18.7481 16.4438 18.3623 16.4848 18.1818 16.4848" stroke="white" stroke-width="3" stroke-linecap="round"/>
<path d="M14.7879 15.3939C14.7985 14.9704 15.0604 14.8485 15.4545 14.8485C15.8559 14.8485 16.0183 14.9345 16.3502 15.1515C16.5004 15.2497 16.531 15.4161 16.6936 15.5017C17.0509 15.6897 17.4962 15.7972 17.8384 16C18.0917 16.1501 18.5233 16.0564 18.8148 16.0606C19.141 16.0653 19.4503 16.2096 19.67 15.8923C19.7713 15.746 19.8462 15.7227 20 15.6498C20.3024 15.5066 20.5578 15.2936 20.8754 15.1515C21.0903 15.0554 21.2948 15.1352 21.4411 14.9091C21.5137 14.7969 21.0068 14.8485 20.8956 14.8485C20.7183 14.8485 20.541 14.8485 20.3636 14.8485C19.8538 14.8485 20.5961 14.8146 20.734 14.8013C21.1098 14.7652 21.4832 14.6756 21.8182 14.4983C22.0381 14.3819 22.0445 14.3475 22.2424 14.5455" stroke="white" stroke-width="3" stroke-linecap="round"/>
<path d="M14.1818 15.3333C14.1818 15.1467 14.1747 15.0039 14.1246 14.8283C14.1214 14.8173 14.0376 14.9824 14.0202 15.0101C13.7292 15.4736 13.2877 15.8119 12.7609 15.8822C12.5105 15.9155 12.5455 16.3338 12.5455 16.5185C12.5455 17.1056 13.1026 15.9295 13.1785 15.7912C13.2755 15.6142 13.4495 15.3245 13.6364 15.2256C13.7357 15.173 13.9749 15.103 14.0034 15.0034C14.0613 14.8006 14.2982 14.7184 14.4848 14.7273C14.7632 14.7405 14.7999 14.8661 14.9091 15.0572C15.1463 15.4724 14.3826 16.228 14.1987 16.5556C14.0582 16.8058 13.824 17.0844 13.7441 17.3603C13.6995 17.5144 13.7513 17.7992 13.5421 17.8182C13.3561 17.8351 13.1907 17.7576 13 17.7576C12.8098 17.7576 12.6559 17.7539 12.4848 17.6835C12.3054 17.6096 12.5628 18.3473 12.6061 18.4276C12.7247 18.648 12.9379 18.91 13.0168 19.138C13.0425 19.2122 13.0171 19.2891 13.0337 19.3636C13.0547 19.4582 13.1729 19.4572 13.2121 19.5455C13.2911 19.7232 13.4451 19.8548 13.5758 20C13.9084 20.3696 14.1592 20.851 14.5724 21.1515C14.6838 21.2325 14.9542 21.6303 14.9697 21.2121C14.9936 20.5679 14.9336 19.9671 14.8552 19.3401C14.7742 18.6923 15.0166 17.7155 15.569 17.3165C15.7868 17.1592 16.0366 17.339 16.1818 17.4882C16.6507 17.9697 16.7008 18.5966 16.5118 19.2323C16.396 19.6216 16.2024 19.9773 16.1347 20.3838C16.1095 20.5351 16.1049 20.5981 16.0303 20.7306C15.9087 20.9468 15.7825 21.154 15.697 21.3805C15.6048 21.6244 15.47 22.0025 15.5185 22.2694C15.5402 22.3889 15.9614 22.5057 16.0606 22.532C16.2352 22.5782 16.408 22.6328 16.5758 22.67C16.6988 22.6974 16.8749 22.841 17.0168 22.8956C17.2124 22.9708 17.3252 23.0909 17.5758 23.0909C17.7817 23.0909 17.9983 23.0598 18.1818 23.1515" stroke="white" stroke-width="3" stroke-linecap="round"/>
<path d="M20.5455 16.6667C21.0595 16.6667 21.6178 16.6005 22.1279 16.6734C22.3581 16.7063 22.5267 16.7879 22.7643 16.7879C23.1229 16.7879 23.3333 16.5139 23.3333 16.1818C23.3333 15.9171 23.3128 15.6422 23.0673 15.4949C22.8301 15.3526 23.349 15.9787 23.4209 16.2458C23.4904 16.5041 23.7119 16.7189 23.7542 16.9731C23.8149 17.3373 23.697 17.7371 23.697 18.1077C23.697 18.4677 23.1241 18.6052 22.9697 18.8754C22.9316 18.9422 22.8129 18.9682 22.7542 19.0168C22.6347 19.1159 22.5572 19.3133 22.4983 19.4545C22.4169 19.6501 22.426 19.8254 22.303 20.0135C22.0486 20.4026 21.837 20.8884 21.4613 21.1919C21.0446 21.5285 20.5074 21.6811 20.1279 22.0606C19.9228 22.2657 19.5409 22.5893 19.2391 22.6061C18.9838 22.6202 18.9764 22.2489 18.9764 22.0572C18.9764 21.584 19.2717 21.2755 19.4781 20.8855C19.6095 20.6374 19.4944 20.3297 19.6397 20.0572C19.8719 19.6218 20.3483 19.4853 20.5758 19.0303C20.7302 18.7215 20.8469 18.3487 21.0572 18.0741C21.2022 17.8848 21.6882 17.566 21.2593 17.5017C20.7525 17.4257 20.244 17.5277 19.7407 17.6027C19.4195 17.6505 19.3224 17.6622 19.101 17.9057C18.6993 18.3476 18.303 18.7443 18.303 19.3805C18.303 19.6518 18.2761 19.8418 18.1212 20.0741C18.0483 20.1835 17.9974 20.4242 17.8788 20.4242" stroke="white" stroke-width="3" stroke-linecap="round"/>
</svg>
