<svg width="36" height="36" viewBox="0 0 36 36" fill="none" xmlns="http://www.w3.org/2000/svg">
<rect width="36" height="36" fill="#F7F9FB"/>
<circle cx="18" cy="18" r="18" fill="#949DA6"/>
<path d="M21.2437 12.2072C20.0203 12.2072 18.874 12.6648 18 13.4835C17.126 12.6648 15.9797 12.2072 14.7563 12.2072C12.1337 12.2072 10 14.3409 10 16.9636C10 18.2554 10.4252 19.5272 11.2637 20.7436C11.912 21.684 12.8089 22.593 13.9294 23.4454C15.809 24.8753 17.6647 25.6542 17.7429 25.6867L17.9981 25.7928L18.2538 25.6881C18.332 25.6561 20.1889 24.8882 22.0696 23.4635C23.1907 22.6141 24.0881 21.7054 24.7367 20.7624C25.575 19.5438 26 18.2657 26 16.9636C26 14.3409 23.8663 12.2072 21.2437 12.2072ZM18.0014 24.3352C16.7496 23.7555 11.3397 21.0142 11.3397 16.9636C11.3397 15.0796 12.8724 13.5469 14.7563 13.5469C15.827 13.5469 16.8156 14.035 17.4686 14.8859L18 15.5784L18.5314 14.8859C19.1845 14.035 20.173 13.5469 21.2437 13.5469C23.1276 13.5469 24.6604 15.0796 24.6604 16.9636C24.6603 21.0433 19.2527 23.7612 18.0014 24.3352Z" fill="#F7F9FB"/>
</svg>
