<svg width="22" height="22" viewBox="0 0 22 22" fill="none" xmlns="http://www.w3.org/2000/svg">
<path d="M11 22C9.67317 22 8.59375 20.9205 8.59375 19.5938V18.8934C8.08401 18.7385 7.59125 18.5343 7.12027 18.2828L6.62466 18.7784C6.17031 19.2327 5.56613 19.4829 4.92336 19.4829C4.28029 19.4829 3.67593 19.2327 3.22162 18.7784C2.28366 17.8398 2.28375 16.3133 3.22167 15.3754L3.71727 14.8798C3.46577 14.4088 3.26159 13.916 3.1066 13.4063H2.40625C1.76374 13.4063 1.15955 13.1559 0.704945 12.7013C0.250336 12.2467 0 11.6425 0 11C0 9.67321 1.07942 8.59375 2.40625 8.59375H3.1066C3.26154 8.08401 3.46577 7.59125 3.71727 7.12027L3.22167 6.62466C2.76732 6.17031 2.51711 5.56613 2.51711 4.92336C2.51711 4.28033 2.76732 3.67598 3.22162 3.22162C4.16023 2.28357 5.68674 2.2837 6.62466 3.22162L7.12027 3.71723C7.59125 3.46573 8.08401 3.26154 8.59375 3.10655V2.40625C8.59375 1.76378 8.84409 1.1596 9.29865 0.704988C9.7533 0.250379 10.3575 0 11 0C11.1599 0 11.3211 0.0161133 11.4791 0.0478242C12.5964 0.274828 13.4062 1.26659 13.4062 2.40625V3.10655C13.916 3.2615 14.4088 3.46573 14.8797 3.71723L15.3753 3.22162C15.8297 2.76732 16.4339 2.51711 17.0766 2.51711C17.7197 2.51711 18.3241 2.76732 18.7784 3.22162C19.7163 4.16019 19.7163 5.68674 18.7783 6.62462L18.2827 7.12022C18.5342 7.5912 18.7384 8.08401 18.8934 8.59371H19.5938C20.2363 8.59371 20.8404 8.84409 21.2951 9.2987C21.7497 9.7533 22 10.3575 22 11C22 12.3268 20.9206 13.4062 19.5938 13.4062H18.8934C18.7385 13.916 18.5342 14.4088 18.2827 14.8797L18.7783 15.3753C19.2326 15.8297 19.4828 16.4339 19.4828 17.0766C19.4828 17.7197 19.2326 18.324 18.7783 18.7784C18.3091 19.2473 17.6927 19.4818 17.0766 19.4819C16.4603 19.4819 15.8443 19.2474 15.3753 18.7784L14.8797 18.2828C14.4087 18.5343 13.9159 18.7385 13.4062 18.8935V19.5938C13.4062 20.2362 13.1559 20.8404 12.7013 21.295C12.3656 21.6307 11.9435 21.8579 11.4806 21.9519C11.48 21.952 11.4796 21.9521 11.4791 21.9522C11.3211 21.9839 11.1599 22 11 22ZM11.3438 21.2781H11.3442H11.3438ZM7.00713 16.7363C7.1323 16.7363 7.2582 16.7704 7.37034 16.8403C8.01023 17.2388 8.70543 17.5268 9.43662 17.6965C9.74819 17.7687 9.96875 18.0464 9.96875 18.3662V19.5938C9.96875 20.1624 10.4314 20.625 11 20.625C11.0688 20.625 11.1384 20.618 11.2072 20.6043C11.4045 20.5642 11.5849 20.4668 11.7291 20.3228C11.9239 20.1279 12.0312 19.869 12.0312 19.5938V18.3661C12.0312 18.0463 12.2518 17.7687 12.5634 17.6964C13.2946 17.5268 13.9898 17.2387 14.6297 16.8402C14.901 16.6712 15.2532 16.7116 15.4792 16.9377L16.3476 17.8061C16.7496 18.208 17.4039 18.208 17.8062 17.8059C18.0007 17.6114 18.1079 17.3524 18.1079 17.0766C18.1079 16.8011 18.0007 16.5422 17.8061 16.3476L16.9377 15.4792C16.7116 15.2531 16.6713 14.901 16.8402 14.6297C17.2387 13.9898 17.5268 13.2946 17.6964 12.5634C17.7687 12.2519 18.0463 12.0313 18.3661 12.0313H19.5938C20.1624 12.0313 20.625 11.5686 20.625 11C20.625 10.7248 20.5177 10.4659 20.3228 10.271C20.1279 10.0761 19.869 9.96875 19.5938 9.96875H18.3661C18.0463 9.96875 17.7687 9.74819 17.6964 9.43662C17.5268 8.70547 17.2388 8.01028 16.8402 7.37034C16.6712 7.09895 16.7116 6.74687 16.9377 6.52081L17.8061 5.65245C18.2081 5.25048 18.2081 4.59615 17.806 4.19384C17.6115 3.99936 17.3524 3.8922 17.0766 3.8922C16.8012 3.8922 16.5422 3.9994 16.3476 4.19401L15.4792 5.06236C15.2531 5.28851 14.901 5.32881 14.6297 5.15982C13.9898 4.76132 13.2946 4.47326 12.5634 4.30362C12.2518 4.2313 12.0312 3.95368 12.0312 3.63387V2.40625C12.0312 1.9177 11.6846 1.49265 11.2069 1.39558C11.1393 1.38205 11.0692 1.375 11 1.375C10.7248 1.375 10.4659 1.48234 10.2709 1.67724C10.0761 1.87215 9.96875 2.13104 9.96875 2.40625V3.63387C9.96875 3.95368 9.74819 4.2313 9.43662 4.30358C8.70543 4.47322 8.01023 4.76128 7.37034 5.15977C7.09908 5.32881 6.74687 5.28842 6.52081 5.06232L5.65241 4.19392C5.25044 3.79195 4.59611 3.79204 4.19379 4.19409C3.99932 4.38857 3.89211 4.64763 3.89211 4.9234C3.89211 5.19887 3.99927 5.4578 4.19392 5.65241L5.06228 6.52077C5.28838 6.74687 5.32873 7.09895 5.15977 7.3703C4.76128 8.01023 4.47318 8.70543 4.30358 9.43658C4.23135 9.74819 3.95373 9.96875 3.63387 9.96875H2.40625C1.83764 9.96875 1.375 10.4314 1.375 11C1.375 11.2752 1.48234 11.5341 1.67724 11.729C1.87211 11.9239 2.13104 12.0312 2.40625 12.0312H3.63387C3.95368 12.0312 4.2313 12.2518 4.30358 12.5634C4.47318 13.2945 4.76124 13.9897 5.15977 14.6297C5.32877 14.901 5.28838 15.2531 5.06228 15.4792L4.19388 16.3475C3.79191 16.7495 3.79195 17.4038 4.19405 17.8062C4.38848 18.0006 4.64759 18.1078 4.92336 18.1078C5.19883 18.1078 5.4578 18.0006 5.65241 17.806L6.52081 16.9376C6.65345 16.805 6.8295 16.7363 7.00713 16.7363Z" fill="white"/>
<path d="M11 15.8125C8.34638 15.8125 6.1875 13.6536 6.1875 11C6.1875 8.34638 8.34638 6.1875 11 6.1875C11.1367 6.1875 11.2724 6.1933 11.4034 6.20469C12.6 6.30304 13.7127 6.84557 14.5331 7.73214C15.3581 8.62374 15.8125 9.78433 15.8125 11C15.8125 12.2157 15.3581 13.3763 14.5331 14.2679C13.7127 15.1544 12.6 15.697 11.4001 15.7956C11.2724 15.8067 11.1367 15.8125 11 15.8125ZM11 7.5625C9.10456 7.5625 7.5625 9.10456 7.5625 11C7.5625 12.8954 9.10456 14.4375 11 14.4375C11.097 14.4375 11.1926 14.4335 11.2841 14.4255C13.0538 14.28 14.4375 12.7755 14.4375 11C14.4375 9.22449 13.0538 7.71998 11.2874 7.57479C11.1926 7.56654 11.097 7.5625 11 7.5625Z" fill="white"/>
</svg>
