<svg width="20" height="20" viewBox="0 0 20 20" fill="none" xmlns="http://www.w3.org/2000/svg">
<path d="M16.0293 6.25C14.3069 6.25 12.9043 4.84833 12.9043 3.125C12.9043 1.40167 14.3069 0 16.0293 0C17.7519 0 19.1543 1.40167 19.1543 3.125C19.1543 4.84833 17.7519 6.25 16.0293 6.25ZM16.0293 1.25C14.996 1.25 14.1543 2.09076 14.1543 3.125C14.1543 4.15924 14.996 5 16.0293 5C17.0626 5 17.9043 4.15924 17.9043 3.125C17.9043 2.09076 17.0626 1.25 16.0293 1.25Z" fill="#4A8F9F"/>
<path d="M16.0293 20C14.3069 20 12.9043 18.5983 12.9043 16.875C12.9043 15.1517 14.3069 13.75 16.0293 13.75C17.7519 13.75 19.1543 15.1517 19.1543 16.875C19.1543 18.5983 17.7519 20 16.0293 20ZM16.0293 15C14.996 15 14.1543 15.8408 14.1543 16.875C14.1543 17.9092 14.996 18.75 16.0293 18.75C17.0626 18.75 17.9043 17.9092 17.9043 16.875C17.9043 15.8408 17.0626 15 16.0293 15Z" fill="#4A8F9F"/>
<path d="M3.94531 13.125C2.22275 13.125 0.820312 11.7233 0.820312 10C0.820312 8.27667 2.22275 6.875 3.94531 6.875C5.66788 6.875 7.07031 8.27667 7.07031 10C7.07031 11.7233 5.66788 13.125 3.94531 13.125ZM3.94531 8.125C2.91199 8.125 2.07031 8.96576 2.07031 10C2.07031 11.0342 2.91199 11.875 3.94531 11.875C4.97864 11.875 5.82031 11.0342 5.82031 10C5.82031 8.96576 4.97864 8.125 3.94531 8.125Z" fill="#4A8F9F"/>
<path d="M6.12163 9.39154C5.90404 9.39154 5.6924 9.27817 5.57827 9.0766C5.40737 8.77661 5.51159 8.39484 5.81157 8.22409L13.5441 3.81568C13.8432 3.64325 14.2257 3.74823 14.3957 4.04914C14.5666 4.34912 14.4624 4.73075 14.1624 4.90164L6.42986 9.30991C6.33236 9.36484 6.22661 9.39154 6.12163 9.39154Z" fill="#4A8F9F"/>
<path d="M13.8524 16.2665C13.7475 16.2665 13.6416 16.2398 13.5441 16.1841L5.81151 11.7757C5.51152 11.6049 5.40745 11.2231 5.5782 10.9232C5.74818 10.6224 6.12996 10.5182 6.42994 10.6899L14.1623 15.0981C14.4623 15.269 14.5665 15.6506 14.3958 15.9506C14.2807 16.1531 14.0691 16.2665 13.8524 16.2665Z" fill="#4A8F9F"/>
</svg>
