<svg width="18" height="20" viewBox="0 0 18 20" fill="none" xmlns="http://www.w3.org/2000/svg">
<path d="M16.1947 7.06802L13.6315 7.9985C13.2476 7.31186 12.712 6.71921 12.0544 6.25992C11.8525 6.11877 11.6421 5.99365 11.4252 5.88303C12.0586 5.25955 12.452 4.39255 12.452 3.43521C12.452 1.54098 10.9124 -1.90735e-06 9.01969 -1.90735e-06C7.12714 -1.90735e-06 5.58738 1.54098 5.58738 3.43521C5.58738 4.39255 5.98075 5.25955 6.61414 5.88303C6.39731 5.99365 6.1869 6.11877 5.98502 6.25992C5.32752 6.71921 4.79178 7.31186 4.40787 7.9985L1.8447 7.06802C1.33612 6.88339 0.796875 7.26044 0.796875 7.80243V16.5178C0.796875 16.8465 1.00256 17.14 1.31155 17.2522L8.75312 19.9536C8.93073 20.018 9.12269 20.0128 9.28626 19.9536L16.7278 17.2522C17.0368 17.14 17.2425 16.8465 17.2425 16.5178V7.80243C17.2425 7.26135 16.704 6.88309 16.1947 7.06802ZM9.01969 1.5625C10.0507 1.5625 10.8895 2.40265 10.8895 3.43521C10.8895 4.46777 10.0507 5.30792 9.01969 5.30792C7.98866 5.30792 7.14988 4.46777 7.14988 3.43521C7.14988 2.40265 7.98866 1.5625 9.01969 1.5625ZM8.23844 18.1044L2.35938 15.9703V8.91724L8.23844 11.0513V18.1044ZM9.01969 9.67255L5.90644 8.54248C6.58164 7.51892 7.75184 6.87042 9.01969 6.87042C10.2875 6.87042 11.4577 7.51892 12.1329 8.54248L9.01969 9.67255ZM15.68 15.9703L9.80094 18.1044V11.0513L15.68 8.91724V15.9703Z" fill="#949DA6"/>
</svg>
