<svg width="30" height="30" viewBox="0 0 30 30" fill="none" xmlns="http://www.w3.org/2000/svg">
<path d="M13.1894 16.9448L10.7189 15.4507L4.08109 26.4266C3.95588 26.6335 4.11385 26.8961 4.35537 26.8825L7.07353 26.7294C7.19746 26.7224 7.31289 26.7923 7.36422 26.9052L8.49086 29.3835C8.59099 29.6037 8.89685 29.6216 9.02201 29.4147L15.6599 18.4388L13.1894 16.9448Z" fill="#68C4FB"/>
<path d="M16.8104 16.9448L19.2809 15.4507L25.9187 26.4266C26.0439 26.6335 25.886 26.8961 25.6445 26.8825L22.9263 26.7294C22.8024 26.7224 22.6869 26.7923 22.6356 26.9052L21.5089 29.3835C21.4088 29.6037 21.1029 29.6216 20.9778 29.4147L14.3398 18.4388L16.8104 16.9448Z" fill="#68C4FB"/>
<path d="M25.6432 26.8821L23.8924 26.7841L17.6387 16.443L19.2797 15.4504L25.9173 26.4266C26.0429 26.6332 25.8844 26.8962 25.6432 26.8821Z" fill="#42A7F9"/>
<path d="M4.35535 26.8821L6.10613 26.7841L12.3598 16.443L10.7188 15.4504L4.08125 26.4266C3.95562 26.6332 4.11412 26.8962 4.35535 26.8821Z" fill="#42A7F9"/>
<path d="M24.9679 10.4076C24.9679 11.2684 24.1624 12.0119 23.9502 12.8059C23.7306 13.6275 24.05 14.6729 23.6339 15.3922C23.2117 16.1218 22.1426 16.3654 21.5505 16.9575C20.9583 17.5497 20.7148 18.6187 19.9852 19.0409C19.2659 19.457 18.2204 19.1376 17.3989 19.3572C16.6049 19.5694 15.8614 20.3749 15.0005 20.3749C14.1397 20.3749 13.3962 19.5694 12.6022 19.3572C11.7806 19.1376 10.7352 19.457 10.0159 19.0408C9.28629 18.6187 9.04266 17.5496 8.45057 16.9575C7.85842 16.3653 6.78937 16.1217 6.36721 15.3921C5.95107 14.6728 6.27047 13.6274 6.05092 12.8059C5.83869 12.0119 5.0332 11.2684 5.0332 10.4075C5.0332 9.54665 5.83869 8.80315 6.05092 8.00915C6.27047 7.18761 5.95113 6.14218 6.36727 5.42288C6.78937 4.69327 7.85848 4.44964 8.45063 3.85755C9.04277 3.2654 9.28635 2.19636 10.016 1.77419C10.7353 1.35806 11.7807 1.67745 12.6022 1.4579C13.3962 1.24567 14.1397 0.440186 15.0005 0.440186C15.8614 0.440186 16.6049 1.24567 17.3989 1.4579C18.2204 1.67745 19.2659 1.35812 19.9852 1.77425C20.7148 2.19636 20.9584 3.26546 21.5505 3.85761C22.1426 4.44976 23.2117 4.69333 23.6339 5.42294C24.05 6.14224 23.7306 7.18767 23.9501 8.00915C24.1624 8.80315 24.9679 9.54665 24.9679 10.4076Z" fill="#F45151"/>
<path d="M23.95 12.806C23.7305 13.6277 24.0498 14.673 23.6337 15.3926C23.2117 16.1221 22.1429 16.3657 21.5506 16.9579C20.9584 17.5496 20.7149 18.6189 19.9853 19.0409C19.2657 19.4571 18.2204 19.1378 17.3987 19.3573C16.6052 19.5697 15.8615 20.375 15.0005 20.375C14.3537 20.375 13.7727 19.9201 13.1875 19.6044C13.9088 19.3913 14.5668 18.7797 15.2611 18.5943C16.1362 18.3601 17.2502 18.7005 18.0162 18.2568C18.7938 17.8072 19.0533 16.6685 19.6842 16.0376C20.3146 15.4067 21.4538 15.1472 21.9034 14.3701C22.3465 13.6036 22.0067 12.4902 22.2403 11.6151C22.4663 10.7694 23.3243 9.97701 23.3243 9.0602C23.3243 8.14285 22.4662 7.35107 22.2403 6.50527C22.0548 5.81035 22.2309 4.9652 22.0895 4.26318C22.6547 4.60947 23.3215 4.88299 23.6337 5.42293C24.0498 6.14252 23.7306 7.18783 23.9501 8.00955C24.1625 8.80309 24.9678 9.5467 24.9678 10.4077C24.9678 11.2688 24.1625 12.0119 23.95 12.806Z" fill="#F42F2F"/>
<path d="M26.2958 26.1987L21.3494 18.0196C21.5127 17.7299 21.6707 17.4596 21.8615 17.2688C22.0677 17.0626 22.3664 16.8947 22.6824 16.7171C23.1874 16.4333 23.7097 16.1396 24.0146 15.6126C24.315 15.0934 24.3096 14.4983 24.3043 13.9228C24.301 13.5558 24.2978 13.2091 24.3752 12.9196C24.4477 12.6481 24.6191 12.3595 24.8005 12.054C25.0852 11.5746 25.4079 11.0312 25.4079 10.4076C25.4079 9.78393 25.0852 9.24047 24.8005 8.76111C24.6191 8.45561 24.4478 8.16703 24.3753 7.89557C24.2979 7.60594 24.301 7.25936 24.3044 6.89232C24.3096 6.31682 24.3151 5.72174 24.0147 5.20254C23.7098 4.67549 23.1875 4.38193 22.6825 4.09805C22.3664 3.92039 22.0678 3.75252 21.8616 3.54633C21.6554 3.34008 21.4875 3.04148 21.3099 2.72537C21.026 2.22035 20.7325 1.69811 20.2054 1.39324C19.6862 1.09277 19.0912 1.09811 18.5156 1.10355C18.1487 1.10678 17.8019 1.11006 17.5124 1.03266C17.2409 0.960117 16.9524 0.788731 16.6469 0.607383C16.1674 0.322676 15.624 0 15.0003 0C14.3767 0 13.8333 0.322676 13.3538 0.607383C13.0483 0.788789 12.7598 0.960117 12.4883 1.03271C12.1987 1.11012 11.852 1.10701 11.485 1.10361C10.9094 1.0984 10.3145 1.09295 9.79526 1.3933C9.26827 1.69822 8.97472 2.22041 8.69083 2.72543C8.51311 3.04154 8.3453 3.3402 8.13905 3.54639C7.93286 3.75258 7.63421 3.92045 7.31815 4.09811C6.81313 4.38193 6.29089 4.67555 5.98597 5.2026C5.68556 5.7218 5.69095 6.31687 5.69628 6.89244C5.69962 7.25941 5.70278 7.60605 5.62538 7.89563C5.55284 8.16709 5.38146 8.45566 5.20005 8.76117C4.9154 9.24059 4.59267 9.78398 4.59267 10.4077C4.59267 11.0313 4.91534 11.5747 5.20005 12.0541C5.3814 12.3596 5.55278 12.6482 5.62532 12.9196C5.70272 13.2093 5.69956 13.5558 5.69622 13.9229C5.69095 14.4984 5.6855 15.0935 5.98591 15.6127C6.29083 16.1397 6.81308 16.4333 7.3181 16.7171C7.63421 16.8948 7.9328 17.0627 8.13899 17.2689C8.32983 17.4598 8.48786 17.7299 8.65122 18.0197L3.70491 26.1987C3.56224 26.4346 3.56189 26.7278 3.70398 26.9641C3.84606 27.2003 4.10569 27.3369 4.38062 27.3219L7.00351 27.1741L8.09071 29.5656C8.20474 29.8166 8.44655 29.9825 8.72183 29.9987C8.73647 29.9995 8.75118 29.9999 8.76577 29.9999C9.0244 29.9999 9.26423 29.8657 9.39923 29.6425L14.7484 20.7974C14.8309 20.8086 14.9149 20.8153 15.0004 20.8153C15.0859 20.8153 15.1698 20.8087 15.2523 20.7974L18.0296 25.3896C18.1554 25.5976 18.4259 25.6643 18.634 25.5384C18.842 25.4126 18.9087 25.1421 18.7828 24.934L16.1078 20.5107C16.2961 20.4158 16.4757 20.3095 16.6469 20.2078C16.9524 20.0264 17.2409 19.8551 17.5124 19.7825C17.802 19.7051 18.1487 19.7083 18.5157 19.7116C19.091 19.7167 19.6862 19.7222 20.2054 19.4219C20.4585 19.2755 20.6574 19.0787 20.8276 18.858L25.4057 26.428L22.9516 26.2897C22.6445 26.2724 22.3629 26.4425 22.2354 26.7229L21.2181 28.9605L20.3887 27.589C20.2629 27.3811 19.9923 27.3144 19.7842 27.4402C19.5762 27.566 19.5095 27.8366 19.6354 28.0447L20.6016 29.6424C20.7366 29.8657 20.9764 29.9999 21.235 29.9999C21.2496 29.9999 21.2643 29.9995 21.279 29.9987C21.5542 29.9825 21.7961 29.8165 21.9101 29.5656L22.9973 27.1741L25.6202 27.3219C25.8955 27.3369 26.1546 27.2002 26.2968 26.964C26.4389 26.7279 26.4385 26.4346 26.2958 26.1987ZM8.78265 28.9606L7.7654 26.7229C7.64382 26.4555 7.38267 26.2885 7.09204 26.2885C7.07786 26.2885 7.06356 26.2889 7.04927 26.2897L4.59513 26.428L9.17317 18.858C9.34333 19.0787 9.54226 19.2755 9.79532 19.4218C10.3146 19.7223 10.9097 19.7169 11.4852 19.7115C11.8521 19.7082 12.1988 19.705 12.4884 19.7824C12.7599 19.855 13.0484 20.0263 13.3539 20.2077C13.5251 20.3094 13.7047 20.4157 13.893 20.5106L8.78265 28.9606ZM19.7645 18.6599C19.4536 18.8398 19.0018 18.8355 18.5237 18.8313C18.1139 18.8274 17.6904 18.8237 17.2851 18.932C16.8961 19.0359 16.5409 19.2469 16.1974 19.4508C15.7783 19.6997 15.3824 19.9348 15.0003 19.9348C14.6183 19.9348 14.2225 19.6997 13.8033 19.4508C13.4597 19.2469 13.1046 19.036 12.7156 18.932C12.3848 18.8436 12.0418 18.8299 11.7041 18.8299C11.6281 18.8299 11.5523 18.8306 11.4769 18.8313C10.9986 18.8356 10.5469 18.8398 10.236 18.6599C9.91749 18.4756 9.69431 18.0786 9.45817 17.6583C9.25913 17.3043 9.05335 16.9381 8.76149 16.6462C8.4697 16.3545 8.10355 16.1486 7.74946 15.9496C7.32917 15.7134 6.9322 15.4903 6.74792 15.1717C6.5681 14.8608 6.5722 14.4091 6.57659 13.9309C6.58028 13.5212 6.58421 13.0976 6.47587 12.6923C6.37192 12.3033 6.16099 11.9481 5.95702 11.6046C5.70817 11.1855 5.47304 10.7896 5.47304 10.4075C5.47304 10.0255 5.70812 9.62971 5.95702 9.21047C6.16099 8.86693 6.37187 8.5118 6.47587 8.12279C6.58421 7.7175 6.58028 7.29387 6.57659 6.88418C6.5722 6.40594 6.5681 5.95418 6.74798 5.64328C6.93226 5.32477 7.32929 5.10158 7.74952 4.86539C8.1036 4.66635 8.46976 4.46057 8.76155 4.16877C9.05335 3.87697 9.25919 3.51082 9.45823 3.15668C9.69448 2.73639 9.91755 2.33941 10.2361 2.1552C10.547 1.97531 10.9988 1.97947 11.4769 1.98381C11.8865 1.98744 12.3102 1.99143 12.7155 1.88309C13.1045 1.77914 13.4597 1.5682 13.8032 1.36424C14.2224 1.11545 14.6184 0.880371 15.0003 0.880371C15.3822 0.880371 15.7782 1.11545 16.1974 1.36436C16.5409 1.56832 16.8961 1.7792 17.2851 1.8832C17.6903 1.99154 18.1138 1.98756 18.5237 1.98393C19.0019 1.9793 19.4537 1.97543 19.7646 2.15531C20.0832 2.33959 20.3063 2.73656 20.5425 3.1568C20.7415 3.51088 20.9473 3.87709 21.2391 4.16889C21.5309 4.46068 21.8971 4.66652 22.2512 4.86557C22.6715 5.10182 23.0684 5.32488 23.2527 5.6434C23.4325 5.9543 23.4284 6.406 23.4241 6.88424C23.4204 7.29393 23.4164 7.71756 23.5248 8.12285C23.6287 8.51186 23.8397 8.86699 24.0436 9.21053C24.2925 9.62971 24.5276 10.0256 24.5276 10.4076C24.5276 10.7895 24.2925 11.1854 24.0436 11.6046C23.8397 11.9481 23.6288 12.3033 23.5248 12.6923C23.4164 13.0976 23.4204 13.5212 23.4241 13.9309C23.4284 14.4091 23.4325 14.8609 23.2527 15.1718C23.0684 15.4903 22.6714 15.7135 22.2511 15.9497C21.897 16.1487 21.5309 16.3545 21.2391 16.6463C20.9473 16.9381 20.7415 17.3043 20.5424 17.6584C20.3062 18.0786 20.083 18.4756 19.7645 18.6599Z" fill="black"/>
<path d="M15.001 16.3458C18.2808 16.3458 20.9396 13.687 20.9396 10.4073C20.9396 7.12752 18.2808 4.46875 15.001 4.46875C11.7213 4.46875 9.0625 7.12752 9.0625 10.4073C9.0625 13.687 11.7213 16.3458 15.001 16.3458Z" fill="#F5CA26"/>
<path d="M20.9377 10.4079C20.9377 13.6876 18.279 16.3461 14.9983 16.3461C12.4749 16.3461 10.3196 14.7723 9.45898 12.5522C10.4504 13.2962 11.6824 13.737 13.0189 13.737C16.2986 13.737 18.9571 11.0772 18.9571 7.79762C18.9571 7.04146 18.8154 6.31824 18.5582 5.65332C20.0035 6.73695 20.9377 8.46365 20.9377 10.4079Z" fill="#EAAF13"/>
<path d="M15.0003 16.7864C13.4777 16.7864 12.0034 16.2411 10.8492 15.251C9.70757 14.2717 8.94608 12.9192 8.70503 11.4424C8.66589 11.2025 8.8286 10.9763 9.06855 10.9371C9.30831 10.8976 9.53466 11.0606 9.57392 11.3005C9.78157 12.5727 10.4381 13.7383 11.4223 14.5827C12.4171 15.436 13.6877 15.9059 15.0003 15.9059C18.0322 15.9059 20.4988 13.4393 20.4988 10.4074C20.4988 7.37544 18.0322 4.90894 15.0003 4.90894C13.8721 4.90894 12.7881 5.24796 11.8655 5.88939C10.9634 6.51663 10.2759 7.38669 9.87749 8.40558C9.7889 8.63204 9.5336 8.74384 9.30726 8.65519C9.08079 8.56659 8.96905 8.3113 9.05765 8.08495C9.51989 6.90294 10.3171 5.89378 11.363 5.16657C12.4339 4.42208 13.6917 4.02856 15.0004 4.02856C18.5177 4.02856 21.3793 6.89017 21.3793 10.4075C21.3793 13.9248 18.5177 16.7864 15.0003 16.7864Z" fill="black"/>
</svg>
