<svg width="26" height="30" viewBox="0 0 26 30" fill="none" xmlns="http://www.w3.org/2000/svg">
<path d="M24.0085 11.5383L6.28968 0.616072C5.00776 -0.173129 3.4579 -0.205942 2.1437 0.528298C0.829494 1.26242 0.0449219 2.59959 0.0449219 4.10493V25.8498C0.0449219 28.126 1.87891 29.9877 4.13302 30C4.13917 30 4.14532 30 4.15136 30C4.85577 30 5.58984 29.7792 6.27544 29.3608C6.82699 29.0243 7.0013 28.3044 6.6648 27.7529C6.32829 27.2013 5.60829 27.0271 5.05692 27.3636C4.73624 27.5592 4.42306 27.6604 4.14561 27.6603C3.29512 27.6557 2.38452 26.9271 2.38452 25.8499V4.10498C2.38452 3.45922 2.72108 2.88576 3.28475 2.57082C3.84848 2.25588 4.51323 2.26994 5.06243 2.60809L22.7813 13.5303C23.3138 13.8582 23.6186 14.4049 23.6173 15.0303C23.616 15.6557 23.309 16.2012 22.7735 16.528L9.96275 24.3718C9.41174 24.7092 9.23853 25.4294 9.57592 25.9804C9.91324 26.5314 10.6334 26.7046 11.1844 26.3672L23.9937 18.5243C25.2201 17.7761 25.9541 16.4718 25.957 15.035C25.9599 13.5984 25.2313 12.2911 24.0085 11.5383Z" fill="#090761"/>
</svg>
