<svg width="20" height="20" viewBox="0 0 20 20" fill="none" xmlns="http://www.w3.org/2000/svg">
<g clip-path="url(#clip0_206_763)">
<path d="M17.2252 3.07771C15.3376 1.10739 12.7258 -0.00456124 9.99712 0.000459433C4.48284 -0.00648583 0.00695317 4.4581 7.91636e-06 9.97243C-0.00342287 12.6991 1.1084 15.3085 3.07726 17.1948C3.08299 17.2005 3.08512 17.2091 3.09082 17.2141C3.14864 17.2698 3.21148 17.3169 3.27005 17.3705C3.43071 17.5133 3.59138 17.6611 3.76061 17.7989C3.85128 17.8703 3.94554 17.9417 4.03838 18.0074C4.19833 18.1266 4.35828 18.2459 4.52535 18.3559C4.6389 18.4273 4.756 18.4987 4.87236 18.5701C5.02658 18.6629 5.18012 18.7564 5.33936 18.8414C5.47434 18.9128 5.61211 18.9742 5.74922 19.0392C5.89917 19.1106 6.04698 19.182 6.20049 19.2462C6.354 19.3105 6.50826 19.3605 6.6639 19.4162C6.81954 19.4719 6.9538 19.5233 7.10304 19.569C7.27157 19.6197 7.44436 19.6589 7.61573 19.7011C7.75853 19.736 7.89706 19.776 8.04416 19.8046C8.24123 19.8439 8.44117 19.8689 8.64112 19.896C8.76467 19.9132 8.88534 19.9375 9.01027 19.9496C9.33732 19.9817 9.66718 19.9996 9.99992 19.9996C10.3327 19.9996 10.6626 19.9817 10.9896 19.9496C11.1146 19.9375 11.2352 19.9132 11.3587 19.896C11.5587 19.8689 11.7586 19.8439 11.9557 19.8046C12.0985 19.776 12.2413 19.7332 12.3841 19.7011C12.5555 19.6589 12.7283 19.6196 12.8968 19.569C13.046 19.5233 13.1903 19.4676 13.3359 19.4162C13.4816 19.3648 13.6473 19.3091 13.7994 19.2462C13.9514 19.1834 14.1007 19.1098 14.2506 19.0392C14.3877 18.9742 14.5256 18.9128 14.6605 18.8414C14.8197 18.7564 14.9732 18.6629 15.1275 18.5701C15.2439 18.4987 15.361 18.4337 15.4745 18.3559C15.6416 18.2459 15.8016 18.1267 15.9615 18.0074C16.0543 17.936 16.1485 17.8717 16.2392 17.7989C16.4085 17.6632 16.5691 17.519 16.7298 17.3705C16.7883 17.3169 16.8512 17.2698 16.909 17.2141C16.9147 17.2091 16.9169 17.2005 16.9226 17.1948C20.9046 13.38 21.04 7.05956 17.2252 3.07771ZM15.6203 16.4472C15.4904 16.5614 15.3561 16.67 15.2205 16.7749C15.1405 16.8364 15.0605 16.897 14.9784 16.9556C14.8491 17.0491 14.7178 17.1377 14.5842 17.2227C14.4871 17.2848 14.3879 17.3447 14.2879 17.4033C14.1622 17.4747 14.0344 17.5461 13.9051 17.6175C13.7909 17.6761 13.6745 17.7311 13.5574 17.7853C13.4403 17.8396 13.3111 17.8974 13.1847 17.9481C13.0583 17.9988 12.924 18.0467 12.7919 18.0909C12.6713 18.1324 12.5506 18.1752 12.4285 18.2116C12.2857 18.2544 12.1364 18.2894 11.9886 18.3252C11.8729 18.3523 11.7587 18.383 11.6416 18.4059C11.4724 18.4387 11.2996 18.4615 11.1261 18.4851C11.0275 18.4979 10.9297 18.5158 10.8304 18.5258C10.5562 18.5522 10.2784 18.5679 9.99783 18.5679C9.71722 18.5679 9.43945 18.5523 9.16524 18.5258C9.066 18.5158 8.96818 18.4979 8.8696 18.4851C8.6961 18.4615 8.5233 18.4387 8.35406 18.4059C8.23696 18.383 8.1227 18.3523 8.00705 18.3252C7.85924 18.2895 7.71213 18.2537 7.5672 18.2116C7.44512 18.1752 7.32441 18.1324 7.20375 18.0909C7.07166 18.0452 6.93953 17.9988 6.811 17.9481C6.68248 17.8974 6.5611 17.8417 6.43826 17.7853C6.31542 17.7289 6.20476 17.6761 6.09054 17.6175C5.9613 17.5504 5.83348 17.4797 5.7078 17.4033C5.60784 17.3448 5.50856 17.2848 5.41145 17.2227C5.27794 17.1377 5.14653 17.0491 5.01729 16.9556C4.93516 16.8971 4.8552 16.8364 4.77521 16.7749C4.63952 16.67 4.5053 16.5607 4.37535 16.4472C4.34393 16.4236 4.31536 16.3936 4.28469 16.3665C4.31661 13.9374 5.87708 11.7926 8.17843 11.0146C9.32912 11.562 10.6651 11.562 11.8158 11.0146C14.1171 11.7926 15.6776 13.9374 15.7096 16.3665C15.6796 16.3936 15.651 16.4208 15.6203 16.4472ZM7.50716 5.72561C8.2803 4.35062 10.0217 3.86274 11.3967 4.63588C12.7717 5.40902 13.2596 7.1504 12.4864 8.52539C12.2299 8.9816 11.8529 9.35857 11.3967 9.61513C11.3931 9.61513 11.3888 9.61513 11.3845 9.61939C11.1952 9.72479 10.9951 9.80955 10.7876 9.87218C10.7505 9.8829 10.7162 9.89716 10.6769 9.90645C10.6055 9.92503 10.5305 9.93787 10.457 9.95072C10.3185 9.97494 10.1784 9.989 10.0378 9.99285H9.95641C9.81588 9.989 9.67576 9.97494 9.53727 9.95072C9.46585 9.93787 9.39016 9.92503 9.31736 9.90645C9.2795 9.89716 9.24594 9.8829 9.2067 9.87218C8.99922 9.80955 8.79911 9.72483 8.60974 9.61939L8.5969 9.61513C7.2219 8.84199 6.73402 7.10061 7.50716 5.72561ZM16.9763 14.9506C16.518 12.8133 15.1107 11.0014 13.1532 10.0286C14.7534 8.28557 14.6375 5.57537 12.8944 3.97524C11.1514 2.37511 8.44117 2.491 6.84104 4.23406C5.33677 5.87272 5.33677 8.39 6.84104 10.0286C4.88361 11.0014 3.47624 12.8133 3.01802 14.9506C0.27991 11.0937 1.18681 5.74745 5.04365 3.00935C8.90048 0.271241 14.2467 1.17814 16.9848 5.03498C18.0141 6.48482 18.5666 8.21909 18.5658 9.99716C18.5658 11.7737 18.01 13.5057 16.9763 14.9506Z" fill="#949DA6"/>
</g>
<defs>
<clipPath id="clip0_206_763">
<rect width="20" height="20" fill="white"/>
</clipPath>
</defs>
</svg>
