<svg width="18" height="18" viewBox="0 0 18 18" fill="none" xmlns="http://www.w3.org/2000/svg">
<path d="M17.8856 8.64995C17.7248 8.42998 13.8934 3.26379 8.99991 3.26379C4.10647 3.26379 0.274852 8.42998 0.114223 8.64974C-0.0380743 8.85843 -0.0380743 9.14147 0.114223 9.35016C0.274852 9.57013 4.10647 14.7363 8.99991 14.7363C13.8934 14.7363 17.7248 9.5701 17.8856 9.35034C18.0381 9.14168 18.0381 8.85843 17.8856 8.64995ZM8.99991 13.5495C5.39537 13.5495 2.27345 10.1206 1.3493 8.99965C2.27226 7.87771 5.38764 4.4506 8.99991 4.4506C12.6043 4.4506 15.726 7.8789 16.6505 9.00046C15.7276 10.1224 12.6122 13.5495 8.99991 13.5495Z" fill="white" fill-opacity="0.7"/>
<path d="M8.9999 5.43958C7.03671 5.43958 5.43945 7.03683 5.43945 9.00003C5.43945 10.9632 7.03671 12.5605 8.9999 12.5605C10.9631 12.5605 12.5603 10.9632 12.5603 9.00003C12.5603 7.03683 10.9631 5.43958 8.9999 5.43958ZM8.9999 11.3736C7.69103 11.3736 6.62629 10.3089 6.62629 9.00003C6.62629 7.6912 7.69107 6.62642 8.9999 6.62642C10.3087 6.62642 11.3735 7.6912 11.3735 9.00003C11.3735 10.3089 10.3088 11.3736 8.9999 11.3736Z" fill="white" fill-opacity="0.7"/>
</svg>
