<svg width="20" height="20" viewBox="0 0 20 20" fill="none" xmlns="http://www.w3.org/2000/svg">
<path d="M14.0546 1.50903C12.5253 1.50903 11.0925 2.08101 9.99997 3.1044C8.90748 2.08101 7.4746 1.50903 5.94537 1.50903C2.6671 1.50903 0 4.17619 0 7.45451C0 9.06931 0.531456 10.659 1.57957 12.1795C2.38996 13.355 3.51109 14.4913 4.91171 15.5567C7.26125 17.3441 9.58094 18.3178 9.67856 18.3584L9.99757 18.491L10.3173 18.3601C10.415 18.3201 12.7362 17.3602 15.087 15.5793C16.4884 14.5177 17.6101 13.3817 18.4209 12.2031C19.4687 10.6798 20 9.08215 20 7.45457C20 4.17619 17.3329 1.50903 14.0546 1.50903ZM10.0018 16.6691C8.43703 15.9444 1.67458 12.5177 1.67458 7.45451C1.67458 5.09955 3.59046 3.18367 5.94543 3.18367C7.28375 3.18367 8.51948 3.79372 9.33578 4.85741L10 5.723L10.6643 4.85741C11.4806 3.79372 12.7163 3.18367 14.0546 3.18367C16.4095 3.18367 18.3255 5.09955 18.3255 7.45451C18.3254 12.5541 11.5658 15.9516 10.0018 16.6691Z" fill="white"/>
</svg>
